<?xml version="1.0" encoding="UTF-8"?>
<svg width="217px" height="88px" viewBox="0 0 217 88" version="1.1" xmlns="http://www.w3.org/2000/svg" xmlns:xlink="http://www.w3.org/1999/xlink">
    <title>1-granssnittsdesigner</title>
    <defs>
        <linearGradient x1="50%" y1="0%" x2="50%" y2="100%" id="linearGradient-1">
            <stop stop-color="#06B3C4" offset="0%"></stop>
            <stop stop-color="#0094A3" offset="100%"></stop>
        </linearGradient>
        <rect id="path-2" x="0" y="0" width="205" height="41" rx="2"></rect>
        <filter x="-1.7%" y="-6.1%" width="103.4%" height="117.1%" filterUnits="objectBoundingBox" id="filter-3">
            <feOffset dx="0" dy="1" in="SourceAlpha" result="shadowOffsetOuter1"></feOffset>
            <feGaussianBlur stdDeviation="1" in="shadowOffsetOuter1" result="shadowBlurOuter1"></feGaussianBlur>
            <feColorMatrix values="0 0 0 0 0   0 0 0 0 0   0 0 0 0 0  0 0 0 0.5 0" type="matrix" in="shadowBlurOuter1"></feColorMatrix>
        </filter>
        <path d="M10.496,11.696 L9.216,11.696 L8.912,10.352 C8.37866667,10.96 7.84533333,11.3813333 7.312,11.616 C6.77866667,11.8506667 6.16533333,11.968 5.472,11.968 C4.61866667,11.968 3.85333333,11.8106667 3.176,11.496 C2.49866667,11.1813333 1.92533333,10.752 1.456,10.208 C0.986666667,9.664 0.626666667,9.02933333 0.376,8.304 C0.125333333,7.57866667 0,6.80533333 0,5.984 C0,5.17333333 0.125333333,4.40533333 0.376,3.68 C0.626666667,2.95466667 0.986666667,2.32 1.456,1.776 C1.92533333,1.232 2.49866667,0.8 3.176,0.48 C3.85333333,0.16 4.61866667,0 5.472,0 C6.09066667,0 6.68,0.0826666667 7.24,0.248 C7.8,0.413333333 8.29866667,0.658666667 8.736,0.984 C9.17333333,1.30933333 9.536,1.71733333 9.824,2.208 C10.112,2.69866667 10.2933333,3.264 10.368,3.904 L8.416,3.904 C8.36266667,3.53066667 8.248,3.20266667 8.072,2.92 C7.896,2.63733333 7.67466667,2.4 7.408,2.208 C7.14133333,2.016 6.84266667,1.872 6.512,1.776 C6.18133333,1.68 5.83466667,1.632 5.472,1.632 C4.864,1.632 4.33866667,1.75466667 3.896,2 C3.45333333,2.24533333 3.09333333,2.57333333 2.816,2.984 C2.53866667,3.39466667 2.33333333,3.86133333 2.2,4.384 C2.06666667,4.90666667 2,5.44 2,5.984 C2,6.528 2.06666667,7.06133333 2.2,7.584 C2.33333333,8.10666667 2.53866667,8.57333333 2.816,8.984 C3.09333333,9.39466667 3.45333333,9.72266667 3.896,9.968 C4.33866667,10.2133333 4.864,10.336 5.472,10.336 C5.984,10.3466667 6.43733333,10.28 6.832,10.136 C7.22666667,9.992 7.56,9.784 7.832,9.512 C8.104,9.24 8.30933333,8.90666667 8.448,8.512 C8.58666667,8.11733333 8.66133333,7.68 8.672,7.2 L5.632,7.2 L5.632,5.68 L10.496,5.68 L10.496,11.696 Z" id="path-4"></path>
        <filter x="-4.8%" y="-12.5%" width="109.5%" height="116.7%" filterUnits="objectBoundingBox" id="filter-5">
            <feOffset dx="0" dy="-1" in="SourceAlpha" result="shadowOffsetOuter1"></feOffset>
            <feColorMatrix values="0 0 0 0 0   0 0 0 0 0   0 0 0 0 0  0 0 0 0.25 0" type="matrix" in="shadowOffsetOuter1"></feColorMatrix>
        </filter>
        <path d="M12.416,3.424 L14.128,3.424 L14.128,5.024 L14.16,5.024 C14.2133333,4.8 14.3173333,4.58133333 14.472,4.368 C14.6266667,4.15466667 14.8133333,3.96 15.032,3.784 C15.2506667,3.608 15.4933333,3.46666667 15.76,3.36 C16.0266667,3.25333333 16.2986667,3.2 16.576,3.2 C16.7893333,3.2 16.936,3.20533333 17.016,3.216 C17.096,3.22666667 17.1786667,3.23733333 17.264,3.248 L17.264,5.008 C17.136,4.98666667 17.0053333,4.968 16.872,4.952 C16.7386667,4.936 16.608,4.928 16.48,4.928 C16.1706667,4.928 15.88,4.98933333 15.608,5.112 C15.336,5.23466667 15.0986667,5.416 14.896,5.656 C14.6933333,5.896 14.5333333,6.192 14.416,6.544 C14.2986667,6.896 14.24,7.30133333 14.24,7.76 L14.24,11.696 L12.416,11.696 L12.416,3.424 Z" id="path-6"></path>
        <filter x="-10.3%" y="-17.7%" width="120.6%" height="123.5%" filterUnits="objectBoundingBox" id="filter-7">
            <feOffset dx="0" dy="-1" in="SourceAlpha" result="shadowOffsetOuter1"></feOffset>
            <feColorMatrix values="0 0 0 0 0   0 0 0 0 0   0 0 0 0 0  0 0 0 0.25 0" type="matrix" in="shadowOffsetOuter1"></feColorMatrix>
        </filter>
        <path d="M24.976,9.856 C24.976,10.08 25.0053333,10.24 25.064,10.336 C25.1226667,10.432 25.2373333,10.48 25.408,10.48 C25.4613333,10.48 25.5253333,10.48 25.6,10.48 C25.6746667,10.48 25.76,10.4693333 25.856,10.448 L25.856,11.712 C25.792,11.7333333 25.7093333,11.7573333 25.608,11.784 C25.5066667,11.8106667 25.4026667,11.8346667 25.296,11.856 C25.1893333,11.8773333 25.0826667,11.8933333 24.976,11.904 C24.8693333,11.9146667 24.7786667,11.92 24.704,11.92 C24.3306667,11.92 24.0213333,11.8453333 23.776,11.696 C23.5306667,11.5466667 23.3706667,11.2853333 23.296,10.912 C22.9333333,11.264 22.488,11.52 21.96,11.68 C21.432,11.84 20.9226667,11.92 20.432,11.92 C20.0586667,11.92 19.7013333,11.8693333 19.36,11.768 C19.0186667,11.6666667 18.7173333,11.5173333 18.456,11.32 C18.1946667,11.1226667 17.9866667,10.872 17.832,10.568 C17.6773333,10.264 17.6,9.90933333 17.6,9.504 C17.6,8.992 17.6933333,8.576 17.88,8.256 C18.0666667,7.936 18.312,7.68533333 18.616,7.504 C18.92,7.32266667 19.2613333,7.192 19.64,7.112 C20.0186667,7.032 20.4,6.97066667 20.784,6.928 C21.1146667,6.864 21.4293333,6.81866667 21.728,6.792 C22.0266667,6.76533333 22.2906667,6.72 22.52,6.656 C22.7493333,6.592 22.9306667,6.49333333 23.064,6.36 C23.1973333,6.22666667 23.264,6.02666667 23.264,5.76 C23.264,5.52533333 23.208,5.33333333 23.096,5.184 C22.984,5.03466667 22.8453333,4.92 22.68,4.84 C22.5146667,4.76 22.3306667,4.70666667 22.128,4.68 C21.9253333,4.65333333 21.7333333,4.64 21.552,4.64 C21.04,4.64 20.6186667,4.74666667 20.288,4.96 C19.9573333,5.17333333 19.7706667,5.504 19.728,5.952 L17.904,5.952 C17.936,5.41866667 18.064,4.976 18.288,4.624 C18.512,4.272 18.7973333,3.98933333 19.144,3.776 C19.4906667,3.56266667 19.8826667,3.41333333 20.32,3.328 C20.7573333,3.24266667 21.2053333,3.2 21.664,3.2 C22.0693333,3.2 22.4693333,3.24266667 22.864,3.328 C23.2586667,3.41333333 23.6133333,3.552 23.928,3.744 C24.2426667,3.936 24.496,4.184 24.688,4.488 C24.88,4.792 24.976,5.16266667 24.976,5.6 L24.976,9.856 Z M23.152,7.552 C22.8746667,7.73333333 22.5333333,7.84266667 22.128,7.88 C21.7226667,7.91733333 21.3173333,7.97333333 20.912,8.048 C20.72,8.08 20.5333333,8.12533333 20.352,8.184 C20.1706667,8.24266667 20.0106667,8.32266667 19.872,8.424 C19.7333333,8.52533333 19.624,8.65866667 19.544,8.824 C19.464,8.98933333 19.424,9.18933333 19.424,9.424 C19.424,9.62666667 19.4826667,9.79733333 19.6,9.936 C19.7173333,10.0746667 19.8586667,10.184 20.024,10.264 C20.1893333,10.344 20.3706667,10.4 20.568,10.432 C20.7653333,10.464 20.944,10.48 21.104,10.48 C21.3066667,10.48 21.5253333,10.4533333 21.76,10.4 C21.9946667,10.3466667 22.216,10.256 22.424,10.128 C22.632,10 22.8053333,9.83733333 22.944,9.64 C23.0826667,9.44266667 23.152,9.2 23.152,8.912 L23.152,7.552 Z M19.312,2.064 L19.312,0.336 L21.136,0.336 L21.136,2.064 L19.312,2.064 Z M23.888,0.336 L23.888,2.064 L22.064,2.064 L22.064,0.336 L23.888,0.336 Z" id="path-8"></path>
        <filter x="-6.1%" y="-12.9%" width="112.1%" height="117.3%" filterUnits="objectBoundingBox" id="filter-9">
            <feOffset dx="0" dy="-1" in="SourceAlpha" result="shadowOffsetOuter1"></feOffset>
            <feColorMatrix values="0 0 0 0 0   0 0 0 0 0   0 0 0 0 0  0 0 0 0.25 0" type="matrix" in="shadowOffsetOuter1"></feColorMatrix>
        </filter>
        <path d="M26.944,3.424 L28.672,3.424 L28.672,4.64 L28.704,4.672 C28.9813333,4.21333333 29.344,3.85333333 29.792,3.592 C30.24,3.33066667 30.736,3.2 31.28,3.2 C32.1866667,3.2 32.9013333,3.43466667 33.424,3.904 C33.9466667,4.37333333 34.208,5.07733333 34.208,6.016 L34.208,11.696 L32.384,11.696 L32.384,6.496 C32.3626667,5.84533333 32.224,5.37333333 31.968,5.08 C31.712,4.78666667 31.312,4.64 30.768,4.64 C30.4586667,4.64 30.1813333,4.696 29.936,4.808 C29.6906667,4.92 29.4826667,5.07466667 29.312,5.272 C29.1413333,5.46933333 29.008,5.70133333 28.912,5.968 C28.816,6.23466667 28.768,6.51733333 28.768,6.816 L28.768,11.696 L26.944,11.696 L26.944,3.424 Z" id="path-10"></path>
        <filter x="-6.9%" y="-17.7%" width="113.8%" height="123.5%" filterUnits="objectBoundingBox" id="filter-11">
            <feOffset dx="0" dy="-1" in="SourceAlpha" result="shadowOffsetOuter1"></feOffset>
            <feColorMatrix values="0 0 0 0 0   0 0 0 0 0   0 0 0 0 0  0 0 0 0.25 0" type="matrix" in="shadowOffsetOuter1"></feColorMatrix>
        </filter>
        <path d="M37.504,9.04 C37.5573333,9.57333333 37.76,9.94666667 38.112,10.16 C38.464,10.3733333 38.8853333,10.48 39.376,10.48 C39.5466667,10.48 39.7413333,10.4666667 39.96,10.44 C40.1786667,10.4133333 40.384,10.3626667 40.576,10.288 C40.768,10.2133333 40.9253333,10.104 41.048,9.96 C41.1706667,9.816 41.2266667,9.62666667 41.216,9.392 C41.2053333,9.15733333 41.12,8.96533333 40.96,8.816 C40.8,8.66666667 40.5946667,8.54666667 40.344,8.456 C40.0933333,8.36533333 39.808,8.288 39.488,8.224 C39.168,8.16 38.8426667,8.09066667 38.512,8.016 C38.1706667,7.94133333 37.8426667,7.85066667 37.528,7.744 C37.2133333,7.63733333 36.9306667,7.49333333 36.68,7.312 C36.4293333,7.13066667 36.2293333,6.89866667 36.08,6.616 C35.9306667,6.33333333 35.856,5.984 35.856,5.568 C35.856,5.12 35.9653333,4.744 36.184,4.44 C36.4026667,4.136 36.68,3.89066667 37.016,3.704 C37.352,3.51733333 37.7253333,3.38666667 38.136,3.312 C38.5466667,3.23733333 38.9386667,3.2 39.312,3.2 C39.7386667,3.2 40.1466667,3.24533333 40.536,3.336 C40.9253333,3.42666667 41.2773333,3.57333333 41.592,3.776 C41.9066667,3.97866667 42.168,4.24266667 42.376,4.568 C42.584,4.89333333 42.7146667,5.28533333 42.768,5.744 L40.864,5.744 C40.7786667,5.30666667 40.5786667,5.01333333 40.264,4.864 C39.9493333,4.71466667 39.5893333,4.64 39.184,4.64 C39.056,4.64 38.904,4.65066667 38.728,4.672 C38.552,4.69333333 38.3866667,4.73333333 38.232,4.792 C38.0773333,4.85066667 37.9466667,4.936 37.84,5.048 C37.7333333,5.16 37.68,5.30666667 37.68,5.488 C37.68,5.712 37.7573333,5.89333333 37.912,6.032 C38.0666667,6.17066667 38.2693333,6.28533333 38.52,6.376 C38.7706667,6.46666667 39.056,6.544 39.376,6.608 C39.696,6.672 40.0266667,6.74133333 40.368,6.816 C40.6986667,6.89066667 41.024,6.98133333 41.344,7.088 C41.664,7.19466667 41.9493333,7.33866667 42.2,7.52 C42.4506667,7.70133333 42.6533333,7.93066667 42.808,8.208 C42.9626667,8.48533333 43.04,8.82666667 43.04,9.232 C43.04,9.72266667 42.928,10.1386667 42.704,10.48 C42.48,10.8213333 42.1893333,11.0986667 41.832,11.312 C41.4746667,11.5253333 41.0773333,11.68 40.64,11.776 C40.2026667,11.872 39.7706667,11.92 39.344,11.92 C38.8213333,11.92 38.3386667,11.8613333 37.896,11.744 C37.4533333,11.6266667 37.0693333,11.448 36.744,11.208 C36.4186667,10.968 36.1626667,10.6693333 35.976,10.312 C35.7893333,9.95466667 35.6906667,9.53066667 35.68,9.04 L37.504,9.04 Z" id="path-12"></path>
        <filter x="-6.8%" y="-17.2%" width="113.6%" height="122.9%" filterUnits="objectBoundingBox" id="filter-13">
            <feOffset dx="0" dy="-1" in="SourceAlpha" result="shadowOffsetOuter1"></feOffset>
            <feColorMatrix values="0 0 0 0 0   0 0 0 0 0   0 0 0 0 0  0 0 0 0.25 0" type="matrix" in="shadowOffsetOuter1"></feColorMatrix>
        </filter>
        <path d="M45.808,9.04 C45.8613333,9.57333333 46.064,9.94666667 46.416,10.16 C46.768,10.3733333 47.1893333,10.48 47.68,10.48 C47.8506667,10.48 48.0453333,10.4666667 48.264,10.44 C48.4826667,10.4133333 48.688,10.3626667 48.88,10.288 C49.072,10.2133333 49.2293333,10.104 49.352,9.96 C49.4746667,9.816 49.5306667,9.62666667 49.52,9.392 C49.5093333,9.15733333 49.424,8.96533333 49.264,8.816 C49.104,8.66666667 48.8986667,8.54666667 48.648,8.456 C48.3973333,8.36533333 48.112,8.288 47.792,8.224 C47.472,8.16 47.1466667,8.09066667 46.816,8.016 C46.4746667,7.94133333 46.1466667,7.85066667 45.832,7.744 C45.5173333,7.63733333 45.2346667,7.49333333 44.984,7.312 C44.7333333,7.13066667 44.5333333,6.89866667 44.384,6.616 C44.2346667,6.33333333 44.16,5.984 44.16,5.568 C44.16,5.12 44.2693333,4.744 44.488,4.44 C44.7066667,4.136 44.984,3.89066667 45.32,3.704 C45.656,3.51733333 46.0293333,3.38666667 46.44,3.312 C46.8506667,3.23733333 47.2426667,3.2 47.616,3.2 C48.0426667,3.2 48.4506667,3.24533333 48.84,3.336 C49.2293333,3.42666667 49.5813333,3.57333333 49.896,3.776 C50.2106667,3.97866667 50.472,4.24266667 50.68,4.568 C50.888,4.89333333 51.0186667,5.28533333 51.072,5.744 L49.168,5.744 C49.0826667,5.30666667 48.8826667,5.01333333 48.568,4.864 C48.2533333,4.71466667 47.8933333,4.64 47.488,4.64 C47.36,4.64 47.208,4.65066667 47.032,4.672 C46.856,4.69333333 46.6906667,4.73333333 46.536,4.792 C46.3813333,4.85066667 46.2506667,4.936 46.144,5.048 C46.0373333,5.16 45.984,5.30666667 45.984,5.488 C45.984,5.712 46.0613333,5.89333333 46.216,6.032 C46.3706667,6.17066667 46.5733333,6.28533333 46.824,6.376 C47.0746667,6.46666667 47.36,6.544 47.68,6.608 C48,6.672 48.3306667,6.74133333 48.672,6.816 C49.0026667,6.89066667 49.328,6.98133333 49.648,7.088 C49.968,7.19466667 50.2533333,7.33866667 50.504,7.52 C50.7546667,7.70133333 50.9573333,7.93066667 51.112,8.208 C51.2666667,8.48533333 51.344,8.82666667 51.344,9.232 C51.344,9.72266667 51.232,10.1386667 51.008,10.48 C50.784,10.8213333 50.4933333,11.0986667 50.136,11.312 C49.7786667,11.5253333 49.3813333,11.68 48.944,11.776 C48.5066667,11.872 48.0746667,11.92 47.648,11.92 C47.1253333,11.92 46.6426667,11.8613333 46.2,11.744 C45.7573333,11.6266667 45.3733333,11.448 45.048,11.208 C44.7226667,10.968 44.4666667,10.6693333 44.28,10.312 C44.0933333,9.95466667 43.9946667,9.53066667 43.984,9.04 L45.808,9.04 Z" id="path-14"></path>
        <filter x="-6.8%" y="-17.2%" width="113.6%" height="122.9%" filterUnits="objectBoundingBox" id="filter-15">
            <feOffset dx="0" dy="-1" in="SourceAlpha" result="shadowOffsetOuter1"></feOffset>
            <feColorMatrix values="0 0 0 0 0   0 0 0 0 0   0 0 0 0 0  0 0 0 0.25 0" type="matrix" in="shadowOffsetOuter1"></feColorMatrix>
        </filter>
        <path d="M52.736,3.424 L54.464,3.424 L54.464,4.64 L54.496,4.672 C54.7733333,4.21333333 55.136,3.85333333 55.584,3.592 C56.032,3.33066667 56.528,3.2 57.072,3.2 C57.9786667,3.2 58.6933333,3.43466667 59.216,3.904 C59.7386667,4.37333333 60,5.07733333 60,6.016 L60,11.696 L58.176,11.696 L58.176,6.496 C58.1546667,5.84533333 58.016,5.37333333 57.76,5.08 C57.504,4.78666667 57.104,4.64 56.56,4.64 C56.2506667,4.64 55.9733333,4.696 55.728,4.808 C55.4826667,4.92 55.2746667,5.07466667 55.104,5.272 C54.9333333,5.46933333 54.8,5.70133333 54.704,5.968 C54.608,6.23466667 54.56,6.51733333 54.56,6.816 L54.56,11.696 L52.736,11.696 L52.736,3.424 Z" id="path-16"></path>
        <filter x="-6.9%" y="-17.7%" width="113.8%" height="123.5%" filterUnits="objectBoundingBox" id="filter-17">
            <feOffset dx="0" dy="-1" in="SourceAlpha" result="shadowOffsetOuter1"></feOffset>
            <feColorMatrix values="0 0 0 0 0   0 0 0 0 0   0 0 0 0 0  0 0 0 0.25 0" type="matrix" in="shadowOffsetOuter1"></feColorMatrix>
        </filter>
        <path d="M61.968,0.272 L63.792,0.272 L63.792,2 L61.968,2 L61.968,0.272 Z M61.968,3.424 L63.792,3.424 L63.792,11.696 L61.968,11.696 L61.968,3.424 Z" id="path-18"></path>
        <filter x="-27.4%" y="-13.1%" width="154.8%" height="117.5%" filterUnits="objectBoundingBox" id="filter-19">
            <feOffset dx="0" dy="-1" in="SourceAlpha" result="shadowOffsetOuter1"></feOffset>
            <feColorMatrix values="0 0 0 0 0   0 0 0 0 0   0 0 0 0 0  0 0 0 0.25 0" type="matrix" in="shadowOffsetOuter1"></feColorMatrix>
        </filter>
        <path d="M64.944,3.424 L66.32,3.424 L66.32,0.944 L68.144,0.944 L68.144,3.424 L69.792,3.424 L69.792,4.784 L68.144,4.784 L68.144,9.2 C68.144,9.392 68.152,9.55733333 68.168,9.696 C68.184,9.83466667 68.2213333,9.952 68.28,10.048 C68.3386667,10.144 68.4266667,10.216 68.544,10.264 C68.6613333,10.312 68.8213333,10.336 69.024,10.336 C69.152,10.336 69.28,10.3333333 69.408,10.328 C69.536,10.3226667 69.664,10.304 69.792,10.272 L69.792,11.68 C69.5893333,11.7013333 69.392,11.7226667 69.2,11.744 C69.008,11.7653333 68.8106667,11.776 68.608,11.776 C68.128,11.776 67.7413333,11.7306667 67.448,11.64 C67.1546667,11.5493333 66.9253333,11.416 66.76,11.24 C66.5946667,11.064 66.4826667,10.8426667 66.424,10.576 C66.3653333,10.3093333 66.3306667,10.0053333 66.32,9.664 L66.32,4.784 L64.944,4.784 L64.944,3.424 Z" id="path-20"></path>
        <filter x="-10.3%" y="-13.8%" width="120.6%" height="118.5%" filterUnits="objectBoundingBox" id="filter-21">
            <feOffset dx="0" dy="-1" in="SourceAlpha" result="shadowOffsetOuter1"></feOffset>
            <feColorMatrix values="0 0 0 0 0   0 0 0 0 0   0 0 0 0 0  0 0 0 0.25 0" type="matrix" in="shadowOffsetOuter1"></feColorMatrix>
        </filter>
        <path d="M70.272,3.424 L71.648,3.424 L71.648,0.944 L73.472,0.944 L73.472,3.424 L75.12,3.424 L75.12,4.784 L73.472,4.784 L73.472,9.2 C73.472,9.392 73.48,9.55733333 73.496,9.696 C73.512,9.83466667 73.5493333,9.952 73.608,10.048 C73.6666667,10.144 73.7546667,10.216 73.872,10.264 C73.9893333,10.312 74.1493333,10.336 74.352,10.336 C74.48,10.336 74.608,10.3333333 74.736,10.328 C74.864,10.3226667 74.992,10.304 75.12,10.272 L75.12,11.68 C74.9173333,11.7013333 74.72,11.7226667 74.528,11.744 C74.336,11.7653333 74.1386667,11.776 73.936,11.776 C73.456,11.776 73.0693333,11.7306667 72.776,11.64 C72.4826667,11.5493333 72.2533333,11.416 72.088,11.24 C71.9226667,11.064 71.8106667,10.8426667 71.752,10.576 C71.6933333,10.3093333 71.6586667,10.0053333 71.648,9.664 L71.648,4.784 L70.272,4.784 L70.272,3.424 Z" id="path-22"></path>
        <filter x="-10.3%" y="-13.8%" width="120.6%" height="118.5%" filterUnits="objectBoundingBox" id="filter-23">
            <feOffset dx="0" dy="-1" in="SourceAlpha" result="shadowOffsetOuter1"></feOffset>
            <feColorMatrix values="0 0 0 0 0   0 0 0 0 0   0 0 0 0 0  0 0 0 0.25 0" type="matrix" in="shadowOffsetOuter1"></feColorMatrix>
        </filter>
        <path d="M77.808,9.04 C77.8613333,9.57333333 78.064,9.94666667 78.416,10.16 C78.768,10.3733333 79.1893333,10.48 79.68,10.48 C79.8506667,10.48 80.0453333,10.4666667 80.264,10.44 C80.4826667,10.4133333 80.688,10.3626667 80.88,10.288 C81.072,10.2133333 81.2293333,10.104 81.352,9.96 C81.4746667,9.816 81.5306667,9.62666667 81.52,9.392 C81.5093333,9.15733333 81.424,8.96533333 81.264,8.816 C81.104,8.66666667 80.8986667,8.54666667 80.648,8.456 C80.3973333,8.36533333 80.112,8.288 79.792,8.224 C79.472,8.16 79.1466667,8.09066667 78.816,8.016 C78.4746667,7.94133333 78.1466667,7.85066667 77.832,7.744 C77.5173333,7.63733333 77.2346667,7.49333333 76.984,7.312 C76.7333333,7.13066667 76.5333333,6.89866667 76.384,6.616 C76.2346667,6.33333333 76.16,5.984 76.16,5.568 C76.16,5.12 76.2693333,4.744 76.488,4.44 C76.7066667,4.136 76.984,3.89066667 77.32,3.704 C77.656,3.51733333 78.0293333,3.38666667 78.44,3.312 C78.8506667,3.23733333 79.2426667,3.2 79.616,3.2 C80.0426667,3.2 80.4506667,3.24533333 80.84,3.336 C81.2293333,3.42666667 81.5813333,3.57333333 81.896,3.776 C82.2106667,3.97866667 82.472,4.24266667 82.68,4.568 C82.888,4.89333333 83.0186667,5.28533333 83.072,5.744 L81.168,5.744 C81.0826667,5.30666667 80.8826667,5.01333333 80.568,4.864 C80.2533333,4.71466667 79.8933333,4.64 79.488,4.64 C79.36,4.64 79.208,4.65066667 79.032,4.672 C78.856,4.69333333 78.6906667,4.73333333 78.536,4.792 C78.3813333,4.85066667 78.2506667,4.936 78.144,5.048 C78.0373333,5.16 77.984,5.30666667 77.984,5.488 C77.984,5.712 78.0613333,5.89333333 78.216,6.032 C78.3706667,6.17066667 78.5733333,6.28533333 78.824,6.376 C79.0746667,6.46666667 79.36,6.544 79.68,6.608 C80,6.672 80.3306667,6.74133333 80.672,6.816 C81.0026667,6.89066667 81.328,6.98133333 81.648,7.088 C81.968,7.19466667 82.2533333,7.33866667 82.504,7.52 C82.7546667,7.70133333 82.9573333,7.93066667 83.112,8.208 C83.2666667,8.48533333 83.344,8.82666667 83.344,9.232 C83.344,9.72266667 83.232,10.1386667 83.008,10.48 C82.784,10.8213333 82.4933333,11.0986667 82.136,11.312 C81.7786667,11.5253333 81.3813333,11.68 80.944,11.776 C80.5066667,11.872 80.0746667,11.92 79.648,11.92 C79.1253333,11.92 78.6426667,11.8613333 78.2,11.744 C77.7573333,11.6266667 77.3733333,11.448 77.048,11.208 C76.7226667,10.968 76.4666667,10.6693333 76.28,10.312 C76.0933333,9.95466667 75.9946667,9.53066667 75.984,9.04 L77.808,9.04 Z" id="path-24"></path>
        <filter x="-6.8%" y="-17.2%" width="113.6%" height="122.9%" filterUnits="objectBoundingBox" id="filter-25">
            <feOffset dx="0" dy="-1" in="SourceAlpha" result="shadowOffsetOuter1"></feOffset>
            <feColorMatrix values="0 0 0 0 0   0 0 0 0 0   0 0 0 0 0  0 0 0 0.25 0" type="matrix" in="shadowOffsetOuter1"></feColorMatrix>
        </filter>
        <path d="M92.528,11.696 L90.8,11.696 L90.8,10.576 L90.768,10.576 C90.5226667,11.056 90.1653333,11.4 89.696,11.608 C89.2266667,11.816 88.7306667,11.92 88.208,11.92 C87.5573333,11.92 86.9893333,11.8053333 86.504,11.576 C86.0186667,11.3466667 85.616,11.0346667 85.296,10.64 C84.976,10.2453333 84.736,9.77866667 84.576,9.24 C84.416,8.70133333 84.336,8.12266667 84.336,7.504 C84.336,6.75733333 84.4373333,6.112 84.64,5.568 C84.8426667,5.024 85.112,4.576 85.448,4.224 C85.784,3.872 86.168,3.61333333 86.6,3.448 C87.032,3.28266667 87.472,3.2 87.92,3.2 C88.176,3.2 88.4373333,3.224 88.704,3.272 C88.9706667,3.32 89.2266667,3.39733333 89.472,3.504 C89.7173333,3.61066667 89.944,3.74666667 90.152,3.912 C90.36,4.07733333 90.5333333,4.272 90.672,4.496 L90.704,4.496 L90.704,0.272 L92.528,0.272 L92.528,11.696 Z M86.16,7.648 C86.16,8 86.2053333,8.34666667 86.296,8.688 C86.3866667,9.02933333 86.5253333,9.33333333 86.712,9.6 C86.8986667,9.86666667 87.136,10.08 87.424,10.24 C87.712,10.4 88.0533333,10.48 88.448,10.48 C88.8533333,10.48 89.2026667,10.3946667 89.496,10.224 C89.7893333,10.0533333 90.0293333,9.82933333 90.216,9.552 C90.4026667,9.27466667 90.5413333,8.96266667 90.632,8.616 C90.7226667,8.26933333 90.768,7.91466667 90.768,7.552 C90.768,6.63466667 90.5626667,5.92 90.152,5.408 C89.7413333,4.896 89.184,4.64 88.48,4.64 C88.0533333,4.64 87.6933333,4.728 87.4,4.904 C87.1066667,5.08 86.8666667,5.30933333 86.68,5.592 C86.4933333,5.87466667 86.36,6.19466667 86.28,6.552 C86.2,6.90933333 86.16,7.27466667 86.16,7.648 Z" id="path-26"></path>
        <filter x="-6.1%" y="-12.9%" width="112.2%" height="117.2%" filterUnits="objectBoundingBox" id="filter-27">
            <feOffset dx="0" dy="-1" in="SourceAlpha" result="shadowOffsetOuter1"></feOffset>
            <feColorMatrix values="0 0 0 0 0   0 0 0 0 0   0 0 0 0 0  0 0 0 0.25 0" type="matrix" in="shadowOffsetOuter1"></feColorMatrix>
        </filter>
        <path d="M100.192,6.832 C100.170667,6.544 100.109333,6.26666667 100.008,6 C99.9066667,5.73333333 99.768,5.50133333 99.592,5.304 C99.416,5.10666667 99.2026667,4.94666667 98.952,4.824 C98.7013333,4.70133333 98.4213333,4.64 98.112,4.64 C97.792,4.64 97.5013333,4.696 97.24,4.808 C96.9786667,4.92 96.7546667,5.07466667 96.568,5.272 C96.3813333,5.46933333 96.232,5.70133333 96.12,5.968 C96.008,6.23466667 95.9466667,6.52266667 95.936,6.832 L100.192,6.832 Z M95.936,8.032 C95.936,8.352 95.9813333,8.66133333 96.072,8.96 C96.1626667,9.25866667 96.2986667,9.52 96.48,9.744 C96.6613333,9.968 96.8906667,10.1466667 97.168,10.28 C97.4453333,10.4133333 97.776,10.48 98.16,10.48 C98.6933333,10.48 99.1226667,10.3653333 99.448,10.136 C99.7733333,9.90666667 100.016,9.56266667 100.176,9.104 L101.904,9.104 C101.808,9.552 101.642667,9.952 101.408,10.304 C101.173333,10.656 100.890667,10.952 100.56,11.192 C100.229333,11.432 99.8586667,11.6133333 99.448,11.736 C99.0373333,11.8586667 98.608,11.92 98.16,11.92 C97.5093333,11.92 96.9333333,11.8133333 96.432,11.6 C95.9306667,11.3866667 95.5066667,11.088 95.16,10.704 C94.8133333,10.32 94.552,9.86133333 94.376,9.328 C94.2,8.79466667 94.112,8.208 94.112,7.568 C94.112,6.98133333 94.2053333,6.424 94.392,5.896 C94.5786667,5.368 94.8453333,4.904 95.192,4.504 C95.5386667,4.104 95.9573333,3.78666667 96.448,3.552 C96.9386667,3.31733333 97.4933333,3.2 98.112,3.2 C98.7626667,3.2 99.3466667,3.336 99.864,3.608 C100.381333,3.88 100.810667,4.24 101.152,4.688 C101.493333,5.136 101.741333,5.65066667 101.896,6.232 C102.050667,6.81333333 102.090667,7.41333333 102.016,8.032 L95.936,8.032 Z" id="path-28"></path>
        <filter x="-6.3%" y="-17.2%" width="112.6%" height="122.9%" filterUnits="objectBoundingBox" id="filter-29">
            <feOffset dx="0" dy="-1" in="SourceAlpha" result="shadowOffsetOuter1"></feOffset>
            <feColorMatrix values="0 0 0 0 0   0 0 0 0 0   0 0 0 0 0  0 0 0 0.25 0" type="matrix" in="shadowOffsetOuter1"></feColorMatrix>
        </filter>
        <path d="M104.784,9.04 C104.837333,9.57333333 105.04,9.94666667 105.392,10.16 C105.744,10.3733333 106.165333,10.48 106.656,10.48 C106.826667,10.48 107.021333,10.4666667 107.24,10.44 C107.458667,10.4133333 107.664,10.3626667 107.856,10.288 C108.048,10.2133333 108.205333,10.104 108.328,9.96 C108.450667,9.816 108.506667,9.62666667 108.496,9.392 C108.485333,9.15733333 108.4,8.96533333 108.24,8.816 C108.08,8.66666667 107.874667,8.54666667 107.624,8.456 C107.373333,8.36533333 107.088,8.288 106.768,8.224 C106.448,8.16 106.122667,8.09066667 105.792,8.016 C105.450667,7.94133333 105.122667,7.85066667 104.808,7.744 C104.493333,7.63733333 104.210667,7.49333333 103.96,7.312 C103.709333,7.13066667 103.509333,6.89866667 103.36,6.616 C103.210667,6.33333333 103.136,5.984 103.136,5.568 C103.136,5.12 103.245333,4.744 103.464,4.44 C103.682667,4.136 103.96,3.89066667 104.296,3.704 C104.632,3.51733333 105.005333,3.38666667 105.416,3.312 C105.826667,3.23733333 106.218667,3.2 106.592,3.2 C107.018667,3.2 107.426667,3.24533333 107.816,3.336 C108.205333,3.42666667 108.557333,3.57333333 108.872,3.776 C109.186667,3.97866667 109.448,4.24266667 109.656,4.568 C109.864,4.89333333 109.994667,5.28533333 110.048,5.744 L108.144,5.744 C108.058667,5.30666667 107.858667,5.01333333 107.544,4.864 C107.229333,4.71466667 106.869333,4.64 106.464,4.64 C106.336,4.64 106.184,4.65066667 106.008,4.672 C105.832,4.69333333 105.666667,4.73333333 105.512,4.792 C105.357333,4.85066667 105.226667,4.936 105.12,5.048 C105.013333,5.16 104.96,5.30666667 104.96,5.488 C104.96,5.712 105.037333,5.89333333 105.192,6.032 C105.346667,6.17066667 105.549333,6.28533333 105.8,6.376 C106.050667,6.46666667 106.336,6.544 106.656,6.608 C106.976,6.672 107.306667,6.74133333 107.648,6.816 C107.978667,6.89066667 108.304,6.98133333 108.624,7.088 C108.944,7.19466667 109.229333,7.33866667 109.48,7.52 C109.730667,7.70133333 109.933333,7.93066667 110.088,8.208 C110.242667,8.48533333 110.32,8.82666667 110.32,9.232 C110.32,9.72266667 110.208,10.1386667 109.984,10.48 C109.76,10.8213333 109.469333,11.0986667 109.112,11.312 C108.754667,11.5253333 108.357333,11.68 107.92,11.776 C107.482667,11.872 107.050667,11.92 106.624,11.92 C106.101333,11.92 105.618667,11.8613333 105.176,11.744 C104.733333,11.6266667 104.349333,11.448 104.024,11.208 C103.698667,10.968 103.442667,10.6693333 103.256,10.312 C103.069333,9.95466667 102.970667,9.53066667 102.96,9.04 L104.784,9.04 Z" id="path-30"></path>
        <filter x="-6.8%" y="-17.2%" width="113.6%" height="122.9%" filterUnits="objectBoundingBox" id="filter-31">
            <feOffset dx="0" dy="-1" in="SourceAlpha" result="shadowOffsetOuter1"></feOffset>
            <feColorMatrix values="0 0 0 0 0   0 0 0 0 0   0 0 0 0 0  0 0 0 0.25 0" type="matrix" in="shadowOffsetOuter1"></feColorMatrix>
        </filter>
        <path d="M111.76,0.272 L113.584,0.272 L113.584,2 L111.76,2 L111.76,0.272 Z M111.76,3.424 L113.584,3.424 L113.584,11.696 L111.76,11.696 L111.76,3.424 Z" id="path-32"></path>
        <filter x="-27.4%" y="-13.1%" width="154.8%" height="117.5%" filterUnits="objectBoundingBox" id="filter-33">
            <feOffset dx="0" dy="-1" in="SourceAlpha" result="shadowOffsetOuter1"></feOffset>
            <feColorMatrix values="0 0 0 0 0   0 0 0 0 0   0 0 0 0 0  0 0 0 0.25 0" type="matrix" in="shadowOffsetOuter1"></feColorMatrix>
        </filter>
        <path d="M123.216,11.264 C123.216,12.512 122.866667,13.4426667 122.168,14.056 C121.469333,14.6693333 120.464,14.976 119.152,14.976 C118.736,14.976 118.317333,14.9333333 117.896,14.848 C117.474667,14.7626667 117.090667,14.6186667 116.744,14.416 C116.397333,14.2133333 116.106667,13.9466667 115.872,13.616 C115.637333,13.2853333 115.498667,12.88 115.456,12.4 L117.28,12.4 C117.333333,12.656 117.424,12.864 117.552,13.024 C117.68,13.184 117.832,13.3093333 118.008,13.4 C118.184,13.4906667 118.378667,13.5493333 118.592,13.576 C118.805333,13.6026667 119.029333,13.616 119.264,13.616 C120,13.616 120.538667,13.4346667 120.88,13.072 C121.221333,12.7093333 121.392,12.1866667 121.392,11.504 L121.392,10.24 L121.36,10.24 C121.104,10.6986667 120.754667,11.056 120.312,11.312 C119.869333,11.568 119.392,11.696 118.88,11.696 C118.218667,11.696 117.656,11.5813333 117.192,11.352 C116.728,11.1226667 116.344,10.808 116.04,10.408 C115.736,10.008 115.514667,9.54666667 115.376,9.024 C115.237333,8.50133333 115.168,7.94133333 115.168,7.344 C115.168,6.78933333 115.253333,6.26133333 115.424,5.76 C115.594667,5.25866667 115.84,4.81866667 116.16,4.44 C116.48,4.06133333 116.872,3.76 117.336,3.536 C117.8,3.312 118.325333,3.2 118.912,3.2 C119.434667,3.2 119.914667,3.30933333 120.352,3.528 C120.789333,3.74666667 121.125333,4.09066667 121.36,4.56 L121.392,4.56 L121.392,3.424 L123.216,3.424 L123.216,11.264 Z M119.168,10.256 C119.573333,10.256 119.917333,10.1733333 120.2,10.008 C120.482667,9.84266667 120.712,9.624 120.888,9.352 C121.064,9.08 121.192,8.77066667 121.272,8.424 C121.352,8.07733333 121.392,7.728 121.392,7.376 C121.392,7.024 121.349333,6.68266667 121.264,6.352 C121.178667,6.02133333 121.048,5.728 120.872,5.472 C120.696,5.216 120.466667,5.01333333 120.184,4.864 C119.901333,4.71466667 119.562667,4.64 119.168,4.64 C118.762667,4.64 118.421333,4.72533333 118.144,4.896 C117.866667,5.06666667 117.642667,5.288 117.472,5.56 C117.301333,5.832 117.178667,6.14133333 117.104,6.488 C117.029333,6.83466667 116.992,7.17866667 116.992,7.52 C116.992,7.86133333 117.034667,8.19466667 117.12,8.52 C117.205333,8.84533333 117.336,9.136 117.512,9.392 C117.688,9.648 117.912,9.856 118.184,10.016 C118.456,10.176 118.784,10.256 119.168,10.256 Z" id="path-34"></path>
        <filter x="-6.2%" y="-12.7%" width="112.4%" height="117.0%" filterUnits="objectBoundingBox" id="filter-35">
            <feOffset dx="0" dy="-1" in="SourceAlpha" result="shadowOffsetOuter1"></feOffset>
            <feColorMatrix values="0 0 0 0 0   0 0 0 0 0   0 0 0 0 0  0 0 0 0.25 0" type="matrix" in="shadowOffsetOuter1"></feColorMatrix>
        </filter>
        <path d="M125.056,3.424 L126.784,3.424 L126.784,4.64 L126.816,4.672 C127.093333,4.21333333 127.456,3.85333333 127.904,3.592 C128.352,3.33066667 128.848,3.2 129.392,3.2 C130.298667,3.2 131.013333,3.43466667 131.536,3.904 C132.058667,4.37333333 132.32,5.07733333 132.32,6.016 L132.32,11.696 L130.496,11.696 L130.496,6.496 C130.474667,5.84533333 130.336,5.37333333 130.08,5.08 C129.824,4.78666667 129.424,4.64 128.88,4.64 C128.570667,4.64 128.293333,4.696 128.048,4.808 C127.802667,4.92 127.594667,5.07466667 127.424,5.272 C127.253333,5.46933333 127.12,5.70133333 127.024,5.968 C126.928,6.23466667 126.88,6.51733333 126.88,6.816 L126.88,11.696 L125.056,11.696 L125.056,3.424 Z" id="path-36"></path>
        <filter x="-6.9%" y="-17.7%" width="113.8%" height="123.5%" filterUnits="objectBoundingBox" id="filter-37">
            <feOffset dx="0" dy="-1" in="SourceAlpha" result="shadowOffsetOuter1"></feOffset>
            <feColorMatrix values="0 0 0 0 0   0 0 0 0 0   0 0 0 0 0  0 0 0 0.25 0" type="matrix" in="shadowOffsetOuter1"></feColorMatrix>
        </filter>
        <path d="M139.92,6.832 C139.898667,6.544 139.837333,6.26666667 139.736,6 C139.634667,5.73333333 139.496,5.50133333 139.32,5.304 C139.144,5.10666667 138.930667,4.94666667 138.68,4.824 C138.429333,4.70133333 138.149333,4.64 137.84,4.64 C137.52,4.64 137.229333,4.696 136.968,4.808 C136.706667,4.92 136.482667,5.07466667 136.296,5.272 C136.109333,5.46933333 135.96,5.70133333 135.848,5.968 C135.736,6.23466667 135.674667,6.52266667 135.664,6.832 L139.92,6.832 Z M135.664,8.032 C135.664,8.352 135.709333,8.66133333 135.8,8.96 C135.890667,9.25866667 136.026667,9.52 136.208,9.744 C136.389333,9.968 136.618667,10.1466667 136.896,10.28 C137.173333,10.4133333 137.504,10.48 137.888,10.48 C138.421333,10.48 138.850667,10.3653333 139.176,10.136 C139.501333,9.90666667 139.744,9.56266667 139.904,9.104 L141.632,9.104 C141.536,9.552 141.370667,9.952 141.136,10.304 C140.901333,10.656 140.618667,10.952 140.288,11.192 C139.957333,11.432 139.586667,11.6133333 139.176,11.736 C138.765333,11.8586667 138.336,11.92 137.888,11.92 C137.237333,11.92 136.661333,11.8133333 136.16,11.6 C135.658667,11.3866667 135.234667,11.088 134.888,10.704 C134.541333,10.32 134.28,9.86133333 134.104,9.328 C133.928,8.79466667 133.84,8.208 133.84,7.568 C133.84,6.98133333 133.933333,6.424 134.12,5.896 C134.306667,5.368 134.573333,4.904 134.92,4.504 C135.266667,4.104 135.685333,3.78666667 136.176,3.552 C136.666667,3.31733333 137.221333,3.2 137.84,3.2 C138.490667,3.2 139.074667,3.336 139.592,3.608 C140.109333,3.88 140.538667,4.24 140.88,4.688 C141.221333,5.136 141.469333,5.65066667 141.624,6.232 C141.778667,6.81333333 141.818667,7.41333333 141.744,8.032 L135.664,8.032 Z" id="path-38"></path>
        <filter x="-6.3%" y="-17.2%" width="112.6%" height="122.9%" filterUnits="objectBoundingBox" id="filter-39">
            <feOffset dx="0" dy="-1" in="SourceAlpha" result="shadowOffsetOuter1"></feOffset>
            <feColorMatrix values="0 0 0 0 0   0 0 0 0 0   0 0 0 0 0  0 0 0 0.25 0" type="matrix" in="shadowOffsetOuter1"></feColorMatrix>
        </filter>
        <path d="M143.136,3.424 L144.848,3.424 L144.848,5.024 L144.88,5.024 C144.933333,4.8 145.037333,4.58133333 145.192,4.368 C145.346667,4.15466667 145.533333,3.96 145.752,3.784 C145.970667,3.608 146.213333,3.46666667 146.48,3.36 C146.746667,3.25333333 147.018667,3.2 147.296,3.2 C147.509333,3.2 147.656,3.20533333 147.736,3.216 C147.816,3.22666667 147.898667,3.23733333 147.984,3.248 L147.984,5.008 C147.856,4.98666667 147.725333,4.968 147.592,4.952 C147.458667,4.936 147.328,4.928 147.2,4.928 C146.890667,4.928 146.6,4.98933333 146.328,5.112 C146.056,5.23466667 145.818667,5.416 145.616,5.656 C145.413333,5.896 145.253333,6.192 145.136,6.544 C145.018667,6.896 144.96,7.30133333 144.96,7.76 L144.96,11.696 L143.136,11.696 L143.136,3.424 Z" id="path-40"></path>
        <filter x="-10.3%" y="-17.7%" width="120.6%" height="123.5%" filterUnits="objectBoundingBox" id="filter-41">
            <feOffset dx="0" dy="-1" in="SourceAlpha" result="shadowOffsetOuter1"></feOffset>
            <feColorMatrix values="0 0 0 0 0   0 0 0 0 0   0 0 0 0 0  0 0 0 0.25 0" type="matrix" in="shadowOffsetOuter1"></feColorMatrix>
        </filter>
        <path d="M19.1625767,25 L18.1779141,25 L18.1779141,23.8220859 L17,23.8220859 L17,22.8374233 L17.8374233,22 L20,24.1625767 L19.1625767,25 Z M24,16.1870748 C24,16.2380952 23.9829932,16.2891156 23.9404762,16.3316327 L19.3316327,20.9404762 C19.2891156,20.9829932 19.2380952,21 19.1870748,21 C19.0765306,21 19,20.9234694 19,20.8129252 C19,20.7619048 19.0170068,20.7108844 19.0595238,20.6683673 L23.6683673,16.0595238 C23.7108844,16.0170068 23.7619048,16 23.8129252,16 C23.9234694,16 24,16.0765306 24,16.1870748 Z M24,14 L16,22 L16,26 L20,26 L28,18 L24,14 Z M30,15.5185784 C30,15.1890145 29.8642973,14.8691438 29.641357,14.6365105 L27.3634895,12.368336 C27.1308562,12.1357027 26.8109855,12 26.4814216,12 C26.1518578,12 25.8319871,12.1357027 25.6090468,12.368336 L24,13.9676898 L28.0323102,18 L29.641357,16.3909532 C29.8642973,16.1680129 30,15.8481422 30,15.5185784 Z" id="path-42"></path>
        <filter x="-3.6%" y="-10.7%" width="107.1%" height="114.3%" filterUnits="objectBoundingBox" id="filter-43">
            <feOffset dx="0" dy="-1" in="SourceAlpha" result="shadowOffsetOuter1"></feOffset>
            <feColorMatrix values="0 0 0 0 0   0 0 0 0 0   0 0 0 0 0  0 0 0 0.25 0" type="matrix" in="shadowOffsetOuter1"></feColorMatrix>
        </filter>
    </defs>
    <g id="1-granssnittsdesigner" stroke="none" stroke-width="1" fill="none" fill-rule="evenodd">
        <g id="Group-2" transform="translate(6.000000, 23.000000)">
            <g id="Rectangle-Copy-2">
                <use fill="black" fill-opacity="1" filter="url(#filter-3)" xlink:href="#path-2"></use>
                <use fill="url(#linearGradient-1)" fill-rule="evenodd" xlink:href="#path-2"></use>
            </g>
            <g id="Gränssnittsdesigner-Copy-2" transform="translate(40.688000, 13.304000)" fill-rule="nonzero">
                <g id="Path">
                    <use fill="black" fill-opacity="1" filter="url(#filter-5)" xlink:href="#path-4"></use>
                    <use fill="#FFFFFF" xlink:href="#path-4"></use>
                </g>
                <g id="Path">
                    <use fill="black" fill-opacity="1" filter="url(#filter-7)" xlink:href="#path-6"></use>
                    <use fill="#FFFFFF" xlink:href="#path-6"></use>
                </g>
                <g id="Shape">
                    <use fill="black" fill-opacity="1" filter="url(#filter-9)" xlink:href="#path-8"></use>
                    <use fill="#FFFFFF" xlink:href="#path-8"></use>
                </g>
                <g id="Path">
                    <use fill="black" fill-opacity="1" filter="url(#filter-11)" xlink:href="#path-10"></use>
                    <use fill="#FFFFFF" xlink:href="#path-10"></use>
                </g>
                <g id="Path">
                    <use fill="black" fill-opacity="1" filter="url(#filter-13)" xlink:href="#path-12"></use>
                    <use fill="#FFFFFF" xlink:href="#path-12"></use>
                </g>
                <g id="Path">
                    <use fill="black" fill-opacity="1" filter="url(#filter-15)" xlink:href="#path-14"></use>
                    <use fill="#FFFFFF" xlink:href="#path-14"></use>
                </g>
                <g id="Path">
                    <use fill="black" fill-opacity="1" filter="url(#filter-17)" xlink:href="#path-16"></use>
                    <use fill="#FFFFFF" xlink:href="#path-16"></use>
                </g>
                <g id="Shape">
                    <use fill="black" fill-opacity="1" filter="url(#filter-19)" xlink:href="#path-18"></use>
                    <use fill="#FFFFFF" xlink:href="#path-18"></use>
                </g>
                <g id="Path">
                    <use fill="black" fill-opacity="1" filter="url(#filter-21)" xlink:href="#path-20"></use>
                    <use fill="#FFFFFF" xlink:href="#path-20"></use>
                </g>
                <g id="Path">
                    <use fill="black" fill-opacity="1" filter="url(#filter-23)" xlink:href="#path-22"></use>
                    <use fill="#FFFFFF" xlink:href="#path-22"></use>
                </g>
                <g id="Path">
                    <use fill="black" fill-opacity="1" filter="url(#filter-25)" xlink:href="#path-24"></use>
                    <use fill="#FFFFFF" xlink:href="#path-24"></use>
                </g>
                <g id="Shape">
                    <use fill="black" fill-opacity="1" filter="url(#filter-27)" xlink:href="#path-26"></use>
                    <use fill="#FFFFFF" xlink:href="#path-26"></use>
                </g>
                <g id="Shape">
                    <use fill="black" fill-opacity="1" filter="url(#filter-29)" xlink:href="#path-28"></use>
                    <use fill="#FFFFFF" xlink:href="#path-28"></use>
                </g>
                <g id="Path">
                    <use fill="black" fill-opacity="1" filter="url(#filter-31)" xlink:href="#path-30"></use>
                    <use fill="#FFFFFF" xlink:href="#path-30"></use>
                </g>
                <g id="Shape">
                    <use fill="black" fill-opacity="1" filter="url(#filter-33)" xlink:href="#path-32"></use>
                    <use fill="#FFFFFF" xlink:href="#path-32"></use>
                </g>
                <g id="Shape">
                    <use fill="black" fill-opacity="1" filter="url(#filter-35)" xlink:href="#path-34"></use>
                    <use fill="#FFFFFF" xlink:href="#path-34"></use>
                </g>
                <g id="Path">
                    <use fill="black" fill-opacity="1" filter="url(#filter-37)" xlink:href="#path-36"></use>
                    <use fill="#FFFFFF" xlink:href="#path-36"></use>
                </g>
                <g id="Shape">
                    <use fill="black" fill-opacity="1" filter="url(#filter-39)" xlink:href="#path-38"></use>
                    <use fill="#FFFFFF" xlink:href="#path-38"></use>
                </g>
                <g id="Path">
                    <use fill="black" fill-opacity="1" filter="url(#filter-41)" xlink:href="#path-40"></use>
                    <use fill="#FFFFFF" xlink:href="#path-40"></use>
                </g>
            </g>
            <g id="Shape" fill-rule="nonzero">
                <use fill="black" fill-opacity="1" filter="url(#filter-43)" xlink:href="#path-42"></use>
                <use fill="#FFFFFF" xlink:href="#path-42"></use>
            </g>
        </g>
    </g>
</svg>