<?xml version="1.0" encoding="UTF-8"?>
<svg width="79px" height="88px" viewBox="0 0 79 88" version="1.1" xmlns="http://www.w3.org/2000/svg" xmlns:xlink="http://www.w3.org/1999/xlink">
    <title>2-med</title>
    <defs>
        <rect id="path-1" x="0" y="0" width="67" height="35" rx="4"></rect>
        <filter x="-3.7%" y="-4.3%" width="107.5%" height="117.1%" filterUnits="objectBoundingBox" id="filter-2">
            <feOffset dx="0" dy="2" in="SourceAlpha" result="shadowOffsetOuter1"></feOffset>
            <feGaussianBlur stdDeviation="0.5" in="shadowOffsetOuter1" result="shadowBlurOuter1"></feGaussianBlur>
            <feColorMatrix values="0 0 0 0 0   0 0 0 0 0   0 0 0 0 0  0 0 0 0.5 0" type="matrix" in="shadowBlurOuter1"></feColorMatrix>
        </filter>
        <polygon id="path-3" points="0 0 2.464 0 5.222 7.826 5.25 7.826 7.938 0 10.374 0 10.374 9.996 8.708 9.996 8.708 2.282 8.68 2.282 5.908 9.996 4.466 9.996 1.694 2.282 1.666 2.282 1.666 9.996 0 9.996"></polygon>
        <path d="M17.22,5.74 C17.2013333,5.488 17.1476667,5.24533333 17.059,5.012 C16.9703333,4.77866667 16.849,4.57566667 16.695,4.403 C16.541,4.23033333 16.3543333,4.09033333 16.135,3.983 C15.9156667,3.87566667 15.6706667,3.822 15.4,3.822 C15.12,3.822 14.8656667,3.871 14.637,3.969 C14.4083333,4.067 14.2123333,4.20233333 14.049,4.375 C13.8856667,4.54766667 13.755,4.75066667 13.657,4.984 C13.559,5.21733333 13.5053333,5.46933333 13.496,5.74 L17.22,5.74 Z M13.496,6.79 C13.496,7.07 13.5356667,7.34066667 13.615,7.602 C13.6943333,7.86333333 13.8133333,8.092 13.972,8.288 C14.1306667,8.484 14.3313333,8.64033333 14.574,8.757 C14.8166667,8.87366667 15.106,8.932 15.442,8.932 C15.9086667,8.932 16.2843333,8.83166667 16.569,8.631 C16.8536667,8.43033333 17.066,8.12933333 17.206,7.728 L18.718,7.728 C18.634,8.12 18.4893333,8.47 18.284,8.778 C18.0786667,9.086 17.8313333,9.345 17.542,9.555 C17.2526667,9.765 16.9283333,9.92366667 16.569,10.031 C16.2096667,10.1383333 15.834,10.192 15.442,10.192 C14.8726667,10.192 14.3686667,10.0986667 13.93,9.912 C13.4913333,9.72533333 13.1203333,9.464 12.817,9.128 C12.5136667,8.792 12.285,8.39066667 12.131,7.924 C11.977,7.45733333 11.9,6.944 11.9,6.384 C11.9,5.87066667 11.9816667,5.383 12.145,4.921 C12.3083333,4.459 12.5416667,4.053 12.845,3.703 C13.1483333,3.353 13.5146667,3.07533333 13.944,2.87 C14.3733333,2.66466667 14.8586667,2.562 15.4,2.562 C15.9693333,2.562 16.4803333,2.681 16.933,2.919 C17.3856667,3.157 17.7613333,3.472 18.06,3.864 C18.3586667,4.256 18.5756667,4.70633333 18.711,5.215 C18.8463333,5.72366667 18.8813333,6.24866667 18.816,6.79 L13.496,6.79 Z" id="path-4"></path>
        <path d="M26.852,9.996 L25.34,9.996 L25.34,9.016 L25.312,9.016 C25.0973333,9.436 24.7846667,9.737 24.374,9.919 C23.9633333,10.101 23.5293333,10.192 23.072,10.192 C22.5026667,10.192 22.0056667,10.0916667 21.581,9.891 C21.1563333,9.69033333 20.804,9.41733333 20.524,9.072 C20.244,8.72666667 20.034,8.31833333 19.894,7.847 C19.754,7.37566667 19.684,6.86933333 19.684,6.328 C19.684,5.67466667 19.7726667,5.11 19.95,4.634 C20.1273333,4.158 20.363,3.766 20.657,3.458 C20.951,3.15 21.287,2.92366667 21.665,2.779 C22.043,2.63433333 22.428,2.562 22.82,2.562 C23.044,2.562 23.2726667,2.583 23.506,2.625 C23.7393333,2.667 23.9633333,2.73466667 24.178,2.828 C24.3926667,2.92133333 24.591,3.04033333 24.773,3.185 C24.955,3.32966667 25.1066667,3.5 25.228,3.696 L25.256,3.696 L25.256,0 L26.852,0 L26.852,9.996 Z M21.28,6.454 C21.28,6.762 21.3196667,7.06533333 21.399,7.364 C21.4783333,7.66266667 21.5996667,7.92866667 21.763,8.162 C21.9263333,8.39533333 22.134,8.582 22.386,8.722 C22.638,8.862 22.9366667,8.932 23.282,8.932 C23.6366667,8.932 23.9423333,8.85733333 24.199,8.708 C24.4556667,8.55866667 24.6656667,8.36266667 24.829,8.12 C24.9923333,7.87733333 25.1136667,7.60433333 25.193,7.301 C25.2723333,6.99766667 25.312,6.68733333 25.312,6.37 C25.312,5.56733333 25.1323333,4.942 24.773,4.494 C24.4136667,4.046 23.926,3.822 23.31,3.822 C22.9366667,3.822 22.6216667,3.899 22.365,4.053 C22.1083333,4.207 21.8983333,4.40766667 21.735,4.655 C21.5716667,4.90233333 21.455,5.18233333 21.385,5.495 C21.315,5.80766667 21.28,6.12733333 21.28,6.454 Z" id="path-5"></path>
    </defs>
    <g id="2-med" stroke="none" stroke-width="1" fill="none" fill-rule="evenodd">
        <g id="btn-2-copy-3" transform="translate(6.000000, 26.000000)">
            <g id="Rectangle-17">
                <use fill="black" fill-opacity="1" filter="url(#filter-2)" xlink:href="#path-1"></use>
                <use fill="#FFFFFF" fill-rule="evenodd" xlink:href="#path-1"></use>
            </g>
            <g id="Med" transform="translate(20.036000, 12.004000)" fill-rule="nonzero">
                <g id="Path">
                    <use fill="#F6F6F6" xlink:href="#path-3"></use>
                    <use fill="#ED8C20" xlink:href="#path-3"></use>
                </g>
                <g id="Shape">
                    <use fill="#F6F6F6" xlink:href="#path-4"></use>
                    <use fill="#ED8C20" xlink:href="#path-4"></use>
                </g>
                <g id="Shape">
                    <use fill="#F6F6F6" xlink:href="#path-5"></use>
                    <use fill="#ED8C20" xlink:href="#path-5"></use>
                </g>
            </g>
        </g>
    </g>
</svg>