<?xml version="1.0" encoding="UTF-8"?>
<svg width="181px" height="88px" viewBox="0 0 181 88" version="1.1" xmlns="http://www.w3.org/2000/svg" xmlns:xlink="http://www.w3.org/1999/xlink">
    <title>4-erfarenhet</title>
    <defs>
        <path d="M0,1.99970728 C0,0.895299444 0.889016219,4.23385502e-13 2.0007809,4.23385502e-13 L166.999219,4.23385502e-13 C168.10422,4.23385502e-13 169,0.889892578 169,1.99970728 L169,34.0002927 C169,35.1047006 168.110984,36 166.999219,36 L2.0007809,36 C0.895780121,36 0,35.1101074 0,34.0002927 L0,1.99970728 Z" id="path-1"></path>
        <filter x="-1.2%" y="-2.8%" width="102.4%" height="111.1%" filterUnits="objectBoundingBox" id="filter-2">
            <feMorphology radius="0.5" operator="dilate" in="SourceAlpha" result="shadowSpreadOuter1"></feMorphology>
            <feOffset dx="0" dy="1" in="shadowSpreadOuter1" result="shadowOffsetOuter1"></feOffset>
            <feColorMatrix values="0 0 0 0 0   0 0 0 0 0   0 0 0 0 0  0 0 0 0.4 0" type="matrix" in="shadowOffsetOuter1"></feColorMatrix>
        </filter>
    </defs>
    <g id="4-erfarenhet" stroke="none" stroke-width="1" fill="none" fill-rule="evenodd">
        <g id="Group-8-Copy-3" transform="translate(6.000000, 26.000000)">
            <g id="Group-5">
                <g id="Group-12-Copy-2" transform="translate(0.000000, 0.000536)">
                    <g id="Rectangle-3-Copy-2">
                        <use fill="black" fill-opacity="1" filter="url(#filter-2)" xlink:href="#path-1"></use>
                        <use fill="#3096FF" fill-rule="evenodd" xlink:href="#path-1"></use>
                    </g>
                    <g id="Erfarenhet" transform="translate(52.328000, 10.511464)" fill="#FFFFFF" fill-rule="nonzero">
                        <polygon id="Path" points="0 11.488 0 1.024 6.304 1.024 6.304 2.592 1.856 2.592 1.856 5.264 5.616 5.264 5.616 6.832 1.856 6.832 1.856 9.92 6.464 9.92 6.464 11.488"></polygon>
                        <path d="M8.448,11.488 L8.448,3.632 L9.968,3.632 L10.096,5.024 L10.16,5.024 C10.4373333,4.512 10.7733333,4.12 11.168,3.848 C11.5626667,3.576 11.968,3.44 12.384,3.44 C12.7573333,3.44 13.056,3.49333333 13.28,3.6 L12.96,5.2 C12.8213333,5.15733333 12.6933333,5.12533333 12.576,5.104 C12.4586667,5.08266667 12.3146667,5.072 12.144,5.072 C11.8346667,5.072 11.5093333,5.192 11.168,5.432 C10.8266667,5.672 10.5333333,6.09066667 10.288,6.688 L10.288,11.488 L8.448,11.488 Z" id="Path"></path>
                        <path d="M14.736,11.488 L14.736,5.088 L13.68,5.088 L13.68,3.712 L14.736,3.632 L14.736,2.816 C14.736,1.99466667 14.9386667,1.32 15.344,0.792 C15.7493333,0.264 16.416,0 17.344,0 C17.6213333,0 17.888,0.0266666667 18.144,0.08 C18.4,0.133333333 18.6133333,0.197333333 18.784,0.272 L18.432,1.648 C18.144,1.52 17.856,1.456 17.568,1.456 C16.9066667,1.456 16.576,1.89866667 16.576,2.784 L16.576,3.632 L18.112,3.632 L18.112,5.088 L16.576,5.088 L16.576,11.488 L14.736,11.488 Z" id="Path"></path>
                        <path d="M21.072,11.68 C20.3893333,11.68 19.832,11.4666667 19.4,11.04 C18.968,10.6133333 18.752,10.0586667 18.752,9.376 C18.752,8.53333333 19.12,7.88 19.856,7.416 C20.592,6.952 21.7653333,6.63466667 23.376,6.464 C23.3653333,6.048 23.256,5.688 23.048,5.384 C22.84,5.08 22.4693333,4.928 21.936,4.928 C21.552,4.928 21.176,5.00266667 20.808,5.152 C20.44,5.30133333 20.08,5.48266667 19.728,5.696 L19.056,4.464 C19.4933333,4.18666667 19.9866667,3.94666667 20.536,3.744 C21.0853333,3.54133333 21.6693333,3.44 22.288,3.44 C23.2693333,3.44 24.0026667,3.73066667 24.488,4.312 C24.9733333,4.89333333 25.216,5.73333333 25.216,6.832 L25.216,11.488 L23.696,11.488 L23.568,10.624 L23.504,10.624 C23.152,10.9226667 22.776,11.1733333 22.376,11.376 C21.976,11.5786667 21.5413333,11.68 21.072,11.68 Z M21.664,10.24 C21.984,10.24 22.2746667,10.1626667 22.536,10.008 C22.7973333,9.85333333 23.0773333,9.64266667 23.376,9.376 L23.376,7.616 C22.3093333,7.75466667 21.568,7.96 21.152,8.232 C20.736,8.504 20.528,8.83733333 20.528,9.232 C20.528,9.584 20.6346667,9.84 20.848,10 C21.0613333,10.16 21.3333333,10.24 21.664,10.24 Z" id="Shape"></path>
                        <path d="M27.424,11.488 L27.424,3.632 L28.944,3.632 L29.072,5.024 L29.136,5.024 C29.4133333,4.512 29.7493333,4.12 30.144,3.848 C30.5386667,3.576 30.944,3.44 31.36,3.44 C31.7333333,3.44 32.032,3.49333333 32.256,3.6 L31.936,5.2 C31.7973333,5.15733333 31.6693333,5.12533333 31.552,5.104 C31.4346667,5.08266667 31.2906667,5.072 31.12,5.072 C30.8106667,5.072 30.4853333,5.192 30.144,5.432 C29.8026667,5.672 29.5093333,6.09066667 29.264,6.688 L29.264,11.488 L27.424,11.488 Z" id="Path"></path>
                        <path d="M36.592,11.68 C35.8666667,11.68 35.2106667,11.5173333 34.624,11.192 C34.0373333,10.8666667 33.5733333,10.3973333 33.232,9.784 C32.8906667,9.17066667 32.72,8.432 32.72,7.568 C32.72,6.71466667 32.8933333,5.97866667 33.24,5.36 C33.5866667,4.74133333 34.0373333,4.26666667 34.592,3.936 C35.1466667,3.60533333 35.728,3.44 36.336,3.44 C37.0506667,3.44 37.648,3.59733333 38.128,3.912 C38.608,4.22666667 38.9706667,4.664 39.216,5.224 C39.4613333,5.784 39.584,6.432 39.584,7.168 C39.584,7.552 39.5573333,7.85066667 39.504,8.064 L34.512,8.064 C34.5973333,8.75733333 34.848,9.296 35.264,9.68 C35.68,10.064 36.2026667,10.256 36.832,10.256 C37.1733333,10.256 37.4906667,10.2053333 37.784,10.104 C38.0773333,10.0026667 38.368,9.86133333 38.656,9.68 L39.28,10.832 C38.9066667,11.0773333 38.4906667,11.28 38.032,11.44 C37.5733333,11.6 37.0933333,11.68 36.592,11.68 Z M34.496,6.816 L37.984,6.816 C37.984,6.208 37.8506667,5.73066667 37.584,5.384 C37.3173333,5.03733333 36.9173333,4.864 36.384,4.864 C35.9253333,4.864 35.5173333,5.032 35.16,5.368 C34.8026667,5.704 34.5813333,6.18666667 34.496,6.816 Z" id="Shape"></path>
                        <path d="M41.344,11.488 L41.344,3.632 L42.864,3.632 L42.992,4.688 L43.056,4.688 C43.408,4.34666667 43.792,4.05333333 44.208,3.808 C44.624,3.56266667 45.0986667,3.44 45.632,3.44 C46.4746667,3.44 47.088,3.712 47.472,4.256 C47.856,4.8 48.048,5.568 48.048,6.56 L48.048,11.488 L46.208,11.488 L46.208,6.8 C46.208,6.14933333 46.112,5.69066667 45.92,5.424 C45.728,5.15733333 45.4133333,5.024 44.976,5.024 C44.6346667,5.024 44.3333333,5.10666667 44.072,5.272 C43.8106667,5.43733333 43.5146667,5.68 43.184,6 L43.184,11.488 L41.344,11.488 Z" id="Path"></path>
                        <path d="M50.304,11.488 L50.304,0.192 L52.144,0.192 L52.144,3.104 L52.08,4.624 C52.4106667,4.31466667 52.7786667,4.04 53.184,3.8 C53.5893333,3.56 54.0586667,3.44 54.592,3.44 C55.4346667,3.44 56.048,3.712 56.432,4.256 C56.816,4.8 57.008,5.568 57.008,6.56 L57.008,11.488 L55.168,11.488 L55.168,6.8 C55.168,6.14933333 55.072,5.69066667 54.88,5.424 C54.688,5.15733333 54.3733333,5.024 53.936,5.024 C53.5946667,5.024 53.2933333,5.10666667 53.032,5.272 C52.7706667,5.43733333 52.4746667,5.68 52.144,6 L52.144,11.488 L50.304,11.488 Z" id="Path"></path>
                        <path d="M62.592,11.68 C61.8666667,11.68 61.2106667,11.5173333 60.624,11.192 C60.0373333,10.8666667 59.5733333,10.3973333 59.232,9.784 C58.8906667,9.17066667 58.72,8.432 58.72,7.568 C58.72,6.71466667 58.8933333,5.97866667 59.24,5.36 C59.5866667,4.74133333 60.0373333,4.26666667 60.592,3.936 C61.1466667,3.60533333 61.728,3.44 62.336,3.44 C63.0506667,3.44 63.648,3.59733333 64.128,3.912 C64.608,4.22666667 64.9706667,4.664 65.216,5.224 C65.4613333,5.784 65.584,6.432 65.584,7.168 C65.584,7.552 65.5573333,7.85066667 65.504,8.064 L60.512,8.064 C60.5973333,8.75733333 60.848,9.296 61.264,9.68 C61.68,10.064 62.2026667,10.256 62.832,10.256 C63.1733333,10.256 63.4906667,10.2053333 63.784,10.104 C64.0773333,10.0026667 64.368,9.86133333 64.656,9.68 L65.28,10.832 C64.9066667,11.0773333 64.4906667,11.28 64.032,11.44 C63.5733333,11.6 63.0933333,11.68 62.592,11.68 Z M60.496,6.816 L63.984,6.816 C63.984,6.208 63.8506667,5.73066667 63.584,5.384 C63.3173333,5.03733333 62.9173333,4.864 62.384,4.864 C61.9253333,4.864 61.5173333,5.032 61.16,5.368 C60.8026667,5.704 60.5813333,6.18666667 60.496,6.816 Z" id="Shape"></path>
                        <path d="M69.952,11.68 C69.0453333,11.68 68.4026667,11.416 68.024,10.888 C67.6453333,10.36 67.456,9.67466667 67.456,8.832 L67.456,5.088 L66.336,5.088 L66.336,3.712 L67.552,3.632 L67.776,1.488 L69.312,1.488 L69.312,3.632 L71.312,3.632 L71.312,5.088 L69.312,5.088 L69.312,8.832 C69.312,9.74933333 69.68,10.208 70.416,10.208 C70.5546667,10.208 70.6986667,10.1893333 70.848,10.152 C70.9973333,10.1146667 71.1253333,10.0746667 71.232,10.032 L71.552,11.392 C71.3386667,11.4666667 71.096,11.5333333 70.824,11.592 C70.552,11.6506667 70.2613333,11.68 69.952,11.68 Z" id="Path"></path>
                    </g>
                </g>
                <path d="M0,2.00644405 C0,0.8983156 0.887845874,0 2.00113884,0 L39,0 L39,35.8888889 L2.00113884,35.8888889 C0.895940378,35.8888889 0,35.0017429 0,33.8824448 L0,2.00644405 Z" id="Rectangle-10-Copy" fill="#FFF1B8"></path>
                <g id="Group-3" transform="translate(12.444444, 9.111111)" fill="#E1AD45">
                    <path d="M4.8,15.9232 C2.3184,15.4992 -1.46549439e-14,13.3392 -1.46549439e-14,10.736 L-1.46549439e-14,6.6176 L4.8,10.9712 L4.8,15.9232 L4.8,15.9232 Z M8,12.5584 L8,8.056 C12.3904,7.232 12.6352,2.4656 11.2992,0 L9.104,2.4144 L7.2112,0 L5.44,2.4144 L3.1808,0 C1.8816,2.3984 1.9776,7.2256 6.4,8.056 L6.4,16 L8.7824,16 C11.6896,16 14.4,13.6432 14.4,10.7344 L14.4,6.616 L8,12.5584 L8,12.5584 Z" id="Shape"></path>
                </g>
            </g>
            <path d="M148,8 C143.02975,8 139,12.02975 139,17 C139,21.97025 143.02975,26 148,26 C152.97025,26 157,21.97025 157,17 C157,12.02975 152.97025,8 148,8 L148,8 Z M147.0625,20.969 L143.6875,17.696 L145.08025,16.3025 L147.0625,18.182 L151.29475,13.844 L152.6875,15.23675 L147.0625,20.969 L147.0625,20.969 Z" id="Shape" fill="#FFFFFF"></path>
        </g>
    </g>
</svg>