<?xml version="1.0" encoding="UTF-8"?>
<svg width="103px" height="88px" viewBox="0 0 103 88" version="1.1" xmlns="http://www.w3.org/2000/svg" xmlns:xlink="http://www.w3.org/1999/xlink">
    <title>7-rita</title>
    <defs>
        <rect id="path-1" x="0" y="0" width="91" height="40" rx="2"></rect>
        <filter x="-1.1%" y="-2.5%" width="104.4%" height="110.0%" filterUnits="objectBoundingBox" id="filter-2">
            <feOffset dx="1" dy="1" in="SourceAlpha" result="shadowOffsetOuter1"></feOffset>
            <feGaussianBlur stdDeviation="0.5" in="shadowOffsetOuter1" result="shadowBlurOuter1"></feGaussianBlur>
            <feComposite in="shadowBlurOuter1" in2="SourceAlpha" operator="out" result="shadowBlurOuter1"></feComposite>
            <feColorMatrix values="0 0 0 0 0   0 0 0 0 0   0 0 0 0 0  0 0 0 0.5 0" type="matrix" in="shadowBlurOuter1"></feColorMatrix>
        </filter>
    </defs>
    <g id="7-rita" stroke="none" stroke-width="1" fill="none" fill-rule="evenodd">
        <g id="Group-2-Copy-3" transform="translate(6.000000, 24.000000)">
            <g id="Rectangle-22-Copy-7">
                <use fill="black" fill-opacity="1" filter="url(#filter-2)" xlink:href="#path-1"></use>
                <rect stroke="#22981E" stroke-width="1" stroke-linejoin="square" fill="#37A233" fill-rule="evenodd" x="0.5" y="0.5" width="90" height="39" rx="2"></rect>
            </g>
            <g id="Rita" transform="translate(42.511000, 11.648000)" fill="#FFFFFF" fill-rule="nonzero">
                <path d="M0,12.352 L0,1.152 L4.598,1.152 C5.58766667,1.152 6.43829167,1.31104167 7.149875,1.629125 C7.86145833,1.94720833 8.40895833,2.40504167 8.792375,3.002625 C9.17579167,3.60020833 9.3675,4.31241667 9.3675,5.13925 C9.3675,5.95675 9.17579167,6.66125 8.792375,7.25275 C8.40895833,7.84425 7.86145833,8.298375 7.149875,8.615125 C6.43829167,8.931875 5.58766667,9.09025 4.598,9.09025 L1.14875,9.09025 L2.0765,8.15125 L2.0765,12.352 L0,12.352 Z M7.317,12.352 L4.4815,8.286 L6.71225,8.286 L9.56575,12.352 L7.317,12.352 Z M2.0765,8.37225 L1.14875,7.3705 L4.51125,7.3705 C5.42391667,7.3705 6.11241667,7.17425 6.57675,6.78175 C7.04108333,6.38925 7.27325,5.84175 7.27325,5.13925 C7.27325,4.42741667 7.04108333,3.87754167 6.57675,3.489625 C6.11241667,3.10170833 5.42391667,2.90775 4.51125,2.90775 L1.14875,2.90775 L2.0765,1.89225 L2.0765,8.37225 Z" id="Shape"></path>
                <path d="M11.498103,12.352 L11.498103,3.808 L13.498103,3.808 L13.498103,12.352 L11.498103,12.352 Z M12.506103,2.4 C12.1327696,2.4 11.826103,2.28266667 11.586103,2.048 C11.346103,1.81333333 11.226103,1.53066667 11.226103,1.2 C11.226103,0.858666667 11.346103,0.573333333 11.586103,0.344 C11.826103,0.114666667 12.1327696,0 12.506103,0 C12.8794363,0 13.186103,0.109333333 13.426103,0.328 C13.666103,0.546666667 13.786103,0.821333333 13.786103,1.152 C13.786103,1.504 13.6687696,1.8 13.434103,2.04 C13.1994363,2.28 12.890103,2.4 12.506103,2.4 Z" id="Shape"></path>
                <path d="M19.3394983,12.45625 C18.4034983,12.45625 17.6784566,12.2143333 17.1643733,11.7305 C16.6502899,11.2466667 16.3932483,10.5321667 16.3932483,9.587 L16.3932483,1.9245 L18.3932483,1.9245 L18.3932483,9.541 C18.3932483,9.947 18.4977483,10.2617917 18.7067483,10.485375 C18.9157483,10.7089583 19.2104983,10.82075 19.5909983,10.82075 C20.0303316,10.82075 20.3998316,10.7036667 20.6994983,10.4695 L21.2709983,11.89475 C21.0308316,12.0825833 20.7392899,12.223125 20.3963733,12.316375 C20.0534566,12.409625 19.7011649,12.45625 19.3394983,12.45625 Z M14.9979983,5.46625 L14.9979983,3.871 L20.6867483,3.871 L20.6867483,5.46625 L14.9979983,5.46625 Z" id="Shape"></path>
                <path d="M28.1755746,12.352 L28.1755746,10.619 L28.0728246,10.2585 L28.0728246,7.231 C28.0728246,6.6465 27.8956996,6.19116667 27.5414496,5.865 C27.1871996,5.53883333 26.6517413,5.37575 25.9350746,5.37575 C25.4567413,5.37575 24.9870746,5.451 24.5260746,5.6015 C24.0650746,5.752 23.6719913,5.95716667 23.3468246,6.217 L22.5708246,4.76625 C23.027158,4.41841667 23.5731996,4.15454167 24.2089496,3.974625 C24.8446996,3.79470833 25.503908,3.70475 26.1865746,3.70475 C27.4212413,3.70475 28.3776163,4.00125 29.0556996,4.59425 C29.733783,5.18725 30.0728246,6.103 30.0728246,7.3415 L30.0728246,12.352 L28.1755746,12.352 Z M25.5003246,12.45625 C24.8508246,12.45625 24.2860746,12.3475 23.8060746,12.13 C23.3260746,11.9125 22.956408,11.6100417 22.6970746,11.222625 C22.4377413,10.8352083 22.3080746,10.3955 22.3080746,9.9035 C22.3080746,9.42166667 22.4242413,8.990375 22.6565746,8.609625 C22.888908,8.228875 23.2662413,7.92558333 23.7885746,7.69975 C24.310908,7.47391667 25.002158,7.361 25.8623246,7.361 L28.3410746,7.361 L28.3410746,8.687 L26.0065746,8.687 C25.325408,8.687 24.8666163,8.79708333 24.6301996,9.01725 C24.393783,9.23741667 24.2755746,9.50733333 24.2755746,9.827 C24.2755746,10.1875 24.4202413,10.4739167 24.7095746,10.68625 C24.998908,10.8985833 25.397658,11.00475 25.9058246,11.00475 C26.4019913,11.00475 26.8446163,10.8939583 27.2336996,10.672375 C27.622783,10.4507917 27.9024913,10.1216667 28.0728246,9.685 L28.4113246,10.8825 C28.2169913,11.3845 27.8725746,11.7722917 27.3780746,12.045875 C26.8835746,12.3194583 26.257658,12.45625 25.5003246,12.45625 Z" id="Shape"></path>
            </g>
            <g id="Group" transform="translate(11.000000, 7.000000)" fill="#FFFFFF">
                <path d="M16,3 L15.9999993,17.4910769 L2.15167031,17.4910769 C1.68358923,17.4910769 1.30397405,17.8694996 1.30397405,18.3363883 C1.30397405,18.5179694 1.36227555,18.6857199 1.4600408,18.8230696 C1.61253074,19.040776 1.86517034,19.1839658 2.15167031,19.1839658 L16,19.1839658 L16,20.6231419 L2.00490328,20.6231419 C0.8639111,20.6231419 0.0011922173,19.9034937 0.0011922173,18.4923367 L0,4.22015809 C0,3.64036257 0.35278946,3 1.49497403,3 L16,3 Z" id="Combined-Shape-Copy"></path>
                <path d="M16,-1 L16,3 L20,3 L20,8 L16,8 L16,12 L11,12 L11,7.99925003 L7,8.00025003 L7,3.00024997 L11,2.99924997 L11,-1 L16,-1 Z" id="Combined-Shape" stroke="#37A233" stroke-width="2"></path>
            </g>
        </g>
    </g>
</svg>