<?xml version="1.0" encoding="UTF-8"?>
<svg width="148px" height="88px" viewBox="0 0 148 88" version="1.1" xmlns="http://www.w3.org/2000/svg" xmlns:xlink="http://www.w3.org/1999/xlink">
    <title>9-interaktiva</title>
    <g id="9-interaktiva" stroke="none" stroke-width="1" fill="none" fill-rule="evenodd">
        <g id="soft-button-5-+-Shape-8-Copy-2" transform="translate(6.000000, 25.000000)">
            <g id="soft-button-5">
                <rect id="Rectangle-24" fill="#F0F0F0" x="0" y="0" width="136" height="37"></rect>
                <g id="Interaktiva" transform="translate(40.620000, 10.184000)" fill="#4CA0FF" fill-rule="nonzero">
                    <polygon id="Path" points="0 12.816 0 1.008 1.494 1.008 1.494 12.816"></polygon>
                    <path d="M4.59,12.816 L4.59,4.068 L5.814,4.068 L5.94,5.328 L5.994,5.328 C6.414,4.908 6.858,4.557 7.326,4.275 C7.794,3.993 8.328,3.852 8.928,3.852 C9.852,3.852 10.527,4.143 10.953,4.725 C11.379,5.307 11.592,6.156 11.592,7.272 L11.592,12.816 L10.116,12.816 L10.116,7.47 C10.116,6.654 9.984,6.06 9.72,5.688 C9.456,5.316 9.036,5.13 8.46,5.13 C8.016,5.13 7.617,5.244 7.263,5.472 C6.909,5.7 6.51,6.036 6.066,6.48 L6.066,12.816 L4.59,12.816 Z" id="Path"></path>
                    <path d="M17.19,13.032 C16.254,13.032 15.603,12.762 15.237,12.222 C14.871,11.682 14.688,10.98 14.688,10.116 L14.688,5.274 L13.392,5.274 L13.392,4.158 L14.76,4.068 L14.94,1.62 L16.182,1.62 L16.182,4.068 L18.54,4.068 L18.54,5.274 L16.182,5.274 L16.182,10.134 C16.182,10.674 16.281,11.091 16.479,11.385 C16.677,11.679 17.028,11.826 17.532,11.826 C17.688,11.826 17.856,11.799 18.036,11.745 C18.216,11.691 18.378,11.64 18.522,11.592 L18.81,12.708 C18.57,12.792 18.309,12.867 18.027,12.933 C17.745,12.999 17.466,13.032 17.19,13.032 Z" id="Path"></path>
                    <path d="M24.066,13.032 C23.286,13.032 22.578,12.849 21.942,12.483 C21.306,12.117 20.802,11.592 20.43,10.908 C20.058,10.224 19.872,9.408 19.872,8.46 C19.872,7.5 20.061,6.678 20.439,5.994 C20.817,5.31 21.306,4.782 21.906,4.41 C22.506,4.038 23.136,3.852 23.796,3.852 C24.912,3.852 25.773,4.224 26.379,4.968 C26.985,5.712 27.288,6.708 27.288,7.956 C27.288,8.112 27.285,8.265 27.279,8.415 C27.273,8.565 27.258,8.694 27.234,8.802 L21.33,8.802 C21.39,9.726 21.681,10.464 22.203,11.016 C22.725,11.568 23.406,11.844 24.246,11.844 C24.666,11.844 25.053,11.781 25.407,11.655 C25.761,11.529 26.1,11.364 26.424,11.16 L26.946,12.132 C26.574,12.372 26.151,12.582 25.677,12.762 C25.203,12.942 24.666,13.032 24.066,13.032 Z M21.312,7.74 L25.992,7.74 C25.992,6.852 25.803,6.177 25.425,5.715 C25.047,5.253 24.516,5.022 23.832,5.022 C23.22,5.022 22.671,5.259 22.185,5.733 C21.699,6.207 21.408,6.876 21.312,7.74 Z" id="Shape"></path>
                    <path d="M29.448,12.816 L29.448,4.068 L30.672,4.068 L30.798,5.652 L30.852,5.652 C31.152,5.1 31.518,4.662 31.95,4.338 C32.382,4.014 32.844,3.852 33.336,3.852 C33.684,3.852 33.996,3.912 34.272,4.032 L33.984,5.328 C33.84,5.28 33.708,5.244 33.588,5.22 C33.468,5.196 33.318,5.184 33.138,5.184 C32.766,5.184 32.379,5.334 31.977,5.634 C31.575,5.934 31.224,6.456 30.924,7.2 L30.924,12.816 L29.448,12.816 Z" id="Path"></path>
                    <path d="M37.71,13.032 C36.978,13.032 36.369,12.813 35.883,12.375 C35.397,11.937 35.154,11.328 35.154,10.548 C35.154,9.588 35.583,8.853 36.441,8.343 C37.299,7.833 38.658,7.476 40.518,7.272 C40.518,6.9 40.467,6.546 40.365,6.21 C40.263,5.874 40.083,5.601 39.825,5.391 C39.567,5.181 39.198,5.076 38.718,5.076 C38.214,5.076 37.74,5.172 37.296,5.364 C36.852,5.556 36.456,5.772 36.108,6.012 L35.532,4.986 C35.94,4.722 36.441,4.467 37.035,4.221 C37.629,3.975 38.274,3.852 38.97,3.852 C40.038,3.852 40.812,4.179 41.292,4.833 C41.772,5.487 42.012,6.36 42.012,7.452 L42.012,12.816 L40.788,12.816 L40.662,11.772 L40.608,11.772 C40.2,12.108 39.753,12.402 39.267,12.654 C38.781,12.906 38.262,13.032 37.71,13.032 Z M38.142,11.844 C38.562,11.844 38.958,11.742 39.33,11.538 C39.702,11.334 40.098,11.046 40.518,10.674 L40.518,8.244 C39.066,8.424 38.049,8.694 37.467,9.054 C36.885,9.414 36.594,9.876 36.594,10.44 C36.594,10.932 36.744,11.289 37.044,11.511 C37.344,11.733 37.71,11.844 38.142,11.844 Z" id="Shape"></path>
                    <polygon id="Path" points="44.766 12.816 44.766 0 46.224 0 46.224 8.676 46.278 8.676 50.004 4.068 51.642 4.068 48.708 7.578 52.038 12.816 50.418 12.816 47.862 8.604 46.224 10.512 46.224 12.816"></polygon>
                    <path d="M56.43,13.032 C55.494,13.032 54.843,12.762 54.477,12.222 C54.111,11.682 53.928,10.98 53.928,10.116 L53.928,5.274 L52.632,5.274 L52.632,4.158 L54,4.068 L54.18,1.62 L55.422,1.62 L55.422,4.068 L57.78,4.068 L57.78,5.274 L55.422,5.274 L55.422,10.134 C55.422,10.674 55.521,11.091 55.719,11.385 C55.917,11.679 56.268,11.826 56.772,11.826 C56.928,11.826 57.096,11.799 57.276,11.745 C57.456,11.691 57.618,11.64 57.762,11.592 L58.05,12.708 C57.81,12.792 57.549,12.867 57.267,12.933 C56.985,12.999 56.706,13.032 56.43,13.032 Z" id="Path"></path>
                    <path d="M59.76,12.816 L59.76,4.068 L61.236,4.068 L61.236,12.816 L59.76,12.816 Z M60.516,2.268 C60.228,2.268 59.991,2.181 59.805,2.007 C59.619,1.833 59.526,1.596 59.526,1.296 C59.526,1.008 59.619,0.774 59.805,0.594 C59.991,0.414 60.228,0.324 60.516,0.324 C60.804,0.324 61.041,0.414 61.227,0.594 C61.413,0.774 61.506,1.008 61.506,1.296 C61.506,1.596 61.413,1.833 61.227,2.007 C61.041,2.181 60.804,2.268 60.516,2.268 Z" id="Shape"></path>
                    <path d="M66.078,12.816 L62.928,4.068 L64.458,4.068 L66.114,9.036 C66.246,9.468 66.381,9.9 66.519,10.332 C66.657,10.764 66.792,11.19 66.924,11.61 L66.996,11.61 C67.128,11.19 67.263,10.764 67.401,10.332 C67.539,9.9 67.668,9.468 67.788,9.036 L69.444,4.068 L70.902,4.068 L67.806,12.816 L66.078,12.816 Z" id="Path"></path>
                    <path d="M74.61,13.032 C73.878,13.032 73.269,12.813 72.783,12.375 C72.297,11.937 72.054,11.328 72.054,10.548 C72.054,9.588 72.483,8.853 73.341,8.343 C74.199,7.833 75.558,7.476 77.418,7.272 C77.418,6.9 77.367,6.546 77.265,6.21 C77.163,5.874 76.983,5.601 76.725,5.391 C76.467,5.181 76.098,5.076 75.618,5.076 C75.114,5.076 74.64,5.172 74.196,5.364 C73.752,5.556 73.356,5.772 73.008,6.012 L72.432,4.986 C72.84,4.722 73.341,4.467 73.935,4.221 C74.529,3.975 75.174,3.852 75.87,3.852 C76.938,3.852 77.712,4.179 78.192,4.833 C78.672,5.487 78.912,6.36 78.912,7.452 L78.912,12.816 L77.688,12.816 L77.562,11.772 L77.508,11.772 C77.1,12.108 76.653,12.402 76.167,12.654 C75.681,12.906 75.162,13.032 74.61,13.032 Z M75.042,11.844 C75.462,11.844 75.858,11.742 76.23,11.538 C76.602,11.334 76.998,11.046 77.418,10.674 L77.418,8.244 C75.966,8.424 74.949,8.694 74.367,9.054 C73.785,9.414 73.494,9.876 73.494,10.44 C73.494,10.932 73.644,11.289 73.944,11.511 C74.244,11.733 74.61,11.844 75.042,11.844 Z" id="Shape"></path>
                </g>
            </g>
            <path d="M29,11.3849925 C29,10.6437854 28.382203,10.0408309 27.6233011,10.0408309 C27.3766765,10.0408309 27.1409251,10.1035632 26.9338396,10.2213071 L26.9335924,9.43956526 C26.9360636,9.40675141 26.9370521,9.37852184 26.9370521,9.35125739 C26.9370521,8.61005034 26.319255,8.00709578 25.5603532,8.00709578 C25.3137286,8.00709578 25.0777301,8.07006942 24.8703974,8.18805453 C24.7910723,7.52019609 24.2078719,7 23.5028419,7 C22.7968234,7 22.2131287,7.52164376 22.1350392,8.19094987 C21.9264709,8.07103454 21.6884955,8.00709578 21.4396468,8.00709578 C20.680745,8.00709578 20.0629479,8.61005034 20.0629479,9.35125739 L20.0629479,13.5721806 C19.7167344,13.2877134 19.274886,13.126057 18.8157392,13.126057 C18.365983,13.126057 18,13.4833902 18,13.9225168 L18,19.9286584 C18,21.5237495 18.7139263,22.9579079 19.8444949,23.9437712 C19.8588278,23.9621083 19.8751376,23.9792391 19.8934244,23.9949222 C19.9492732,24.042454 20.0061106,24.0885382 20.0634421,24.1336572 L20.0629479,28.7543787 C20.0629479,28.8865992 20.2112192,28.9949332 20.3955698,28.9997587 L20.4138566,29 C20.4175634,29 20.4212702,28.9997587 20.424977,28.9997587 L20.4262126,28.9997587 C20.6108103,28.9951744 20.7590816,28.8865992 20.7590816,28.7543787 L20.753645,24.5964291 C21.0306652,24.75326 21.3212769,24.8869282 21.6247388,24.9945383 C21.6647721,25.0087738 21.7057938,25.0155296 21.7460742,25.0155296 C21.8908858,25.0155296 22.0268012,24.9281868 22.0791903,24.7877628 C22.1461595,24.6082517 22.0512659,24.4096796 21.8671624,24.3440519 C21.7616427,24.3066538 21.6580999,24.2644301 21.5560398,24.2200349 C21.5570283,24.2168983 21.5575225,24.2152093 21.5575225,24.2152093 C21.5575225,24.2152093 21.5451666,24.212314 21.5241615,24.2060407 C21.1028239,24.01905 20.712129,23.7741525 20.3599847,23.4735197 C20.337744,23.4544587 20.3135264,23.4394995 20.2880731,23.4271943 C19.3079999,22.5651068 18.6892144,21.3169739 18.6892144,19.9284171 L18.6892144,15.0379465 L18.6902029,13.9222755 C18.6902029,13.8547175 18.746546,13.7999474 18.8157392,13.7999474 C19.5034709,13.7999474 20.0629479,14.3462015 20.0629479,15.0176791 L20.0629479,17.6350665 C20.0629479,17.8208508 20.2176443,17.9721324 20.4079258,17.9721324 L20.4081729,17.9721324 C21.9415452,17.9721324 23.1887538,19.1901054 23.1887538,20.6872375 C23.1887538,20.8730218 23.3436973,21.024062 23.5339788,21.024062 C23.7242603,21.024062 23.8789567,20.8727805 23.8789567,20.6872375 C23.8789567,18.9353155 22.5190618,17.4847501 20.7531508,17.3146489 L20.7531508,9.35125739 C20.7531508,8.98161898 21.0610608,8.68098617 21.4393997,8.68098617 C21.8179858,8.68098617 22.1258958,8.98161898 22.1258958,9.35125739 C22.1258958,9.37466139 22.1246602,9.39830666 22.1209534,9.43160308 L22.1202121,15.4331604 C22.1202121,15.6172558 22.271943,15.7673309 22.4597533,15.7702263 L22.4706266,15.7711914 L22.4772988,15.7702263 C22.6660975,15.768296 22.8190641,15.6179796 22.8190641,15.4331604 L22.8190641,8.40978932 L22.8183227,8.39096961 C22.8173343,8.3755278 22.8163458,8.3598447 22.8163458,8.34392033 C22.8163458,7.9745232 23.1242558,7.67389039 23.5028419,7.67389039 C23.8814279,7.67389039 24.1890908,7.9745232 24.1890908,8.34392033 C24.1890908,8.36032726 24.1881024,8.37649291 24.1868668,8.39507134 L24.1861254,8.40230969 L24.1866196,9.26439719 C24.1846427,9.29310931 24.1834071,9.32206271 24.1834071,9.35125739 C24.1834071,9.37803928 24.1843956,9.40602757 24.1861254,9.42750134 L24.1861254,15.4331604 C24.1861254,15.619186 24.3410689,15.7702263 24.5313504,15.7702263 C24.7216319,15.7702263 24.8763283,15.619186 24.8763283,15.4331604 L24.8763283,9.29335059 C24.9064768,8.94952896 25.2057376,8.68098617 25.560106,8.68098617 C25.9384449,8.68098617 26.246355,8.98161898 26.246355,9.35125739 C26.246355,9.36718176 26.2456136,9.38286485 26.2438838,9.40216712 L26.2433896,15.9960628 C26.2433896,16.1777454 26.3916609,16.3266141 26.5762586,16.3328873 L26.5942983,16.3331286 L26.6054186,16.3331286 L26.6066542,16.3331286 C26.791252,16.3268554 26.9397704,16.1779866 26.9397704,15.9963041 L26.9395233,11.4491725 L26.9387819,11.4334894 C26.9377935,11.4175651 26.936805,11.4016407 26.936805,11.3852338 C26.936805,11.0155954 27.2444679,10.7149625 27.6230539,10.7149625 C28.0013929,10.7149625 28.3093029,11.0155954 28.3093029,11.3852338 C28.3093029,11.4013994 28.3085615,11.4175651 28.3068317,11.4361435 L28.3070788,19.9286584 C28.3070788,21.2634101 27.7347516,22.4681129 26.8194235,23.3256161 C26.7924876,23.3393689 26.7665401,23.3555346 26.7433109,23.3765258 C26.2735381,23.8038297 25.7308651,24.1285904 25.131602,24.342363 C24.9477456,24.4077494 24.8530991,24.606804 24.9205625,24.7863151 C24.9729517,24.9264978 25.1088671,25.0135993 25.2534316,25.0135993 C25.2939591,25.0135993 25.3349808,25.0068435 25.375014,24.9923668 C25.6782288,24.8845154 25.967605,24.7501234 26.2438838,24.5935337 L26.2433896,28.7543787 C26.2433896,28.8865992 26.3916609,28.9949332 26.5762586,28.9997587 L26.5942983,29 C26.5982522,29 26.6017119,28.9997587 26.6054186,28.9997587 L26.6066542,28.9997587 C26.791252,28.9951744 26.9397704,28.8865992 26.9397704,28.7543787 L26.9335924,24.1295555 C27.0334284,24.0506575 27.1320288,23.969588 27.2269225,23.8832103 C27.2355716,23.8752481 27.2422438,23.8660796 27.2501516,23.8578761 C28.3243771,22.8753907 28.9972817,21.4779066 28.9972817,19.9286584 L28.9970346,11.4730591 C28.9987644,11.4402452 29,11.4122569 29,11.3849925 L29,11.3849925 Z" id="Shape-8" fill="#4CA0FF"></path>
        </g>
    </g>
</svg>