<?xml version="1.0" encoding="UTF-8"?>
<svg width="186px" height="88px" viewBox="0 0 186 88" version="1.1" xmlns="http://www.w3.org/2000/svg" xmlns:xlink="http://www.w3.org/1999/xlink">
    <title>10-grafiska</title>
    <defs>
        <path d="M24,0 L138,0 C151.254834,-2.4348735e-15 162,10.745166 162,24 C162,37.254834 151.254834,48 138,48 L24,48 C10.745166,48 1.623249e-15,37.254834 0,24 C-1.623249e-15,10.745166 10.745166,2.4348735e-15 24,0 Z" id="path-1"></path>
        <filter x="-15.4%" y="-35.4%" width="130.9%" height="204.2%" filterUnits="objectBoundingBox" id="filter-3">
            <feOffset dx="0" dy="8" in="SourceAlpha" result="shadowOffsetOuter1"></feOffset>
            <feGaussianBlur stdDeviation="7" in="shadowOffsetOuter1" result="shadowBlurOuter1"></feGaussianBlur>
            <feColorMatrix values="0 0 0 0 0.31372549   0 0 0 0 0.607843137   0 0 0 0 0.901960784  0 0 0 0.29650702 0" type="matrix" in="shadowBlurOuter1"></feColorMatrix>
        </filter>
    </defs>
    <g id="10-grafiska" stroke="none" stroke-width="1" fill="none" fill-rule="evenodd">
        <g id="Group-4-Copy-8" transform="translate(12.000000, 20.000000)">
            <g id="Group">
                <mask id="mask-2" fill="white">
                    <use xlink:href="#path-1"></use>
                </mask>
                <g id="Rectangle-4">
                    <use fill="black" fill-opacity="1" filter="url(#filter-3)" xlink:href="#path-1"></use>
                    <use fill="#2882F3" fill-rule="evenodd" xlink:href="#path-1"></use>
                </g>
                <path d="M-8.96915443,51.7851562 C0.255049385,41.4279742 15.2223894,36.4279742 35.9328656,36.7851562 C66.99858,37.3209293 72.0699754,41.7851562 103.33576,41.7851562 C134.601545,41.7851562 135.638375,35.2733802 165.70748,34.7851562 C185.75355,34.4596736 206.022148,38.4596736 226.513274,46.7851562 L226.513274,108.769531 L-23.4159292,108.769531 L-8.96915443,51.7851562 Z" id="Path-2" fill="#539EFD" mask="url(#mask-2)"></path>
            </g>
            <g id="Grafiska" transform="translate(42.291000, 13.468000)" fill="#FFFFFF" fill-rule="nonzero">
                <path d="M6.204,7.348 L11.66,7.348 L11.66,14.74 C11.088,15.048 10.3986667,15.3083333 9.592,15.521 C8.78533333,15.7336667 7.92,15.84 6.996,15.84 C4.664,15.84 2.915,15.0883333 1.749,13.585 C0.583,12.0816667 0,10.2593333 0,8.118 C0,5.84466667 0.66,3.96733333 1.98,2.486 C3.3,1.00466667 5.08933333,0.264 7.348,0.264 C7.788,0.264 8.415,0.337333333 9.229,0.484 C10.043,0.630666667 10.78,0.88 11.44,1.232 L10.538,3.278 C9.89266667,3.08733333 9.36833333,2.937 8.965,2.827 C8.56166667,2.717 8.03733333,2.662 7.392,2.662 C6.072,2.662 5.005,3.113 4.191,4.015 C3.377,4.917 2.97,6.27733333 2.97,8.096 C2.97,9.73866667 3.30366667,11.0403333 3.971,12.001 C4.63833333,12.9616667 5.62466667,13.442 6.93,13.442 C7.414,13.442 7.832,13.4163333 8.184,13.365 C8.536,13.3136667 8.844,13.2586667 9.108,13.2 L9.108,9.548 L5.962,9.548 L6.204,7.348 Z" id="Path"></path>
                <path d="M20.394,4.862 L20.966,7.15 C20.482,7.15 19.921,7.28933333 19.283,7.568 C18.645,7.84666667 18.018,8.25733333 17.402,8.8 L17.402,15.532 L14.542,15.532 L14.542,4.862 L16.038,4.862 L16.984,6.424 C17.424,6.04266667 17.9593333,5.687 18.59,5.357 C19.2206667,5.027 19.822,4.862 20.394,4.862 Z" id="Path"></path>
                <path d="M24.552,12.342 C24.552,12.65 24.6766667,12.925 24.926,13.167 C25.1753333,13.409 25.5053333,13.53 25.916,13.53 C26.312,13.53 26.7116667,13.442 27.115,13.266 C27.5183333,13.09 27.9033333,12.826 28.27,12.474 L28.27,10.846 L26.114,10.846 C25.6153333,10.846 25.2303333,11 24.959,11.308 C24.6876667,11.616 24.552,11.9606667 24.552,12.342 Z M25.96,15.796 C24.6546667,15.796 23.6866667,15.477 23.056,14.839 C22.4253333,14.201 22.11,13.3686667 22.11,12.342 C22.11,11.242 22.484,10.3986667 23.232,9.812 C23.98,9.22533333 24.9553333,8.932 26.158,8.932 L28.248,8.932 C28.2333333,8.38933333 28.0756667,7.96766667 27.775,7.667 C27.4743333,7.36633333 27.06,7.216 26.532,7.216 C26.0333333,7.216 25.4906667,7.28566667 24.904,7.425 C24.3173333,7.56433333 23.826,7.72933333 23.43,7.92 L22.66,5.544 C23.0706667,5.26533333 23.6976667,5.03433333 24.541,4.851 C25.3843333,4.66766667 26.0333333,4.576 26.488,4.576 C27.764,4.576 28.8566667,4.94633333 29.766,5.687 C30.6753333,6.42766667 31.13,7.37 31.13,8.514 L31.13,15.532 L29.656,15.532 L28.952,14.63 C28.556,14.938 28.0903333,15.2093333 27.555,15.444 C27.0196667,15.6786667 26.488,15.796 25.96,15.796 Z" id="Shape"></path>
                <path d="M34.188,4.07 C34.188,2.838 34.551,1.86633333 35.277,1.155 C36.003,0.443666667 37.026,0.088 38.346,0.088 C38.6833333,0.088 39.0646667,0.154 39.49,0.286 C39.9153333,0.418 40.2453333,0.579333333 40.48,0.77 L39.666,2.838 C39.446,2.75 39.237,2.68033333 39.039,2.629 C38.841,2.57766667 38.654,2.552 38.478,2.552 C37.9793333,2.552 37.6163333,2.73166667 37.389,3.091 C37.1616667,3.45033333 37.048,3.90866667 37.048,4.466 L37.048,5.082 L39.072,5.082 L39.974,7.304 L37.048,7.304 L37.048,15.532 L34.188,15.532 L34.188,7.304 L32.538,7.304 L32.538,5.082 L34.188,5.082 L34.188,4.07 Z" id="Path"></path>
                <path d="M43.384,0.132 C43.8386667,0.132 44.2236667,0.286 44.539,0.594 C44.8543333,0.902 45.012,1.28333333 45.012,1.738 C45.012,2.19266667 44.8543333,2.574 44.539,2.882 C44.2236667,3.19 43.8386667,3.344 43.384,3.344 C42.944,3.344 42.57,3.19 42.262,2.882 C41.954,2.574 41.8,2.19266667 41.8,1.738 C41.8,1.28333333 41.954,0.902 42.262,0.594 C42.57,0.286 42.944,0.132 43.384,0.132 Z M44.814,4.862 L44.814,15.532 L41.954,15.532 L41.954,4.862 L44.814,4.862 Z" id="Shape"></path>
                <path d="M53.856,7.744 C53.3426667,7.50933333 52.866,7.32966667 52.426,7.205 C51.986,7.08033333 51.5166667,7.018 51.018,7.018 C50.6513333,7.018 50.369,7.08766667 50.171,7.227 C49.973,7.36633333 49.874,7.56066667 49.874,7.81 C49.874,7.986 49.995,8.15466667 50.237,8.316 C50.479,8.47733333 50.8713333,8.65333333 51.414,8.844 C52.3086667,9.16666667 53.1373333,9.61766667 53.9,10.197 C54.6626667,10.7763333 55.044,11.528 55.044,12.452 C55.044,13.508 54.6663333,14.3293333 53.911,14.916 C53.1556667,15.5026667 52.052,15.796 50.6,15.796 C50.1453333,15.796 49.5403333,15.708 48.785,15.532 C48.0296667,15.356 47.4026667,15.0773333 46.904,14.696 L47.762,12.628 C48.2753333,12.8626667 48.7703333,13.0423333 49.247,13.167 C49.7236667,13.2916667 50.16,13.354 50.556,13.354 C51.084,13.354 51.4873333,13.2806667 51.766,13.134 C52.0446667,12.9873333 52.184,12.7966667 52.184,12.562 C52.184,12.2686667 52.0446667,12.0046667 51.766,11.77 C51.4873333,11.5353333 51.0473333,11.3226667 50.446,11.132 C49.5953333,10.8533333 48.7923333,10.4536667 48.037,9.933 C47.2816667,9.41233333 46.904,8.712 46.904,7.832 C46.904,6.82 47.278,6.02433333 48.026,5.445 C48.774,4.86566667 49.786,4.576 51.062,4.576 C51.5166667,4.576 52.1033333,4.67133333 52.822,4.862 C53.5406667,5.05266667 54.1713333,5.33133333 54.714,5.698 L53.856,7.744 Z" id="Path"></path>
                <polygon id="Path" points="60.082 0 60.082 8.756 64.658 4.554 66.264 6.578 63.272 9.196 67.188 15.532 63.91 15.532 61.226 11.022 60.082 12.034 60.082 15.532 57.244 15.532 57.244 0.242"></polygon>
                <path d="M70.818,12.342 C70.818,12.65 70.9426667,12.925 71.192,13.167 C71.4413333,13.409 71.7713333,13.53 72.182,13.53 C72.578,13.53 72.9776667,13.442 73.381,13.266 C73.7843333,13.09 74.1693333,12.826 74.536,12.474 L74.536,10.846 L72.38,10.846 C71.8813333,10.846 71.4963333,11 71.225,11.308 C70.9536667,11.616 70.818,11.9606667 70.818,12.342 Z M72.226,15.796 C70.9206667,15.796 69.9526667,15.477 69.322,14.839 C68.6913333,14.201 68.376,13.3686667 68.376,12.342 C68.376,11.242 68.75,10.3986667 69.498,9.812 C70.246,9.22533333 71.2213333,8.932 72.424,8.932 L74.514,8.932 C74.4993333,8.38933333 74.3416667,7.96766667 74.041,7.667 C73.7403333,7.36633333 73.326,7.216 72.798,7.216 C72.2993333,7.216 71.7566667,7.28566667 71.17,7.425 C70.5833333,7.56433333 70.092,7.72933333 69.696,7.92 L68.926,5.544 C69.3366667,5.26533333 69.9636667,5.03433333 70.807,4.851 C71.6503333,4.66766667 72.2993333,4.576 72.754,4.576 C74.03,4.576 75.1226667,4.94633333 76.032,5.687 C76.9413333,6.42766667 77.396,7.37 77.396,8.514 L77.396,15.532 L75.922,15.532 L75.218,14.63 C74.822,14.938 74.3563333,15.2093333 73.821,15.444 C73.2856667,15.6786667 72.754,15.796 72.226,15.796 Z" id="Shape"></path>
            </g>
        </g>
    </g>
</svg>