<?xml version="1.0" encoding="UTF-8"?>
<svg width="143px" height="88px" viewBox="0 0 143 88" version="1.1" xmlns="http://www.w3.org/2000/svg" xmlns:xlink="http://www.w3.org/1999/xlink">
    <title>3-tio_ars</title>
    <g id="3-tio_ars" stroke="none" stroke-width="1" fill="none" fill-rule="evenodd">
        <g id="Group-3-Copy-2" transform="translate(6.000000, 24.000000)">
            <path d="M111,0.5 C116.384776,0.5 121.259776,2.68261184 124.788582,6.21141777 C128.317388,9.74022369 130.5,14.6152237 130.5,20 C130.5,25.3847763 128.317388,30.2597763 124.788582,33.7885822 C121.259776,37.3173882 116.384776,39.5 111,39.5 L20,39.5 C14.6152237,39.5 9.74022369,37.3173882 6.21141777,33.7885822 C2.68261184,30.2597763 0.5,25.3847763 0.5,20 C0.5,14.6152237 2.68261184,9.74022369 6.21141777,6.21141777 C9.74022369,2.68261184 14.6152237,0.5 20,0.5 Z" id="Rectangle-4-Copy-2" stroke-opacity="0.15" stroke="#FFFFFF" fill="#512FBA"></path>
            <g id="Tio-års" transform="translate(23.537188, 10.438000)" fill="#FFFFFF" fill-rule="nonzero">
                <polygon id="Path" points="10.0634062 2.682 10.0634062 4.3430625 6.00103125 4.3430625 6.00103125 14.562 4.06546875 14.562 4.06546875 4.3430625 0 4.3430625 0 2.682"></polygon>
                <path d="M12.7875037,4.04128125 C12.3750037,4.04128125 12.0567693,3.936375 11.8328005,3.7265625 C11.6088318,3.51675 11.4968474,3.22284375 11.4968474,2.84484375 C11.4968474,2.46459375 11.6088318,2.17007812 11.8328005,1.96129687 C12.0567693,1.75251562 12.3750037,1.648125 12.7875037,1.648125 C13.2000037,1.648125 13.518238,1.75251562 13.7422068,1.96129687 C13.9661755,2.17007812 14.0781599,2.46459375 14.0781599,2.84484375 C14.0781599,3.22284375 13.9661755,3.51675 13.7422068,3.7265625 C13.518238,3.936375 13.2000037,4.04128125 12.7875037,4.04128125 Z M13.7505037,5.562 L13.7505037,14.562 L11.8245037,14.562 L11.8245037,5.562 L13.7505037,5.562 Z" id="Shape"></path>
                <path d="M20.6461406,5.382 C21.5262656,5.382 22.302,5.5674375 22.9733438,5.9383125 C23.6446875,6.3091875 24.1706719,6.84510937 24.5512969,7.54607812 C24.9319219,8.24704687 25.1222344,9.0856875 25.1222344,10.062 C25.1222344,11.03625 24.9319219,11.874375 24.5512969,12.576375 C24.1706719,13.278375 23.6446875,13.8148125 22.9733438,14.1856875 C22.302,14.5565625 21.5262656,14.742 20.6461406,14.742 C19.7782031,14.742 19.0055625,14.5565625 18.3282188,14.1856875 C17.650875,13.8148125 17.1218906,13.278375 16.7412656,12.576375 C16.3606406,11.874375 16.1703281,11.03625 16.1703281,10.062 C16.1703281,9.0856875 16.3606406,8.24704687 16.7412656,7.54607812 C17.1218906,6.84510937 17.650875,6.3091875 18.3282188,5.9383125 C19.0055625,5.5674375 19.7782031,5.382 20.6461406,5.382 Z M20.6461406,6.90271875 C20.1119531,6.90271875 19.6558594,7.0250625 19.2778594,7.26975 C18.8998594,7.5144375 18.609,7.8706875 18.4052813,8.3385 C18.2015625,8.8063125 18.0997031,9.3808125 18.0997031,10.062 C18.0997031,10.73325 18.2015625,11.30475 18.4052813,11.7765 C18.609,12.24825 18.8998594,12.6069844 19.2778594,12.8527031 C19.6558594,13.0984219 20.1119531,13.2212812 20.6461406,13.2212812 C21.1825781,13.2212812 21.6392813,13.0984219 22.01625,12.8527031 C22.3932188,12.6069844 22.6835625,12.24825 22.8872813,11.7765 C23.091,11.30475 23.1928594,10.73325 23.1928594,10.062 C23.1928594,9.3808125 23.091,8.8063125 22.8872813,8.3385 C22.6835625,7.8706875 22.3932188,7.5144375 22.01625,7.26975 C21.6392813,7.0250625 21.1825781,6.90271875 20.6461406,6.90271875 Z" id="Shape"></path>
                <path d="M38.5822079,8.784 C38.5822079,8.184 38.4172079,7.719 38.0872079,7.389 C37.7572079,7.059 37.3042079,6.894 36.7282079,6.894 C36.1882079,6.894 35.7262079,7.02 35.3422079,7.272 C34.9582079,7.524 34.6762079,7.932 34.4962079,8.496 L32.8762079,7.812 C33.1042079,7.08 33.5512079,6.492 34.2172079,6.048 C34.8832079,5.604 35.7442079,5.382 36.8002079,5.382 C37.5202079,5.382 38.1562079,5.499 38.7082079,5.733 C39.2602079,5.967 39.6952079,6.318 40.0132079,6.786 C40.3312079,7.254 40.4902079,7.854 40.4902079,8.586 L40.4902079,12.6 C40.4902079,13.044 40.7122079,13.266 41.1562079,13.266 C41.3722079,13.266 41.5822079,13.236 41.7862079,13.176 L41.6782079,14.508 C41.4022079,14.64 41.0542079,14.706 40.6342079,14.706 C40.2502079,14.706 39.9052079,14.637 39.5992079,14.499 C39.2932079,14.361 39.0532079,14.151 38.8792079,13.869 C38.7052079,13.587 38.6182079,13.236 38.6182079,12.816 L38.6182079,12.69 L39.0142079,12.672 C38.9062079,13.14 38.6842079,13.527 38.3482079,13.833 C38.0122079,14.139 37.6222079,14.367 37.1782079,14.517 C36.7342079,14.667 36.2842079,14.742 35.8282079,14.742 C35.2642079,14.742 34.7572079,14.652 34.3072079,14.472 C33.8572079,14.292 33.5032079,14.019 33.2452079,13.653 C32.9872079,13.287 32.8582079,12.834 32.8582079,12.294 C32.8582079,11.622 33.0772079,11.07 33.5152079,10.638 C33.9532079,10.206 34.5742079,9.912 35.3782079,9.756 L38.8702079,9.072 L38.8522079,10.422 L36.3142079,10.944 C35.8102079,11.04 35.4322079,11.178 35.1802079,11.358 C34.9282079,11.538 34.8022079,11.802 34.8022079,12.15 C34.8022079,12.486 34.9312079,12.753 35.1892079,12.951 C35.4472079,13.149 35.7922079,13.248 36.2242079,13.248 C36.5242079,13.248 36.8152079,13.212 37.0972079,13.14 C37.3792079,13.068 37.6342079,12.951 37.8622079,12.789 C38.0902079,12.627 38.2672079,12.417 38.3932079,12.159 C38.5192079,11.901 38.5822079,11.592 38.5822079,11.232 L38.5822079,8.784 Z M36.8182079,0 C37.5142079,0 38.0752079,0.198 38.5012079,0.594 C38.9272079,0.99 39.1402079,1.512 39.1402079,2.16 C39.1402079,2.808 38.9272079,3.333 38.5012079,3.735 C38.0752079,4.137 37.5142079,4.338 36.8182079,4.338 C36.1102079,4.338 35.5402079,4.137 35.1082079,3.735 C34.6762079,3.333 34.4602079,2.808 34.4602079,2.16 C34.4602079,1.512 34.6762079,0.99 35.1082079,0.594 C35.5402079,0.198 36.1102079,0 36.8182079,0 Z M36.8182079,1.008 C36.4702079,1.008 36.1852079,1.116 35.9632079,1.332 C35.7412079,1.548 35.6302079,1.824 35.6302079,2.16 C35.6302079,2.496 35.7412079,2.772 35.9632079,2.988 C36.1852079,3.204 36.4702079,3.312 36.8182079,3.312 C37.1662079,3.312 37.4482079,3.204 37.6642079,2.988 C37.8802079,2.772 37.9882079,2.496 37.9882079,2.16 C37.9882079,1.824 37.8802079,1.548 37.6642079,1.332 C37.4482079,1.116 37.1662079,1.008 36.8182079,1.008 Z" id="Shape"></path>
                <path d="M43.6445475,14.562 L43.6445475,5.562 L45.2746725,5.562 L45.4532662,7.17721875 C45.6966412,6.59071875 46.0558912,6.14489062 46.5310162,5.83973437 C47.0061412,5.53457812 47.5928287,5.382 48.2910787,5.382 C48.4686412,5.382 48.6466256,5.39615625 48.8250319,5.42446875 C49.0034381,5.45278125 49.1521725,5.50078125 49.271235,5.56846875 L49.0032037,7.24528125 C48.8755162,7.19728125 48.72936,7.16020312 48.564735,7.13404687 C48.40011,7.10789062 48.17811,7.0948125 47.898735,7.0948125 C47.5287975,7.0948125 47.1650944,7.193625 46.8076256,7.39125 C46.4501569,7.588875 46.15461,7.88671875 45.920985,8.28478125 C45.68736,8.68284375 45.5705475,9.1876875 45.5705475,9.7993125 L45.5705475,14.562 L43.6445475,14.562 Z" id="Path"></path>
                <path d="M54.20172,14.742 C53.3086575,14.742 52.4902668,14.5673906 51.7465481,14.2181719 C51.0028293,13.8689531 50.4159075,13.3750312 49.9857825,12.7364062 L51.30372,11.5900312 C51.57897,12.0852187 51.9645168,12.4802812 52.4603606,12.7752187 C52.9562043,13.0701562 53.5498762,13.217625 54.2413762,13.217625 C54.7978762,13.217625 55.2376575,13.1202187 55.56072,12.9254062 C55.8837825,12.7305937 56.0453137,12.457875 56.0453137,12.10725 C56.0453137,11.88375 55.9713918,11.6840625 55.8235481,11.5081875 C55.6757043,11.3323125 55.3880325,11.1991875 54.9605325,11.1088125 L53.073345,10.7184375 C52.1176575,10.521375 51.4366106,10.2085781 51.0302043,9.78004687 C50.6237981,9.35151562 50.420595,8.80828125 50.420595,8.15034375 C50.420595,7.65834375 50.5644543,7.202625 50.8521731,6.7831875 C51.1398918,6.36375 51.5603606,6.02535937 52.1135793,5.76801562 C52.6667981,5.51067187 53.3372512,5.382 54.1249387,5.382 C55.0185637,5.382 55.7841731,5.54039062 56.4217668,5.85717187 C57.0593606,6.17395312 57.5480325,6.630375 57.8877825,7.2264375 L56.5538137,8.3255625 C56.3215012,7.8485625 55.9844231,7.49278125 55.5425793,7.25821875 C55.1007356,7.02365625 54.6395325,6.906375 54.15897,6.906375 C53.7725325,6.906375 53.4419231,6.95498437 53.1671418,7.05220312 C52.8923606,7.14942187 52.6839075,7.28315625 52.5417825,7.45340625 C52.3996575,7.62365625 52.328595,7.82371875 52.328595,8.05359375 C52.328595,8.28346875 52.4157825,8.48953125 52.5901575,8.67178125 C52.7645325,8.85403125 53.0862825,8.99315625 53.5554075,9.08915625 L55.6093762,9.51440625 C56.4720637,9.68803125 57.0827981,9.97682812 57.4415793,10.3807969 C57.8003606,10.7847656 57.9797512,11.2740937 57.9797512,11.8487812 C57.9797512,12.4184062 57.828345,12.9218906 57.5255325,13.3592344 C57.22272,13.7965781 56.7885168,14.136375 56.2229231,14.378625 C55.6573293,14.620875 54.983595,14.742 54.20172,14.742 Z" id="Path"></path>
            </g>
            <path d="M103.406317,13.2603495 L108.73965,18.5936829 L108.755498,18.6099374 C108.770184,18.6253892 108.784321,18.6413687 108.797876,18.6578445 L108.73965,18.5936829 C108.774422,18.6284546 108.805711,18.6653904 108.833517,18.7040567 C108.842476,18.7166413 108.851219,18.7295012 108.859627,18.7425962 C108.87117,18.7604303 108.881908,18.7785641 108.891946,18.7969778 C108.919176,18.8470192 108.941762,18.899833 108.959121,18.9549651 C108.963477,18.9690318 108.967445,18.982847 108.971072,18.9967328 C108.990581,19.07337 109,19.1466961 109,19.2222222 C109,19.2914545 108.992085,19.3588382 108.977111,19.4235177 C108.972409,19.4434459 108.967211,19.4628546 108.961345,19.4821035 C108.943823,19.5397647 108.920424,19.5951378 108.891943,19.6473396 C108.882731,19.6643636 108.873007,19.680897 108.862704,19.6971686 C108.852463,19.7132048 108.841634,19.7291438 108.830313,19.7447013 C108.820618,19.75811 108.810738,19.7709168 108.800461,19.7835078 C108.786201,19.8009456 108.771162,19.8180264 108.755498,19.834507 C108.750375,19.8399012 108.745055,19.8453575 108.73965,19.8507616 L103.406317,25.1840949 C103.059184,25.5312276 102.496371,25.5312276 102.149238,25.1840949 C101.802106,24.8369622 101.802106,24.2741489 102.149238,23.9270162 L105.965,20.111 L93.8888889,20.1111111 C93.3979691,20.1111111 93,19.713142 93,19.2222222 C93,18.7313024 93.3979691,18.3333333 93.8888889,18.3333333 L105.965,18.333 L102.149238,14.5174282 C101.802106,14.1702955 101.802106,13.6074822 102.149238,13.2603495 C102.496371,12.9132168 103.059184,12.9132168 103.406317,13.2603495 Z" id="Combined-Shape" fill="#FFFFFF" fill-rule="nonzero"></path>
        </g>
    </g>
</svg>