<?xml version="1.0" encoding="UTF-8"?>
<svg width="181px" height="88px" viewBox="0 0 181 88" version="1.1" xmlns="http://www.w3.org/2000/svg" xmlns:xlink="http://www.w3.org/1999/xlink">
    <title>8-och_koda</title>
    <g id="8-och_koda" stroke="none" stroke-width="1" fill="none" fill-rule="evenodd">
        <g id="Group-6-Copy-14" transform="translate(6.000000, 19.000000)">
            <path d="M147.546827,1.5 C147.848061,6.28499538 149.603213,10.6962034 152.828697,14.7280582 C155.766487,18.4002956 159.945391,21.7636583 165.384746,24.7950511 C159.950552,27.121775 155.773995,30.1430534 152.828697,33.8246762 C149.571737,37.8958756 147.795778,42.7835237 147.533939,48.5 L1.5,48.5 L1.5,1.5 Z" id="Rectangle-8" stroke="#F65546" stroke-width="3"></path>
            <g id="Och-koda" transform="translate(22.401000, 17.230000)" fill="#F65546" fill-rule="nonzero">
                <path d="M0,7.164 C0,6.252 0.174,5.388 0.522,4.572 C0.87,3.756 1.353,3.033 1.971,2.403 C2.589,1.773 3.306,1.278 4.122,0.918 C4.938,0.558 5.814,0.378 6.75,0.378 C7.674,0.378 8.544,0.558 9.36,0.918 C10.176,1.278 10.899,1.773 11.529,2.403 C12.159,3.033 12.651,3.756 13.005,4.572 C13.359,5.388 13.536,6.252 13.536,7.164 C13.536,8.1 13.359,8.976 13.005,9.792 C12.651,10.608 12.159,11.325 11.529,11.943 C10.899,12.561 10.176,13.044 9.36,13.392 C8.544,13.74 7.674,13.914 6.75,13.914 C5.814,13.914 4.938,13.74 4.122,13.392 C3.306,13.044 2.589,12.561 1.971,11.943 C1.353,11.325 0.87,10.608 0.522,9.792 C0.174,8.976 0,8.1 0,7.164 Z M2.7,7.164 C2.7,7.752 2.805,8.301 3.015,8.811 C3.225,9.321 3.519,9.771 3.897,10.161 C4.275,10.551 4.713,10.854 5.211,11.07 C5.709,11.286 6.252,11.394 6.84,11.394 C7.404,11.394 7.929,11.286 8.415,11.07 C8.901,10.854 9.324,10.551 9.684,10.161 C10.044,9.771 10.326,9.321 10.53,8.811 C10.734,8.301 10.836,7.752 10.836,7.164 C10.836,6.564 10.731,6.006 10.521,5.49 C10.311,4.974 10.023,4.521 9.657,4.131 C9.291,3.741 8.862,3.438 8.37,3.222 C7.878,3.006 7.344,2.898 6.768,2.898 C6.192,2.898 5.658,3.006 5.166,3.222 C4.674,3.438 4.242,3.741 3.87,4.131 C3.498,4.521 3.21,4.974 3.006,5.49 C2.802,6.006 2.7,6.564 2.7,7.164 Z" id="Shape"></path>
                <path d="M27.082,12.672 C26.938,12.792 26.671,12.954 26.281,13.158 C25.891,13.362 25.414,13.542 24.85,13.698 C24.286,13.854 23.662,13.926 22.978,13.914 C21.934,13.89 21.001,13.701 20.179,13.347 C19.357,12.993 18.661,12.51 18.091,11.898 C17.521,11.286 17.086,10.584 16.786,9.792 C16.486,9 16.336,8.154 16.336,7.254 C16.336,6.246 16.489,5.322 16.795,4.482 C17.101,3.642 17.539,2.916 18.109,2.304 C18.679,1.692 19.36,1.218 20.152,0.882 C20.944,0.546 21.82,0.378 22.78,0.378 C23.668,0.378 24.454,0.498 25.138,0.738 C25.822,0.978 26.38,1.236 26.812,1.512 L25.786,3.978 C25.486,3.75 25.087,3.513 24.589,3.267 C24.091,3.021 23.518,2.898 22.87,2.898 C22.366,2.898 21.883,3.003 21.421,3.213 C20.959,3.423 20.551,3.72 20.197,4.104 C19.843,4.488 19.564,4.935 19.36,5.445 C19.156,5.955 19.054,6.51 19.054,7.11 C19.054,7.746 19.147,8.328 19.333,8.856 C19.519,9.384 19.786,9.837 20.134,10.215 C20.482,10.593 20.899,10.884 21.385,11.088 C21.871,11.292 22.42,11.394 23.032,11.394 C23.74,11.394 24.346,11.28 24.85,11.052 C25.354,10.824 25.738,10.584 26.002,10.332 L27.082,12.672 Z" id="Path"></path>
                <polygon id="Path" points="41.834 0.522 41.834 13.77 39.224 13.77 39.224 8.388 33.302 8.388 33.302 13.77 30.692 13.77 30.692 0.522 33.302 0.522 33.302 5.868 39.224 5.868 39.224 0.522"></polygon>
                <polygon id="Path" points="55.75 5.238 55.678 5.904 56.074 5.4 60.394 0.522 63.778 0.522 58.306 6.462 63.796 13.77 60.484 13.77 56.398 8.118 55.75 8.766 55.75 13.77 53.104 13.77 53.104 0.522 55.75 0.522"></polygon>
                <path d="M65.156,7.164 C65.156,6.252 65.33,5.388 65.678,4.572 C66.026,3.756 66.509,3.033 67.127,2.403 C67.745,1.773 68.462,1.278 69.278,0.918 C70.094,0.558 70.97,0.378 71.906,0.378 C72.83,0.378 73.7,0.558 74.516,0.918 C75.332,1.278 76.055,1.773 76.685,2.403 C77.315,3.033 77.807,3.756 78.161,4.572 C78.515,5.388 78.692,6.252 78.692,7.164 C78.692,8.1 78.515,8.976 78.161,9.792 C77.807,10.608 77.315,11.325 76.685,11.943 C76.055,12.561 75.332,13.044 74.516,13.392 C73.7,13.74 72.83,13.914 71.906,13.914 C70.97,13.914 70.094,13.74 69.278,13.392 C68.462,13.044 67.745,12.561 67.127,11.943 C66.509,11.325 66.026,10.608 65.678,9.792 C65.33,8.976 65.156,8.1 65.156,7.164 Z M67.856,7.164 C67.856,7.752 67.961,8.301 68.171,8.811 C68.381,9.321 68.675,9.771 69.053,10.161 C69.431,10.551 69.869,10.854 70.367,11.07 C70.865,11.286 71.408,11.394 71.996,11.394 C72.56,11.394 73.085,11.286 73.571,11.07 C74.057,10.854 74.48,10.551 74.84,10.161 C75.2,9.771 75.482,9.321 75.686,8.811 C75.89,8.301 75.992,7.752 75.992,7.164 C75.992,6.564 75.887,6.006 75.677,5.49 C75.467,4.974 75.179,4.521 74.813,4.131 C74.447,3.741 74.018,3.438 73.526,3.222 C73.034,3.006 72.5,2.898 71.924,2.898 C71.348,2.898 70.814,3.006 70.322,3.222 C69.83,3.438 69.398,3.741 69.026,4.131 C68.654,4.521 68.366,4.974 68.162,5.49 C67.958,6.006 67.856,6.564 67.856,7.164 Z" id="Shape"></path>
                <path d="M82.302,13.77 L82.302,0.522 L86.262,0.522 C87.594,0.522 88.728,0.72 89.664,1.116 C90.6,1.512 91.353,2.04 91.923,2.7 C92.493,3.36 92.91,4.098 93.174,4.914 C93.438,5.73 93.57,6.552 93.57,7.38 C93.57,8.364 93.393,9.249 93.039,10.035 C92.685,10.821 92.202,11.493 91.59,12.051 C90.978,12.609 90.27,13.035 89.466,13.329 C88.662,13.623 87.81,13.77 86.91,13.77 L82.302,13.77 Z M84.912,11.25 L86.46,11.25 C87.12,11.25 87.72,11.163 88.26,10.989 C88.8,10.815 89.265,10.56 89.655,10.224 C90.045,9.888 90.345,9.465 90.555,8.955 C90.765,8.445 90.87,7.86 90.87,7.2 C90.87,6.336 90.729,5.631 90.447,5.085 C90.165,4.539 89.817,4.116 89.403,3.816 C88.989,3.516 88.566,3.309 88.134,3.195 C87.702,3.081 87.336,3.024 87.036,3.024 L84.912,3.024 L84.912,11.25 Z" id="Shape"></path>
                <path d="M94.786,13.77 L100.762,0 L100.906,0 L106.882,13.77 L103.858,13.77 L100.042,4.086 L101.932,2.79 L97.36,13.77 L94.786,13.77 Z M98.872,8.982 L102.85,8.982 L103.768,11.178 L98.062,11.178 L98.872,8.982 Z" id="Shape"></path>
            </g>
        </g>
    </g>
</svg>