<?xml version="1.0" encoding="UTF-8"?>
<svg width="231px" height="40px" viewBox="0 0 231 40" version="1.1" xmlns="http://www.w3.org/2000/svg" xmlns:xlink="http://www.w3.org/1999/xlink">
    <title>Group 6</title>
    <g id="Page-1" stroke="none" stroke-width="1" fill="none" fill-rule="evenodd">
        <g id="iPhone-13-mini-Copy-2" transform="translate(-16.000000, -62.000000)" fill="#FFFFFF">
            <g id="Group-6" transform="translate(16.000000, 62.000000)">
                <path d="M56.8289352,29.8952764 C56.2972295,29.6522977 56.1559854,28.6296749 56.1392723,27.5080722 L56.1381114,27.1092109 L56.1381114,27.1092109 L56.144694,26.7087799 L56.144694,26.7087799 L56.1706972,25.9298091 L56.1706972,25.9298091 L56.1912027,25.3909206 L56.1912027,25.3909206 L56.202825,24.9158325 C56.2047173,24.722185 56.2013794,24.5540915 56.1893471,24.4204187 L56.2111135,22.0835903 C56.2195133,20.9149052 56.2200974,19.7460564 56.1944583,18.5781361 C56.0431639,18.3835245 56.006632,18.144208 56,17.90279 L56.0001916,17.6622493 L56.0001916,17.6622493 L56.0187352,16.983199 C56.0297139,16.7341449 56.056224,16.4876506 56.141817,16.2519604 C56.3617699,15.6900484 57.2024309,15.5531507 57.5860447,16.0175306 C58.4554602,14.1992747 59.7134616,12.3063258 61.7851079,11.6970392 C62.8031986,11.3837083 64.1493758,11.4995996 64.8492892,12.3625577 C66.2399904,14.609292 65.5060631,17.2278914 64.1728358,19.6298885 L63.9386965,20.0394278 C63.8588829,20.1751604 63.777397,20.310076 63.6945234,20.4440646 L63.4420243,20.8431402 L63.4420243,20.8431402 L63.1829067,21.2359958 L63.1829067,21.2359958 L62.9188784,21.6219724 L62.9188784,21.6219724 L62.651647,22.0004114 L62.651647,22.0004114 L62.2485296,22.5524955 L62.2485296,22.5524955 L61.7157669,23.256077 L61.7157669,23.256077 L60.8347834,24.3830891 L60.8347834,24.3830891 C61.1414786,24.4414172 61.4493564,24.4951035 61.7577837,24.5467112 L63.1472796,24.7735652 C64.3818861,24.97812 65.6100923,25.2109312 66.7913838,25.6360394 C67.386258,25.8414878 67.9471971,26.0920372 68.5,26.3876874 L68.3370427,26.4021574 L68.3370427,26.4021574 L67.9960164,26.414999 C67.940706,26.4172351 67.8872281,26.4201472 67.8371858,26.4246777 C65.5925604,26.7194116 63.3166422,26.7644786 61.0938174,26.2894767 L60.998443,26.2802713 L60.998443,26.2802713 L60.8030488,26.2541136 C60.7370778,26.2436845 60.6703959,26.2315533 60.6033887,26.2177432 L60.4017768,26.1712999 C60.3008686,26.1455833 60.2000962,26.1161417 60.1007613,26.0830539 L59.9043937,26.0120398 L59.9043937,26.0120398 L59.7141733,25.931442 C58.8133585,25.5189508 58.2090387,24.7755303 59.076968,23.7722075 L59.6051777,23.1746307 L59.6051777,23.1746307 L60.0201397,22.6920583 L60.0201397,22.6920583 L60.3019705,22.3554315 L60.3019705,22.3554315 L60.58561,22.0077864 L60.58561,22.0077864 L60.8690499,21.6499038 C60.9161618,21.589447 60.9631816,21.5285961 61.0100676,21.4673675 L61.2894431,21.0955931 L61.2894431,21.0955931 L61.5635988,20.7155337 C63.0985649,18.5398643 64.2853827,16.0027476 63.479712,13.7436503 C63.1837399,13.2158548 62.4957959,13.3188192 61.9360506,13.5166763 L61.7446635,13.5895759 L61.7446635,13.5895759 L61.5690048,13.6651204 C61.5413214,13.6776407 61.5145051,13.690053 61.4886617,13.7022484 C59.6385677,14.7892178 58.6591409,16.9275918 58.2944767,18.9382986 C58.1005414,20.3940164 58.1187664,21.8638848 58.1713904,23.3341126 L58.2357304,24.9875432 C58.2557651,25.5382524 58.2712629,26.0882848 58.2728499,26.6369133 L58.2688905,26.7088385 L58.2688905,26.7088385 L58.2655515,26.9542983 L58.2655515,26.9542983 L58.2861291,27.8735019 L58.2861291,27.8735019 L58.2853945,28.208409 L58.2853945,28.208409 L58.2781828,28.4311894 L58.2781828,28.4311894 L58.2637482,28.6502135 L58.2637482,28.6502135 L58.2405093,28.8625979 C58.1325314,29.6603284 57.7956331,30.2481616 56.8289352,29.8952764 Z M71.954176,29.9602168 L71.8286699,29.9361698 C68.2536191,29.3858688 69.8504226,23.7941425 72.4231977,22.887351 C73.2961219,22.6182508 74.3214998,23.0977709 74.5952828,23.9518497 C74.8474785,25.282067 74.3298318,27.0941581 72.8616911,27.5377739 C72.7497725,26.9139071 72.7778669,26.2906445 72.8316483,25.6682414 L72.8897576,25.0461343 C72.8994581,24.9425007 72.9088136,24.8388933 72.9172947,24.7353133 C72.0507743,25.3670041 71.3070293,27.1532693 71.7751321,28.1378701 C71.9520065,28.2979047 72.2570962,28.3191273 72.5250828,28.3202438 L72.8361789,28.3199446 L72.8361789,28.3199446 C75.3694634,27.630104 77.5893367,23.8131721 75.2392168,21.8629338 C75.1114836,21.747231 74.9549328,21.6400816 74.8063698,21.5728481 C75.4794311,21.2093623 76.3653697,21.4101348 76.9475373,21.8525902 C78.5105727,23.2343322 77.9210902,25.7117118 76.4891411,27.573119 L76.2976952,27.8122773 C76.199691,27.9299692 76.0983458,28.0447246 75.994023,28.1560688 L75.781515,28.3740683 C74.6641568,29.4754455 73.2547242,30.1787822 71.954176,29.9602168 L71.954176,29.9602168 Z M84.3010109,28.9972194 C83.8104407,28.5042672 83.5518646,27.6456036 84.0500199,27.0645752 C84.3405343,26.743745 84.748897,26.6006 85.1669779,26.4909354 L85.6357167,26.3740828 C85.7382576,26.3478745 85.8388716,26.3203789 85.9358692,26.2893429 C85.8660242,26.380457 85.7835011,26.4678177 85.6952792,26.5541014 L85.4204963,26.812398 C85.1888956,27.0294135 84.9652977,27.2564254 84.8587535,27.5352532 C85.1106984,27.7615166 85.4369468,27.8316179 85.7715167,27.8678943 L86.2010694,27.9055273 C86.2952361,27.9140283 86.3877737,27.9240482 86.4771433,27.9384402 C88.5765707,28.1331016 88.8010063,25.8516794 88.2990742,24.1950441 L88.2225524,23.962967 C88.1548732,23.7736694 88.0776749,23.5953191 87.9928953,23.433148 C86.700254,21.3910331 84.5979224,21.1359887 83.7183605,23.6910426 C83.5431325,24.187951 83.4552918,24.7020944 83.3852594,25.2210851 L83.3053153,25.845408 L83.3053153,25.845408 C83.2492814,26.2137585 82.9970262,26.5244356 82.6433632,26.6233498 C82.0213866,26.8111494 81.4559906,26.2551751 81.4528814,25.6172122 L81.2966277,23.8928192 L81.2966277,23.8928192 L80.9677613,20.4450718 C80.7485747,18.1464719 80.5392745,15.8469185 80.3984868,13.5419072 C80.2243716,12.7037935 81.0503596,11.6804841 81.8171361,12.3941721 C82.1258352,12.6869032 82.1897276,13.1077546 82.1886342,13.5207943 C82.3690703,16.2113229 82.5647449,18.9000218 82.8236285,21.5841814 C85.1699469,18.1765866 89.5999416,20.7822061 90.1494158,24.2564826 C90.6051357,25.8703212 90.4122628,27.8641226 89.1844363,29.0672792 C87.8636756,30.3520021 85.5849738,30.2915135 84.3010109,28.9972194 Z M94.7865222,28.1538462 C93.6168971,27.1220175 93.306503,25.6207229 93.1549556,24.1253469 L93.1135564,23.6773871 L93.1135564,23.6773871 L93.0241781,22.5777594 L93.0241781,22.5777594 L92.9830436,22.1535043 L92.9830436,22.1535043 C92.509083,21.286623 93.6988909,20.3479268 94.527186,20.9714849 C95.1415517,21.4807534 95.2661969,22.2556584 95.3153811,23.019327 L95.3487209,23.6646907 C95.3544181,23.7696402 95.3609909,23.8727459 95.3696469,23.9732006 C95.3999225,24.5834993 95.2974937,25.1671221 95.1704119,25.7419901 L95.0129957,26.4287764 C94.909383,26.8853617 94.8176535,27.3409318 94.7931297,27.8046623 L94.7865222,28.1538462 L94.7865222,28.1538462 Z M97.875,18.3076923 C96.8786608,17.2208082 95.5125707,16.8908174 94.4229849,16.0306113 C93.9616959,15.5345228 94.0028116,14.5300092 94.7808119,14.6211976 C96.2711946,14.992183 97.4904895,16.6397632 97.875,18.3076923 Z M101.587061,28.0026878 C101.283245,27.8487143 101.105483,27.5717768 100.952457,27.2935268 L100.824986,27.0575427 L100.824986,27.0575427 C100.485073,26.4991649 100.084388,25.9470466 99.4811537,25.5775002 C98.5957442,24.9709338 99.5228975,23.7808919 100.500447,24.2636772 C101.302782,24.6796153 101.872269,25.2954961 102.364819,25.9613325 L102.746364,25.4817666 L102.746364,25.4817666 L103.009039,25.157937 C103.898392,24.0788172 104.936208,23.0260337 106.445162,22.6960625 C108.61317,22.2023649 110.504945,24.0627716 110.367998,25.8708114 L110.355496,25.9939774 C110.322163,26.3685553 110.227162,26.761672 110.064668,27.0983638 C109.848849,26.8017443 109.634408,26.5161463 109.40935,26.227733 L109.130038,25.9258078 L109.130038,25.9258078 L108.818689,25.5829279 L108.818689,25.5829279 L108.652039,25.4055312 C108.623689,25.3759475 108.595057,25.3464072 108.566152,25.3169888 L108.389513,25.1425664 C107.670402,24.4557369 106.803934,23.9293117 105.909766,24.6463115 C105.146175,25.2135843 104.580583,25.9380019 104.075349,26.6853308 L103.967693,26.8557229 C103.94876,26.8847025 103.929335,26.9139125 103.909423,26.943263 L103.784159,27.120333 C103.281925,27.8000492 102.52797,28.4589443 101.587061,28.0026878 Z M123.237696,29.7691638 C122.721964,29.210655 122.543191,28.4568058 122.410917,27.7021622 L122.307177,27.0884956 C122.28381,26.9538398 122.259362,26.8209118 122.232087,26.6908808 C121.979285,25.2212497 121.931173,23.7361199 121.903359,22.2494268 L121.88019,20.9750606 C121.862324,20.1256612 121.833883,19.2770514 121.760464,18.4318314 C121.686229,17.1855643 121.643242,15.9353302 121.625,14.6877519 C121.627001,14.273058 121.936747,13.8995477 122.355812,13.8420251 C122.874257,13.7695419 123.35335,14.2125769 123.32377,14.7446694 C124.178941,13.1866842 125.39805,11.765496 127.145776,11.2470865 C128.913545,10.6044202 130.503964,10.8112124 131.076134,12.8439356 C131.332095,14.0977737 130.992169,15.3687604 130.528763,16.5529803 L130.35012,16.9927926 L130.35012,16.9927926 L130.165437,17.4232527 L130.165437,17.4232527 C129.822053,18.1998695 129.438331,18.9577156 129.043789,19.7104465 L128.249024,21.2131343 C127.721224,22.2157743 127.209173,23.2255052 126.782838,24.274696 C126.5969,24.834464 127.363843,25.1384454 128.399978,25.3237429 L128.718211,25.3759087 L128.718211,25.3759087 L129.048493,25.4217761 L129.048493,25.4217761 L129.557535,25.4805672 L129.557535,25.4805672 L130.240145,25.5445885 L130.240145,25.5445885 L131.495624,25.6480524 L131.495624,25.6480524 L131.762702,25.6735963 L131.762702,25.6735963 L132.002859,25.7006567 L132.002859,25.7006567 L132.211993,25.7300562 C132.340163,25.7506183 132.444917,25.7732882 132.520784,25.7991627 C133.461762,25.955526 134.445094,26.0729582 135.375,26.1603347 C134.597266,26.5096392 133.800022,26.8169531 132.96366,26.9851504 L132.781364,27.0174732 L132.781364,27.0174732 L132.402423,27.0798557 L132.402423,27.0798557 L132.006583,27.1377197 L132.006583,27.1377197 L131.596526,27.1892643 L131.596526,27.1892643 L131.174935,27.2326885 C129.042614,27.426507 126.578339,27.2482731 125.290833,25.6849244 C124.782639,24.9875015 124.863754,24.0894018 125.223235,23.3489218 L125.289499,23.219958 C125.83499,22.1507301 126.388719,21.0867468 126.946649,20.0235031 L127.066192,19.7823916 L127.066192,19.7823916 L127.786674,18.3988555 L127.786674,18.3988555 L127.968119,18.041795 L127.968119,18.041795 L128.150333,17.6727799 C128.180587,17.6104372 128.210738,17.5477133 128.24072,17.484667 L128.418036,17.1029856 C129.143889,15.5004176 129.679677,13.769366 128.975041,12.8239993 C125.979192,12.5794862 124.027102,15.5699893 123.43759,18.1980429 C123.525657,20.3846163 123.831758,22.5506904 124.182547,24.7080371 L124.541812,26.8629107 L124.541812,26.8629107 C124.545188,26.9269865 124.551977,26.9959864 124.56124,27.0690013 L124.595516,27.2991819 L124.595516,27.2991819 L124.709219,27.9442304 C124.837499,28.7090869 124.907303,29.5341314 124.342418,29.8610454 C123.990418,30.0639378 123.543207,30.0539865 123.237696,29.7691638 Z M147.685189,28.9329934 C146.455977,27.9941741 145.819706,26.6550573 145.320502,25.2889339 L145.080212,24.6053498 C145.054313,24.52953 145.028603,24.4538189 145.003003,24.3782805 L144.402115,25.4935594 C143.66474,26.8417827 142.828622,28.180586 141.461499,29.0237699 C139.923886,29.8528038 138.236279,28.8447358 137.64557,27.4470168 C137.2425,26.416934 137.228697,25.2940601 137.261204,24.2002704 L137.279729,23.6563635 L137.279729,23.6563635 C137.239157,22.9719714 137.873433,22.2316796 138.656379,22.5336543 C139.093612,22.7011597 139.290446,23.1607904 139.186735,23.5740802 C139.168417,24.1676958 139.174094,24.7633459 139.208641,25.233149 C139.396061,27.7129866 140.159121,27.9390757 141.034008,27.228062 L141.166022,27.1145462 C141.188145,27.0945104 141.210323,27.07393 141.232549,27.0528257 L141.366427,26.9200767 L141.366427,26.9200767 L141.501113,26.7757398 L141.501113,26.7757398 L141.636258,26.6208026 L141.636258,26.6208026 L141.771516,26.4562525 L141.771516,26.4562525 L141.973851,26.1935634 L141.973851,26.1935634 L142.174482,25.9147999 L142.174482,25.9147999 L142.306709,25.7216732 L142.306709,25.7216732 L142.501889,25.4235253 L142.501889,25.4235253 L142.629396,25.2205616 L142.629396,25.2205616 L142.876571,24.8090013 L142.876571,24.8090013 L143.110975,24.396514 L143.110975,24.396514 L143.329826,23.9909995 L143.329826,23.9909995 L143.577278,23.5059469 L143.577278,23.5059469 L143.790645,23.0595623 L143.790645,23.0595623 L143.96449,22.6672751 L143.96449,22.6672751 L144.047567,22.4642883 L144.047567,22.4642883 C144.255788,21.7274841 144.979252,21.0971187 145.811998,21.5219049 C146.246682,21.8040968 146.462844,22.2491516 146.641747,22.7122818 L146.814945,23.1760747 C146.873014,23.3291057 146.933656,23.4787826 147.003585,23.6197429 C147.287796,24.3759553 147.600598,25.1262581 147.857819,25.8903824 C148.058082,26.4289541 148.13132,26.9900988 148.18759,27.5529146 L148.254011,28.2277581 C148.290193,28.5642432 148.336115,28.8983201 148.415548,29.225474 C148.438638,29.2797913 148.490319,29.3362077 148.5,29.3846154 C148.181695,29.2963255 147.938161,29.1247511 147.685189,28.9329934 Z M165.628012,29.8703037 C165.168398,29.6901806 164.78033,29.3989671 164.533959,28.9574489 C164.48893,28.8760381 164.453497,28.7909867 164.425863,28.7034042 C161.653504,29.1449666 160.383585,27.876388 159.578412,25.9258192 L159.460992,25.6282474 C159.44196,25.5778425 159.423186,25.5270435 159.404653,25.4758664 L159.296231,25.1643957 L159.296231,25.1643957 L159.192834,24.844623 L159.192834,24.844623 L159.045459,24.3510843 L159.045459,24.3510843 L158.905013,23.8432035 L158.905013,23.8432035 L158.813936,23.4979336 L158.813936,23.4979336 C158.024204,24.3185661 157.428109,25.3397541 156.922704,26.3559119 L156.436406,27.3791501 L156.436406,27.3791501 L156.288974,27.6769872 L156.288974,27.6769872 L156.184714,27.8780733 L156.184714,27.8780733 L156.075715,28.0786455 L156.075715,28.0786455 L155.962008,28.2765299 L155.962008,28.2765299 L155.843626,28.4695526 L155.843626,28.4695526 L155.7206,28.6555397 L155.7206,28.6555397 L155.592962,28.8323172 C154.964955,29.6609831 154.176478,30.0907534 153.243816,29.0170507 C152.894818,28.2942416 152.667199,27.5200686 152.456541,26.7379309 L152.20521,25.7983201 C152.034172,25.1730676 151.847259,24.5538278 151.591006,23.9628211 C150.359934,23.0972594 151.221586,21.1187139 152.624127,22.0540364 C153.444655,22.8953329 153.830138,24.0186547 154.160476,25.144911 L154.38503,25.9216659 C154.460058,26.1784538 154.536817,26.4319682 154.619978,26.6787791 L154.765097,26.4407978 L154.765097,26.4407978 L154.98765,26.0519852 L154.98765,26.0519852 L155.59687,24.9654792 L155.59687,24.9654792 L155.829336,24.5649812 L155.829336,24.5649812 L155.99151,24.29385 L155.99151,24.29385 L156.159053,24.0220185 L156.159053,24.0220185 L156.331633,23.7517203 L156.331633,23.7517203 L156.599222,23.3540337 L156.599222,23.3540337 L156.782943,23.0973404 L156.782943,23.0973404 L156.970539,22.8499977 L156.970539,22.8499977 L157.161679,22.6142391 C158.093546,21.5063329 159.137933,20.8826213 160.126114,21.87797 C160.356497,22.1791054 160.537851,22.5381778 160.694619,22.9253014 L160.795757,23.1872115 L160.795757,23.1872115 L160.891219,23.4554653 L160.891219,23.4554653 L161.027291,23.8654359 L161.027291,23.8654359 L161.293716,24.688349 L161.293716,24.688349 L161.386731,24.9563187 C161.402587,25.0004977 161.418643,25.0444081 161.434932,25.0880089 L161.535729,25.3455703 C162.02166,26.5271234 162.742781,27.4016538 164.435119,27.0692249 C164.781478,25.0301546 166.735901,21.9826074 168.872634,21.5816721 L169.029285,21.5571116 C170.117675,21.3692913 171.144863,22.2865495 170.973733,23.4315706 C170.426571,25.778233 168.231447,27.2924111 166.176259,28.1870629 C167.364509,28.5451064 168.558645,27.5125049 169.422781,26.4577083 L169.623666,26.2048316 C169.656033,26.162848 169.68783,26.121004 169.719034,26.0793873 L169.898976,25.8331145 L169.898976,25.8331145 L170.13997,25.4831265 C170.164711,25.4459716 170.188753,25.4094819 170.212073,25.3737448 C171.316535,23.6971959 171.793238,21.6982283 171.977693,19.7083102 L172.016598,19.3575905 L172.016598,19.3575905 L172.143208,18.3033312 C172.236975,17.4823069 172.301419,16.6591599 172.208161,15.8360972 C172.108881,14.1667254 172.145399,12.4938517 172.204058,10.8234744 C172.219752,10.6476405 172.232399,10.4691883 172.243747,10.2890101 L172.291928,9.46956936 C172.360179,8.36947879 172.475881,7.25543819 173.016036,6.3201891 C173.4924,5.67205802 174.5381,6.08233647 174.510161,6.88628529 C174.344931,8.28954644 174.215676,9.70244653 174.10758,11.1119834 C173.687909,14.4243759 174.087405,17.7425935 174.565769,21.0247864 C174.82699,23.0692788 175.181762,25.1439362 175.375,27.176432 C174.464284,25.4696487 173.722495,23.6599577 173.180588,21.7957271 C173.113919,22.2505989 172.998305,22.7514655 172.838338,23.2746103 L172.725172,23.6264138 C172.685294,23.7446082 172.643275,23.8636426 172.599167,23.9832566 L172.460625,24.3435772 C172.38827,24.5243466 172.311327,24.7058347 172.229966,24.8871629 L172.061403,25.2493461 L172.061403,25.2493461 L171.881362,25.6095415 L171.881362,25.6095415 L171.690143,25.9661876 L171.690143,25.9661876 L171.488049,26.3177228 L171.488049,26.3177228 L171.275383,26.6625855 C169.895658,28.8222899 167.898015,30.4865782 165.628012,29.8703037 Z M166.840476,26.5285671 L166.625,26.9230769 L166.625,26.9230769 L166.916101,26.7332975 C167.891172,26.0767016 168.887556,25.1741447 169.125,23.8461538 C168.22633,24.2296606 167.598619,25.1768877 167.06428,26.1242095 L166.840476,26.5285671 L166.840476,26.5285671 Z M179.719491,29.6998139 C179.479507,29.4755165 179.398631,29.1618574 179.349712,28.8486346 L179.294418,28.4532285 L179.294418,28.4532285 C179.089016,26.9804218 178.960217,25.499912 178.834486,24.0205027 C178.539915,19.8989162 178.504532,15.7679765 178.500524,11.6384593 L178.5,8.88577692 L178.5,8.88577692 C178.647084,7.4042055 180.178714,7.58081538 180.223769,8.9427495 L180.223713,10.0655158 L180.223713,10.0655158 L180.216621,13.0955093 C180.210692,17.4804353 180.259187,21.8915248 180.826631,26.2030858 C181.145989,25.4807045 181.500098,24.7745296 181.855742,24.0674877 C182.091862,22.7580779 182.668819,21.5099253 183.520073,20.4475116 C183.957634,19.8934626 184.702887,19.2038608 185.480999,19.6255916 C185.839176,19.8209677 186.041294,20.2091522 185.984137,20.5921012 C185.952859,20.8325652 185.842747,21.0143747 185.710524,21.1853764 L185.460896,21.4918418 C185.433229,21.5268932 185.406039,21.5626606 185.379779,21.5995268 L185.287523,21.751129 L185.287523,21.751129 L185.091837,22.055231 L185.091837,22.055231 L184.682012,22.6704335 C184.173101,23.4477035 183.723705,24.2620619 183.861124,25.1819882 C184.296294,26.8642432 187.909492,27.4632097 189.478419,27.1279792 C190.004819,27.0339093 190.529971,26.8338981 191,26.6374216 C189.099763,29.1327931 184.608695,29.3597481 182.514795,26.977654 C182.490619,27.021359 182.466725,27.0685183 182.442994,27.1186634 L182.372169,27.277587 L182.372169,27.277587 L182.266184,27.5434109 L182.266184,27.5434109 L181.967855,28.3462293 L181.967855,28.3462293 L181.8858,28.5530562 L181.8858,28.5530562 L181.799313,28.7567082 L181.799313,28.7567082 L181.707674,28.9543735 C181.298367,29.7938899 180.723633,30.3855773 179.719491,29.6998139 Z M193.417056,28.1127654 C192.957658,27.3294861 192.748674,26.461876 192.589049,25.5780577 L192.453285,24.7800842 L192.453285,24.7800842 L192.37094,24.5054741 C192.264091,24.13685 192.185027,23.7598122 192.325785,23.3923098 C192.582424,22.7085014 193.514626,22.590994 193.931942,23.1737446 C194.023137,23.2621773 194.099766,23.4211282 194.16788,23.6264459 L194.233381,23.8463248 L194.233381,23.8463248 L194.29455,24.091748 L194.29455,24.091748 L194.352732,24.3573485 L194.352732,24.3573485 L194.552265,25.3683621 L194.552265,25.3683621 L194.613648,25.658345 C194.82486,26.6123683 195.109559,27.4107117 195.691865,27.1588854 C196.39893,26.6945916 196.812196,25.9603347 197.170373,25.1891296 L197.550736,24.3443619 C197.646102,24.1351079 197.743827,23.9294081 197.848754,23.7319893 C198.200446,23.077276 198.605353,22.4549063 199.079102,21.8913932 L199.378074,21.5519499 L199.378074,21.5519499 L199.450527,21.4836595 C199.567105,21.3843664 199.709716,21.315694 199.75,21.500123 C199.748489,21.5167413 199.706921,21.4799991 199.702678,21.4825947 L199.691458,21.480471 L199.691458,21.480471 C199.739166,23.2130823 199.663875,25.0317174 198.764142,26.5628873 L198.65573,26.7940812 C198.560235,26.9858104 198.452116,27.1748064 198.333247,27.3580519 L198.185563,27.574993 C198.160129,27.6106254 198.134296,27.6459796 198.108077,27.6810313 L197.946263,27.8875189 C197.890865,27.9550096 197.834047,28.0210974 197.775929,28.0855892 L197.597795,28.2740835 C196.355535,29.52677 194.617362,30.0275753 193.417056,28.1127654 Z M205.128137,29.3623375 C202.588673,28.4691315 202.107609,26.1808736 202.282072,24.5492272 C202.486623,23.6721921 204.533841,23.5926167 204.940335,24.4409035 C205.257217,25.088318 205.337252,25.7752004 205.398632,26.4477391 C205.460966,27.2153846 205.354854,27.9841874 205.390308,28.7506147 C205.364382,29.0053292 205.547871,29.2213979 206,29.2444818 C205.756735,29.3484811 205.431228,29.424128 205.128137,29.3623375 Z M207.875,19.5384615 C206.573494,18.7300823 205.15293,18.24943 203.843118,17.4759198 C203.193169,16.9808633 203.535441,15.7460448 204.294435,15.8526443 C205.822437,16.3601955 206.994971,18.0070906 207.875,19.5384615 Z M212.630668,29.3563896 C212.921573,29.1757365 213.130389,28.8246182 213.29366,28.5094707 L213.423304,28.2529683 L213.423304,28.2529683 C213.778713,27.5118479 214.139298,26.7680206 214.418032,25.9939323 C214.505882,25.7312294 214.546396,25.4038747 214.412788,25.1663663 C214.355718,25.0784979 214.281544,25.0022551 214.193181,24.9466607 L214.26828,24.984973 L214.26828,24.984973 C214.275306,24.9931282 214.28247,25.0013529 214.308314,25.0049967 C213.710364,24.7259478 212.910901,24.886857 212.071765,25.1359703 L211.710178,25.2471079 L211.710178,25.2471079 L211.164882,25.4206052 L211.164882,25.4206052 L210.803535,25.531824 L210.803535,25.531824 L210.44724,25.6323074 C209.506369,25.8804796 208.649568,25.9485067 208.118418,25.3113214 C207.577609,24.531264 208.031296,23.620291 208.571805,22.810281 L208.817832,22.4533741 L208.817832,22.4533741 L209.132331,22.0068162 L209.132331,22.0068162 L209.271526,21.7992325 C209.293269,21.7656231 209.314207,21.732527 209.334228,21.6999731 L209.484146,21.508236 L209.484146,21.508236 L209.924703,20.9127324 C210.269554,20.4477895 210.632761,19.9963199 211.106956,19.6816034 C211.992857,19.1516169 213.027243,20.1994437 212.4961,21.0904817 L212.499459,21.091384 C212.332454,21.3553361 212.149914,21.608966 211.962869,21.8597464 L211.399248,22.6110117 C211.214221,22.8635657 211.035719,23.1207431 210.874769,23.3900163 L211.398164,23.2561841 L211.398164,23.2561841 L211.669624,23.1924088 L211.669624,23.1924088 L211.945885,23.1325127 L211.945885,23.1325127 L212.225667,23.0778346 L212.225667,23.0778346 L212.507688,23.0297134 L212.507688,23.0297134 L212.790669,22.9894881 C212.837841,22.9835162 212.885,22.9779292 212.932119,22.9727548 L213.214138,22.9468836 C214.760249,22.8342835 216.204624,23.2318387 216.588501,25.14197 C216.932256,27.2971742 214.789174,29.6710083 212.630668,29.3563896 Z M224.968124,16.2938853 C225.252272,17.8435781 225.076244,19.3886452 224.828991,20.9348848 L224.59186,22.3626848 L224.59186,22.3626848 C225.12345,22.3938085 225.656101,22.4354225 226.188785,22.4799135 L227.070317,22.5549151 C228.391951,22.6675475 229.70901,22.7721882 231,22.7530642 C228.853652,23.2149167 226.63371,23.4326522 224.407082,23.5941529 C224.279801,24.5741409 224.213085,25.5568071 224.30574,26.5427443 L224.333343,26.793228 C224.362458,27.0557709 224.405191,27.3419591 224.543262,27.5390016 C225.199521,28.4430295 226.449645,28.9790328 227.666667,29.2311003 C226.687613,29.4439529 225.59485,29.4399156 224.600178,29.1910581 C222.392372,28.5857195 221.820183,26.8403535 221.833561,24.8025213 L221.841033,24.4603199 L221.841033,24.4603199 L221.858268,24.1135744 C221.86552,23.9973321 221.87422,23.8804778 221.884186,23.7631568 C221.319922,23.8002771 220.756346,23.8382914 220.19507,23.8803419 L219.854409,23.8633148 L219.854409,23.8633148 L219.600707,23.8433515 L219.600707,23.8433515 L219.35661,23.8157872 L219.35661,23.8157872 L219.202798,23.7925504 L219.202798,23.7925504 L219.058631,23.7649783 L219.058631,23.7649783 L218.926261,23.7326883 L218.926261,23.7326883 L218.807838,23.6952975 C218.364907,23.5350222 218.308328,23.2431411 219.257549,22.7094077 C220.172353,22.4770568 221.107599,22.3636848 222.054943,22.3243409 L222.154895,21.6710769 L222.154895,21.6710769 L222.360553,20.3935377 C222.540242,19.2501672 222.673009,18.2013097 222.572093,17.3980912 C221.871732,17.3355345 221.972975,16.722434 222.209844,16.214604 L222.284307,16.0660689 L222.284307,16.0660689 L222.362912,15.9277849 L222.362912,15.9277849 L222.441663,15.803687 L222.441663,15.803687 L222.516564,15.6977099 C222.528505,15.6817757 222.540119,15.6667605 222.551322,15.6527463 C223.312772,14.8123558 224.826341,15.331879 224.968124,16.2938853 Z" id="Shape"></path>
                <path d="M20,0 C31.045695,0 40,8.954305 40,20 C40,31.045695 31.045695,40 20,40 C8.954305,40 0,31.045695 0,20 C0,8.954305 8.954305,0 20,0 Z M20,3 C10.6111593,3 3,10.6111593 3,20 C3,29.3888407 10.6111593,37 20,37 C24.1172952,37 27.8927259,35.536304 30.8343346,33.1008696 C30.5047812,32.9494043 29.9139587,32.6726756 29.8249113,32.5853703 C29.7369167,32.4996786 28.6200922,32.3290534 28.5108846,32.2319867 C28.0771968,31.8482697 27.5979404,31.9059031 27.1638599,31.5221861 C26.8594142,31.4273943 26.5074358,31.3735526 26.1476006,31.3599026 C24.6571919,31.3037859 23.0693605,31.7022904 21.5714879,31.8183155 C21.1994749,31.846753 20.7390745,32.032924 20.5300873,31.7341404 C20.3246356,31.4395277 20.8050705,31.1763858 20.9523829,31.1657691 C21.2140098,31.1471899 21.8995035,31.1354357 22.157202,31.063394 C23.6338616,30.6504811 24.0608712,30.5405227 25.5426377,30.1496015 C25.6129548,30.1306432 24.3001066,29.3586592 24.1382593,29.2725883 C23.1589264,28.7466837 22.1198829,28.2082665 21.0305567,27.8408537 C20.5952976,27.6941161 20.1486464,27.5788493 19.702388,27.4639617 C19.104496,27.3096408 18.4979617,27.1541823 17.8788568,27.1530448 C17.3178911,27.1515281 16.9003095,27.0802447 16.3542715,27.205749 C15.9755804,27.2921991 15.3611894,27.0408114 14.969142,26.9949322 C14.6218775,26.953603 14.1410498,26.8053487 14.0939099,26.7643986 C13.6877204,26.4644776 13.7721796,26.4720609 13.9340268,26.1986815 C14.4046408,26.1368773 15.1011339,26.1091981 15.56232,26.220294 C16.2497779,26.3871275 16.9749478,26.4045692 17.6694767,26.2714816 C18.0964863,26.1895815 18.629168,26.1516648 18.6134547,25.609456 C18.6071693,25.3830933 18.5030686,25.1707598 18.4005391,24.9663888 C18.2917243,24.7495052 18.2265141,24.4795383 18.1180921,24.2618965 C17.9853145,23.9972379 18.010063,23.7507794 17.8596079,23.4944625 C17.786541,23.3697166 17.7174024,23.2195664 17.6722266,23.0826872 C17.6396214,22.9818287 17.6431569,22.5435117 17.6298006,22.4384824 C17.5555551,21.8591153 17.278215,21.9281237 17.2597518,21.3449648 C17.2589661,21.3115981 17.0676564,20.8823811 17.1089039,20.8691103 C17.1089039,20.8691103 17.3131771,20.6893851 17.6239081,20.6002809 C17.6824402,20.5839767 17.9538879,21.2824023 17.9806005,21.4287607 C18.0269548,21.6809068 18.4036818,22.1666197 18.4783201,22.4126991 C18.6802363,23.0826872 18.864475,23.1376664 19.0298577,23.8167544 C19.1810985,24.4359341 19.6167504,25.5829143 20.1105416,26.0360189 C20.5069102,26.39964 21.1134445,26.4185983 21.60645,26.6479944 C21.9674636,26.8163445 22.4494699,26.8686696 22.8222685,27.0131322 C23.1624619,27.1454615 23.4178034,27.1530448 23.7666392,27.2626241 C24.0479077,27.3502116 24.3818159,27.4647201 24.6658342,27.5435868 C25.0893083,27.6599911 25.2519412,27.6933578 25.6616661,27.9007621 C26.0175729,28.0812456 26.4379043,28.4482793 26.7808476,28.6507544 C27.0373676,28.8020421 27.3535982,29.0940006 27.6211176,29.2267091 C27.9432407,29.3874759 28.3443233,30.0028639 28.4955641,30.0127223 C29.0722431,30.0498806 30.0629681,30.4703768 30.7311772,30.8101104 C31.3406791,31.1197226 32.3018064,30.9390994 33.1967346,30.7165043 C35.5749378,27.7923478 37,24.0625945 37,20 C37,10.6111593 29.3888407,3 20,3 Z" id="Oval-3" fill-rule="nonzero"></path>
            </g>
        </g>
    </g>
</svg>