<svg xmlns="http://www.w3.org/2000/svg" width="60" height="60" viewBox="0 0 60 60">
  <path fill="#FFF" d="M48.3086525,49.844409 C53.652928,44.9112689 57,37.8465098 57,30 C57,15.0883118 44.9116882,3 30,3 C15.0883118,3 3,15.0883118 3,30 C3,44.9116882 15.0883118,57 30,57 C35.2996725,57 40.2427189,55.4731018 44.4132198,52.8352246 C44.0432938,52.6546758 43.6271265,52.4417335 43.5473143,52.360541 C43.4418604,52.2539863 42.1034438,52.0418197 41.972568,51.9211206 C41.4528311,51.4439816 40.8784842,51.5156467 40.3582765,51.0385078 C39.993425,50.9206375 39.5716095,50.8536871 39.1403785,50.8367138 C37.3542537,50.7669346 35.4513765,51.2624613 33.6563069,51.4067346 C33.2104819,51.4420957 32.6587322,51.6735929 32.4082793,51.3020657 C32.1620633,50.9357249 32.7378226,50.6085169 32.9143637,50.5953154 C33.2279006,50.5722129 34.049405,50.557597 34.3582342,50.4680155 C36.1278818,49.9545725 36.6396155,49.817843 38.4153832,49.3317459 C38.4996522,49.3081718 36.9263182,48.3482361 36.7323584,48.2412099 C35.5587134,47.5872655 34.3135104,46.9177622 33.0080481,46.4608969 C32.4864281,46.2784337 31.9511556,46.1351034 31.4163539,45.9922446 C30.6998325,45.8003517 29.9729541,45.6070445 29.2310109,45.60563 C28.5587425,45.6037441 28.0583074,45.5151056 27.4039286,45.6711659 C26.9501003,45.7786636 26.2138064,45.4660716 25.7439718,45.4090224 C25.3278056,45.3576309 24.7515756,45.1732818 24.6950825,45.1223618 C24.2082999,44.7494202 24.3095168,44.7588498 24.5034766,44.4189119 C25.0674664,44.3420604 25.9021526,44.3076423 26.4548438,44.4457863 C27.2787021,44.653238 28.1477549,44.6749261 28.9800872,44.5094362 C29.4918209,44.4075963 30.1301934,44.3604482 30.1113623,43.6862301 C30.1038299,43.4047558 29.9790742,43.1407264 29.8562016,42.886598 C29.7257966,42.6169107 29.6476478,42.2812161 29.5177136,42.0105859 C29.3585912,41.6814921 29.3882501,41.3750293 29.2079428,41.056308 C29.1203785,40.9011907 29.0375219,40.7144841 28.9833826,40.5442794 C28.9443082,40.4188654 28.9485452,39.8738332 28.9325388,39.7432329 C28.8435621,39.0228096 28.5111941,39.1086192 28.4890676,38.3834811 C28.4881261,38.3419908 28.2588581,37.8082741 28.3082896,37.7917723 C28.3082896,37.7917723 28.5530932,37.5682902 28.9254771,37.4574921 C28.9956228,37.4372184 29.3209291,38.3056867 29.3529419,38.4876785 C29.4084935,38.8012135 29.8599678,39.4051809 29.9494153,39.7111722 C30.1913943,40.5442794 30.4121883,40.6126442 30.6103851,41.457067 C30.7916339,42.2269958 31.3137247,43.6532264 31.9054903,44.2166464 C32.3805035,44.6687969 33.1073819,44.6923709 33.698206,44.9776171 C34.1308493,45.1869547 34.7084917,45.2520191 35.1552582,45.4316535 C35.5629504,45.5962004 35.8689549,45.60563 36.2870042,45.7418881 C36.6240799,45.8508002 37.0242396,45.9931876 37.3646108,46.0912556 C37.8721075,46.2360004 38.0670089,46.2774907 38.5580284,46.5353909 C38.9845516,46.759816 39.4882821,47.2162098 39.8992697,47.4679807 C40.2066866,47.6561017 40.5856614,48.0191422 40.90626,48.1841606 C41.2922964,48.3840687 41.7729589,49.1492826 41.9542077,49.1615411 C42.6453071,49.2077463 43.8326047,49.7306189 44.6333949,50.1530661 C45.5316282,50.6265002 47.0671002,50.1780979 48.3086525,49.844409 Z M30,60 C13.4314575,60 0,46.5685425 0,30 C0,13.4314575 13.4314575,0 30,0 C46.5685425,0 60,13.4314575 60,30 C60,46.5685425 46.5685425,60 30,60 Z"/>
</svg>
