<svg xmlns="http://www.w3.org/2000/svg" width="120" height="71" viewBox="0 0 120 71">
  <path fill="#B8BEC7" d="M120,50.51196 L120,56.2905 C116.155077,56.2905 112.615385,59.51802 112.615385,63.31872 C112.615385,68.68398 115.768615,78 97.8461538,78 L97.8461538,73.07508 C109.949538,73.07508 107.608615,69.13908 107.608615,63.31626 C107.608615,58.16502 110.589538,54.70626 113.216,53.4 C110.589538,52.09374 107.608615,49.86252 107.608615,45.25248 C107.608615,39.41736 109.922462,33.71016 97.8461538,33.72492 L97.8461538,28.8 C115.778462,28.8 112.615385,39.88476 112.615385,45.25248 C112.615385,49.05072 116.155077,50.51196 120,50.51196 Z M7.38461538,45.25248 C7.38461538,39.88476 4.22153846,28.8 22.1538462,28.8 L22.1538462,33.72492 C10.0775385,33.7077 12.3913846,39.4149 12.3913846,45.25248 C12.3913846,49.86498 9.41046154,52.09374 6.784,53.4 C9.41046154,54.70626 12.3913846,58.16748 12.3913846,63.31626 C12.3913846,69.13908 10.0504615,73.07508 22.1538462,73.07508 L22.1538462,78 C4.23138462,78 7.38461538,68.68398 7.38461538,63.31626 C7.38461538,59.51556 3.84492308,56.28804 0,56.28804 L0,50.5095 C3.84492308,50.51196 7.38461538,49.05072 7.38461538,45.25248 Z M67.2,68.0883117 C68.0662154,68.0883117 68.7692308,68.7062026 68.7692308,69.4675325 C68.7692308,70.2288623 68.0662154,70.8467532 67.2,70.8467532 L54.6461538,70.8467532 C53.7799385,70.8467532 53.0769231,70.2288623 53.0769231,69.4675325 C53.0769231,68.7062026 53.7799385,68.0883117 54.6461538,68.0883117 L67.2,68.0883117 Z M67.2,74.5246753 C68.0662154,74.5246753 68.7692308,75.1425662 68.7692308,75.9038961 C68.7692308,76.665226 68.0662154,77.2831169 67.2,77.2831169 L54.6461538,77.2831169 C53.7799385,77.2831169 53.0769231,76.665226 53.0769231,75.9038961 C53.0769231,75.1425662 53.7799385,74.5246753 54.6461538,74.5246753 L67.2,74.5246753 Z M66,80.0415584 L62.5911795,82.1986597 C62.1489231,82.5793247 61.4970256,82.8 60.8250256,82.8 L58.2547692,82.8 C57.5798974,82.8 56.9308718,82.5793247 56.4886154,82.1986597 L53.0769231,80.0415584 L66,80.0415584 Z M78,38.3137643 C78,48.898928 68.358,56.0585204 68.358,64.4103896 L62.391,64.4103896 C62.382,58.8998168 65.001,54.3590811 67.554,49.9755362 C69.837,46.0457682 72,42.3325082 72,38.3137643 C72,30.6262484 65.775,27.1265305 59.991,27.1265305 C54.216,27.1265305 48,30.6262484 48,38.3137643 C48,42.3325082 50.163,46.0457682 52.446,49.9755362 C54.999,54.3590811 57.621,58.8998168 57.606,64.4103896 L51.642,64.4103896 C51.642,56.0585204 42,48.898928 42,38.3137643 C42,27.2718577 50.994,21.1948052 59.991,21.1948052 C68.994,21.1948052 78,27.2777895 78,38.3137643 Z M90,40.5038961 L82.6153846,40.5038961 C82.673577,39.9060997 82.7259502,39.302942 82.7259502,38.6783386 C82.7259502,38.0430124 82.6764866,37.4344932 82.6241135,36.8286547 L90,36.8286547 L90,40.5038961 Z M57.6923077,18.4134234 L57.6923077,12 L61.3846154,12 L61.3846154,18.4363636 C60.7328733,18.3642659 60.0811311,18.3216627 59.429389,18.3216627 C58.8503619,18.3216627 58.2713348,18.3544344 57.6923077,18.4134234 Z M46.3440123,22.1142857 L42.9230769,16.6002449 L46.896625,14.7584416 L50.3076923,20.2525864 C48.9327394,20.7670407 47.6038376,21.3923443 46.3440123,22.1142857 Z M78,26.9959172 L83.8860045,23.0337662 L86.3076923,26.2029186 L80.0822271,30.3896104 C79.5033256,29.1674261 78.8001572,28.0390373 78,26.9959172 Z M73.1051442,14.7584416 L77.0769231,16.5995335 L73.6542229,22.1142857 C72.3982465,21.3926231 71.0699363,20.7704023 69.6923077,20.2533054 L73.1051442,14.7584416 Z M39.9177729,30.3896104 L33.6923077,26.2041436 L36.1139955,23.0337662 L42,26.9946054 C41.1998428,28.0352853 40.4997053,29.1641103 39.9177729,30.3896104 Z M87.2307692,50.6194216 L85.7778418,54.2961039 L78.9230769,51.4554257 C79.5166854,50.3070048 80.0763734,49.1065145 80.5767006,47.8597403 L87.2307692,50.6194216 Z M34.3692729,55.2155844 L32.7692308,51.2198567 L39.4313281,47.8597403 C39.9238678,49.2427539 40.4875837,50.5586931 41.0769231,51.8299158 L34.3692729,55.2155844 Z M30,40.5038961 L30,36.825974 L37.3758865,36.825974 C37.3235134,37.4318125 37.2740498,38.0430124 37.2740498,38.6783386 C37.2740498,39.302942 37.326423,39.9060997 37.3846154,40.5038961 L30,40.5038961 Z" transform="translate(0 -12)"/>
</svg>
