<svg xmlns="http://www.w3.org/2000/svg" width="93" height="95" viewBox="0 0 93 95">
  <g fill="#B8BEC7">
    <path d="M61.2252063,32.6928313 C57.6431992,28.8421737 52.6472697,26.9045001 46.5,26.9045001 C39.9572014,26.9045001 34.9721217,28.796984 31.3345529,32.4345529 C27.3675905,36.4015152 25.1045001,41.7550626 25.1045001,47.6 C25.1045001,53.0925183 27.5037599,59.0519701 31.2849,63.3181348 C35.3045976,67.7206607 40.6810967,69.6494497 46.1602417,68.431885 C54.5191705,66.6207837 58.7578398,65.183322 62.2011609,62.4443166 C66.4378971,59.0741855 68.3063311,54.3604354 67.6050746,47.7750975 C66.8965987,41.5071453 64.7724892,36.3294459 61.2252063,32.6928313 Z M67.6045506,47.7701813 L67.6056296,47.7800096 C67.6054447,47.778372 67.6052597,47.7767344 67.6050746,47.775097 C67.6049001,47.7734588 67.6047254,47.7718201 67.6045506,47.7701813 Z M70.7943704,47.4199904 C71.612299,55.0877834 69.3148371,60.8861396 64.1988391,64.9556834 C60.2370497,68.1071068 55.6784626,69.6530624 46.8480649,71.5662922 C40.2067249,73.0421455 33.6802095,70.7007947 28.8992773,65.4642769 C24.5964232,60.6097748 21.8954999,53.9010301 21.8954999,47.6 C21.8954999,40.8954751 24.5024882,34.728406 29.0654471,30.1654471 C33.3308634,25.9000309 39.1379205,23.6954999 46.5,23.6954999 C53.4961038,23.6954999 59.3506124,25.9661738 63.5484722,30.4795393 C67.6163277,34.6490912 70.011969,40.4901493 70.7943704,47.4199904 Z"/>
    <path d="M56.8954999,47.6 C56.8954999,39.6651506 53.4095783,37.2045001 46.7,37.2045001 C38.8582651,37.2045001 36.6045001,40.1530348 36.6045001,47.6 C36.6045001,53.8089382 41.4749496,59.2523818 46.3004136,58.046053 C54.6649694,55.8951673 56.8954999,54.0543077 56.8954999,47.6 Z M60.1045001,47.6 C60.1045001,52.0921131 58.8452477,55.2050694 56.2462983,57.3499855 C54.2062634,59.0336287 51.8256763,59.9386667 47.0891484,61.1565937 C39.9121472,62.950844 33.3954999,55.6675324 33.3954999,47.6 C33.3954999,38.5401983 36.8693211,33.9954999 46.7,33.9954999 C54.9904217,33.9954999 60.1045001,37.6054376 60.1045001,47.6 Z"/>
    <path d="M48.3954999,47.1744681 C48.3954999,45.5339866 47.9287273,45.2045001 46.4851064,45.2045001 C44.8475167,45.2045001 44.6045001,45.5224317 44.6045001,47.1744681 C44.6045001,48.3714538 45.4773518,49.346994 46.08552,49.1949892 C48.1378396,48.6672499 48.3954999,48.4546025 48.3954999,47.1744681 Z M51.6045001,47.1744681 C51.6045001,50.2845413 50.1882099,51.4534073 46.8742548,52.3055299 C43.9145494,53.0454562 41.3954999,50.230048 41.3954999,47.1744681 C41.3954999,43.9095952 42.8585728,41.9954999 46.4851064,41.9954999 C49.5095706,41.9954999 51.6045001,43.4742737 51.6045001,47.1744681 Z"/>
    <path d="M30.3135138,22.5829735 L28.6864862,19.8170265 C34.7788944,16.233257 40.5586883,13.9617223 46.3913604,13.2091229 C52.503181,12.4075727 58.3527148,13.9033439 63.8632779,17.3475313 C68.6629198,20.4111325 72.7800673,24.9293008 75.9118083,30.4376235 C78.6176234,35.4483922 80.2574742,41.2936669 80.7984681,47.4610028 C81.3864414,54.2226955 80.2604534,60.1668644 77.6298713,65.4279345 C74.4001333,71.7720626 70.241219,76.2710139 64.7831914,78.7517817 C60.0163864,80.994984 54.3735833,81.8045001 46.6,81.8045001 C39.5229575,81.8045001 33.7188032,80.6436692 28.8925697,78.340126 C23.3501873,75.6175522 19.7533684,71.4541111 16.731377,65.0461941 C14.2118339,59.3199598 12.6768833,53.7337461 12.2018574,47.8426913 C11.711378,42.3493215 13.0478401,37.3118874 16.0049569,32.1073619 C18.5019528,27.7126492 22.1947534,24.0967819 27.2308402,20.8513037 L28.9691598,23.5486963 C24.3392715,26.5324021 21.0125616,29.7898055 18.7950431,33.6926381 C16.1396025,38.3662136 14.9708419,42.7715418 15.3993078,47.5710236 C15.844711,53.0940233 17.2855489,58.3377283 19.6511605,63.7154903 C22.3696603,69.4787098 25.494213,73.0954866 30.2911056,75.4519691 C34.6418525,77.528462 39.9770425,78.5954999 46.6,78.5954999 C53.9411226,78.5954999 59.1741296,77.8447732 63.4360532,75.8393169 C68.1786533,73.6835896 71.8454254,69.7170186 74.7648915,63.9824458 C77.124653,59.2629229 78.1382988,53.911816 77.6016376,47.7402072 C77.0974456,41.9924179 75.5761332,36.5696754 73.105224,31.9931079 C70.238253,26.9511936 66.475419,22.8218498 62.1496167,20.0606133 C57.2522311,16.9997473 52.13786,15.6919629 46.80533,16.3913076 C41.455506,17.0816075 36.0629477,19.2009535 30.3135138,22.5829735 Z"/>
    <path d="M43.6981868,90.0769415 C44.5920097,90.213119 45.3931659,90.2715 46.6,90.2715 C70.1662897,90.2715 89.2715,71.1662897 89.2715,47.6 C89.2715,44.3568389 89.1575337,42.4876945 88.7435524,40.2692118 C88.4298022,40.3203937 88.0553051,40.3837151 87.6204201,40.4590199 C86.4224697,40.6664572 85.2209401,40.8828365 82.3376493,41.4070712 C79.4459401,41.9328365 78.2412197,42.1497905 77.0329201,42.3590199 C76.2612581,42.492641 75.6716479,42.5900258 75.2567621,42.6516044 C75.0216356,42.6865026 74.8389728,42.7104977 74.701172,42.7238602 C74.6024977,42.7334286 74.5195993,42.7386057 74.4352725,42.7380405 C74.3379025,42.7374001 74.3379025,42.7374001 74.1326744,42.7060388 C73.9810324,42.6723049 73.9810324,42.6723049 73.694728,42.5281771 C73.3633115,42.2793098 73.2955638,42.2284366 73.1776504,41.8074499 C72.8993392,41.0991035 73.0987798,40.7891069 73.5106179,40.3938638 C73.5878855,40.3197097 73.6678378,40.256169 73.7629366,40.1879428 C73.8897293,40.0969786 74.0558464,39.9900876 74.2697051,39.8600906 C74.6379587,39.6362425 75.1620658,39.3356211 75.8500128,38.95212 C76.9223826,38.3543198 77.9939298,37.7718324 80.5686325,36.381117 C83.1314298,34.9968324 84.1984242,34.4168198 85.2562628,33.82712 C85.7538345,33.5497451 86.1596926,33.318936 86.4722143,33.1352973 C81.5170134,15.4849223 66.4144354,4.82850003 46.6,4.82850003 C38.1074624,4.82850003 31.6310574,6.36126631 25.545878,9.98344776 C25.7707242,10.362233 26.0674698,10.8505825 26.4592618,11.4879677 C26.7877627,12.022388 28.1990974,14.3051219 28.1369799,14.2045158 C28.8969722,15.4354051 29.4985107,16.4163257 30.0834372,17.3817121 C30.2718087,17.692608 30.4546745,17.9957227 30.6326789,18.2921965 C35.2265834,25.9435349 36.3412635,28.1592032 34.8936458,29.3830104 C33.9999645,30.195448 33.2911652,29.8733563 32.2335678,29.0226897 C31.7257007,28.6141926 31.0917214,28.0025119 30.327088,27.1942096 C29.0200359,25.8125106 27.3417255,23.8663215 25.4113664,21.5187785 C23.8822069,19.6591413 22.2619458,17.6282299 20.8161479,15.7728205 C20.4172009,15.2608471 20.0505365,14.7863956 19.7438819,14.3858678 C9.74879309,22.4453479 3.92850003,34.4085562 3.92850003,47.6 C3.92850003,66.23831 16.7194639,82.8869004 34.5102893,88.5042677 C34.5809369,88.2801346 34.6587444,88.0174102 34.7431752,87.7177931 C35.0315186,86.6945566 35.2949723,85.6485059 35.9094964,83.1345436 C36.5324723,80.5860059 36.799227,79.5268483 37.0994252,78.4615431 C37.2967933,77.7611483 37.4664917,77.2257222 37.6193064,76.8366227 C37.7199317,76.5804087 37.8173271,76.3745524 37.931356,76.1979571 C38.2836075,75.6524296 38.7458209,75.2885737 39.564967,75.5226154 C40.177964,75.6977574 40.4027215,76.0464328 40.5785178,76.5548172 C40.6439516,76.744045 40.6948077,76.9629235 40.7407278,77.228374 C40.8138982,77.6513504 40.877809,78.2190314 40.938374,78.9490753 C41.0310848,80.0666009 41.0939135,81.1720727 41.2249075,83.7825962 C41.356579,86.4066199 41.4187532,87.4993713 41.5082752,88.572356 C41.5471632,89.0384564 41.5868793,89.4233257 41.6269969,89.722315 C42.4636226,89.8640014 43.487376,90.0448236 43.6981868,90.0769415 Z M91.9285,47.6 C91.9285,72.6337103 71.6337103,92.9285 46.6,92.9285 C45.2616321,92.9285 44.32686,92.8603823 43.298,92.7036314 C42.9628957,92.6525769 41.1105274,92.3226727 40.4121217,92.2151479 C39.6976096,92.1130748 39.427082,91.7306642 39.2275455,91.1798578 C39.1586355,90.9896367 39.106327,90.770987 39.0592998,90.5045443 C38.9854789,90.0862961 38.9212783,89.5220419 38.8604748,88.793269 C38.7675188,87.6791244 38.7045929,86.5731625 38.5731694,83.9540793 C38.5643751,83.7788224 38.5576938,83.6460817 38.5511881,83.5173124 C37.8675277,86.3139941 37.600773,87.3731517 37.3005748,88.4384569 C37.1032067,89.1388517 36.9335083,89.6742778 36.7806936,90.0633773 C36.6800683,90.3195913 36.5826729,90.5254476 36.468644,90.7020429 C36.1163925,91.2475704 35.6541791,91.6114263 34.8322848,91.3765962 C15.3745524,85.7719233 1.27149997,67.8116257 1.27149997,47.6 C1.27149997,33.1112353 7.89850416,19.9947166 19.1981563,11.4407743 L20,12.5 L19.0606086,13.4393914 C19.3920365,13.7179248 19.3920365,13.7179248 20.1498928,13.8122005 C20.8432151,13.5932567 20.8432151,13.5932567 21.2283577,12.9775532 C21.3360911,12.5129925 21.3360911,12.5129925 21.3047846,12.2956591 C21.1729094,11.9013351 21.1441507,11.8153431 21.1300247,11.7985231 C21.2251885,11.9410087 21.3443057,12.1007026 21.5009498,12.3076932 C21.8501926,12.7691852 22.347863,13.4157452 22.9119771,14.1396795 C24.3442691,15.9777568 25.9502772,17.9908027 27.4636336,19.8312215 C28.6295832,21.2491529 29.700199,22.5159894 30.644031,23.590201 C30.0087897,22.4516668 29.244896,21.142503 28.3547276,19.6598906 C28.1786089,19.3665575 27.997581,19.0664895 27.8110135,18.7585709 C27.2305837,17.8006059 26.6326136,16.8255043 25.8761938,15.6004011 C25.9401012,15.7039059 24.5263223,13.4172187 24.1957005,12.879348 C23.6448211,11.9831523 23.2760007,11.3722891 23.0204889,10.9290553 C22.8686906,10.6657322 22.7564998,10.4608255 22.6783375,10.3013228 C22.6221292,10.1866207 22.5789787,10.0873896 22.544346,9.98321853 C22.3224698,9.31584167 22.2898503,8.91010811 23.0857108,8.37986463 C29.9472707,4.00437717 37.1581954,2.17149997 46.6,2.17149997 C67.9238187,2.17149997 84.2840657,13.9713994 89.2603258,33.2798914 C89.5006608,34.0008965 89.3012202,34.3108931 88.8893821,34.7061362 C88.8121145,34.7802903 88.7321622,34.843831 88.6370634,34.9120572 C88.5102707,35.0030214 88.3441536,35.1099124 88.1302949,35.2399094 C87.7620413,35.4637575 87.2379342,35.7643789 86.5499872,36.14788 C85.4776174,36.7456802 84.4060702,37.3281676 81.8313675,38.718883 C84.7540599,38.2671635 85.9587803,38.0502095 87.1670799,37.8409801 C87.9387419,37.707359 88.5283521,37.6099742 88.9432379,37.5483956 C89.1783644,37.5134974 89.3610272,37.4895023 89.498828,37.4761398 C89.8620975,37.4625999 89.8620975,37.4625999 90.0673256,37.4939612 C90.2189676,37.5276951 90.2189676,37.5276951 90.505272,37.6718229 C90.868565,37.9446269 90.9150294,37.9795179 91.0580449,38.5248027 C91.7572714,41.5307765 91.9285,43.6235711 91.9285,47.6 Z M34.1800647,27.1577798 C34.1914234,27.1645991 34.2003742,27.1694751 34.2067148,27.1723564 C34.2043892,27.1712996 34.2020224,27.1702463 34.1996128,27.1691974 L34.1800647,27.1577798 Z M40.1590562,77.6460105 C40.1605465,77.643751 40.1620168,77.6414976 40.1634682,77.6392499 C40.1636079,77.6390334 40.1628715,77.6406556 40.1613524,77.6440063 L40.1590562,77.6460105 Z M38.073417,77.4431003 C38.071126,77.4347381 38.0691094,77.4280562 38.0674105,77.423143 C38.0680167,77.4248961 38.0686445,77.4266768 38.0692955,77.4284864 L38.073417,77.4431003 Z"/>
    <path d="M34.0416251 88.6444324C35.0664268 88.9435637 35.6546989 90.0168234 35.3555676 91.0416251 35.0564363 92.0664268 33.9831766 92.6546989 32.9583749 92.3555676 13.5885945 86.7016858.567 68.7109311.567 47.6.567 32.9574167 6.72398471 20.0387434 17.7031743 11.3820747 18.5415013 10.7210861 19.7569367 10.8648473 20.4179253 11.7031743 21.0789139 12.5415013 20.9351527 13.7569367 20.0968257 14.4179253 10.0551448 22.3354045 4.433 34.131869 4.433 47.6 4.433 67.0189539 16.3470632 83.4795332 34.0416251 88.6444324zM88.8017815 40.465042C88.6001744 39.4166849 89.2866009 38.4033887 90.334958 38.2017815 91.3833151 38.0001744 92.3966113 38.6866009 92.5982185 39.734958 92.8123662 40.8485261 92.9212336 41.9239066 92.9576231 43.1174833 92.9807948 43.8775152 92.9773635 44.4297261 92.9524591 45.8575783 92.9383075 46.6689408 92.933 47.0923578 92.933 47.6 92.933 73.3752612 72.3621733 94.333 46.8 94.333 46.4282372 94.333 46.1183843 94.3344945 45.5156642 94.3385126 43.939789 94.3490184 43.3140816 94.3465156 42.4776372 94.3145786 41.3677613 94.2722016 40.3511443 94.1777691 39.2946044 94.0087227 38.2404459 93.8400574 37.5226119 92.8487628 37.6912773 91.7946044 37.8599426 90.7404459 38.8512372 90.0226119 39.9053956 90.1912773 40.8005435 90.3345009 41.6638 90.4146879 42.6251406 90.4513936 43.3835174 90.4803498 43.9733186 90.482709 45.4898914 90.4725985 46.100834 90.4685256 46.4171332 90.467 46.8 90.467 70.2107498 90.467 89.067 71.2560868 89.067 47.6 89.067 47.0634721 89.0725225 46.6228981 89.087047 45.7901583 89.1108362 44.4262455 89.1140347 43.9115026 89.0934186 43.2352944 89.0629771 42.2368134 88.974571 41.363547 88.8017815 40.465042zM24.898098 11.155382C23.9838557 11.7066163 22.7958523 11.4123402 22.244618 10.498098 21.6933837 9.58385574 21.9876598 8.39585231 22.901902 7.84461803 30.7492064 3.11315512 38.5677029.567 46.7.567 67.0320418.567 84.52646 13.9943398 90.6437366 33.4193758 90.9644065 34.4376434 90.3988918 35.5230667 89.3806242 35.8437366 88.3623566 36.1644065 87.2769333 35.5988918 86.9562634 34.5806242 81.3360493 16.7339794 65.3091608 4.433 46.7 4.433 39.3373476 4.433 32.1835222 6.76269973 24.898098 11.155382z"/>
  </g>
</svg>
