<svg xmlns="http://www.w3.org/2000/svg" width="36" height="36" viewBox="0 0 36 36">
  <path fill="#152845" d="M0,20.9172438 L2.94072216,9.76923077 L8.30769231,11.0827562 L5.30304141,22.2307692 L0,20.9172438 Z M27.6467686,22.7872527 C27.8349468,23.213022 27.9282832,23.6743956 27.8801096,24.1372527 C27.7611809,25.3670879 26.8293223,26.2853846 25.6867042,26.5138462 C25.304326,27.3045604 24.583227,27.8297253 23.752232,28.0003297 C23.3849081,28.7598901 22.6653146,29.3206593 21.8012002,29.4986813 C21.3119368,30.4896703 20.3409371,31 19.2811174,31 C18.5043176,31 17.7696699,30.7285165 17.23976,30.2018681 C15.8427248,30.8012088 14.3764401,30.1306593 13.8796496,28.9215934 C12.9824158,28.8207143 12.2131432,28.251044 11.8744224,27.4425275 C10.9726723,27.3371978 10.1973781,26.7630769 9.85715182,25.9545604 C8.06870596,25.7498352 7.07512493,23.8182967 8.0536517,22.2531868 C7.70288749,22.1671429 7.30997136,22.0989011 6.92307692,22.0276923 L7.49965501,19.8558242 C8.28849813,20.0041758 9.02013507,20.1807143 9.6870387,20.3869231 C11.0614925,19.4152198 12.9252096,19.9492857 13.5243691,21.3942308 C14.439668,21.4965934 15.2044243,22.0825824 15.5326071,22.8777473 C16.4328517,22.9786264 17.2051352,23.5468132 17.5423506,24.3582967 C18.6533548,24.4799451 19.5897297,25.327033 19.7237125,26.4856593 L19.7267234,26.8194505 L20.404165,27.4158242 C20.7835323,27.8475275 21.4278546,27.8964835 21.8493738,27.5730769 C22.2799256,27.2422527 22.3371317,26.6473626 21.9622807,26.2245604 L19.7688753,24.3271429 C19.5325235,24.1209341 19.8471575,23.7634066 20.089531,23.9696154 L22.3341209,25.9100549 C22.7210153,26.3462088 23.3758756,26.4025824 23.7928785,26.0791758 C24.2219249,25.7528022 24.2685931,25.1430769 23.8952475,24.7202747 L21.0409601,22.3051099 C20.7970811,22.1048352 21.1132206,21.7413736 21.3540887,21.9460989 L24.2806365,24.4220879 C24.6539821,24.8404396 25.3013152,24.9190659 25.7363832,24.5912088 C26.1624187,24.2648352 26.2617768,23.6921978 25.7333724,23.1151099 C23.8666444,21.4654396 21.71238,19.5472527 19.4963933,17.4836813 C18.9619671,18.2076374 16.2205867,19.7119231 14.560102,19.7119231 C12.8996174,19.7119231 11.8819495,18.7105495 11.6094675,17.7195604 C11.3731156,16.8561538 11.6862442,16.0298352 12.4088486,15.6144505 C13.2142514,15.1501099 13.9970728,14.484011 14.7603237,13.7318681 C13.5725427,12.8625275 12.9492964,13.1414286 11.6486085,13.7511538 C10.8913793,14.1042308 9.99264014,14.5240659 8.85754908,14.710989 L9.51692559,12.2335165 C11.5146256,11.5095604 13.354256,9.84802198 16.2988688,12.1103846 L17.0380329,11.2914835 C17.6326761,10.6283516 18.4094758,10.2307692 19.3006879,10.2307692 C19.9570535,10.2307692 20.6706254,10.4696154 21.4203274,10.8493956 C23.7055638,12.0258242 24.8722688,12.7126923 26.6035085,12.7690659 L27.1966462,15.0062088 L27.1846028,15.0062088 C24.4793527,15.0551648 23.1560834,14.2525824 20.3860999,12.8254396 C19.6138165,12.4352747 19.0929391,12.3536813 18.7301315,12.7601648 C17.2487925,14.4217033 15.6726117,16.1856044 13.9248123,17.3041758 C14.7874213,17.9836264 16.964267,16.6247253 17.826876,15.9393407 C18.2032325,15.6411538 18.7873377,15.2450549 19.5249963,15.2450549 C20.3574968,15.2450549 20.962678,15.7360989 21.397746,16.1633516 C22.4214356,17.1721429 25.2666904,19.7074725 26.5267318,20.8245604 C27.1800866,20.4655495 27.8334414,20.1792308 28.500345,19.927033 L29.0769231,22.1033516 C28.5966922,22.3021429 28.1239885,22.5276374 27.6467686,22.7872527 Z M11.214415,24.1187562 L12.1935961,22.9674423 C12.5955588,22.5050673 12.539284,21.8546597 12.064968,21.5125021 C11.5890442,21.1688034 10.879982,21.2689846 10.4796271,21.7282772 L9.49883814,22.8826735 C9.09526759,23.3419661 9.15475807,23.9939149 9.6274662,24.3345312 C10.1001743,24.6751475 10.8124523,24.57959 11.214415,24.1187562 Z M13.051937,25.5083917 L14.0427504,24.3466813 C14.4410027,23.8896905 14.3847977,23.2357475 13.9110701,22.8956972 C13.4389484,22.5556468 12.7323716,22.6510456 12.3309076,23.1141911 L11.3417001,24.2743629 C10.9386302,24.7359697 11.0044703,25.3699097 11.4798037,25.7145761 C11.9567431,26.0561651 12.650473,25.9715372 13.051937,25.5083917 Z M15.3685286,26.8861729 L16.3466362,25.7350647 C16.7504274,25.2743132 16.6925131,24.6240218 16.2179379,24.2803844 C15.7417539,23.938288 15.0355215,24.0384514 14.6317304,24.4992029 L13.652014,25.6472291 C13.2482228,26.1095216 13.3093546,26.762895 13.7839298,27.1034504 C14.2552876,27.4440058 14.9647374,27.3500064 15.3685286,26.8861729 Z M18.0639127,26.1288108 C17.5918279,25.7840554 16.8837008,25.884096 16.4790568,26.3427438 L15.4963497,27.4985976 C15.0965229,27.9587844 15.1543292,28.6098179 15.6280196,28.9499559 C16.1017101,29.290094 16.8082315,29.1962097 17.2112698,28.7314057 L18.1907654,27.577091 C18.5970152,27.1199823 18.5392089,26.4689488 18.0639127,26.1288108 Z M20.0245056,27.6165989 L19.6211592,27.3076923 C19.5152808,27.6559407 19.3304137,27.9837897 19.0631968,28.2548115 L18.4615385,28.8973954 C18.6850596,29.0518487 18.9455541,29.1538462 19.2144517,29.1538462 C19.4648625,29.1538462 19.7102316,29.0868193 19.9119047,28.9527655 C20.3891979,28.6278307 20.4446581,28.0318742 20.0245056,27.6165989 Z M27.6923077,11.5442947 L30.6969586,22.6923077 L36,21.3787822 L33.0592778,10.2307692 L27.6923077,11.5442947 Z M15.8195758,1 L14.3076923,1.25673815 L15.1065679,5.61538462 L16.6153846,5.35864647 L15.8195758,1 Z M21.6923077,1.25673815 L20.1829605,1 L19.3846154,5.35864647 L20.8939626,5.61538462 L21.6923077,1.25673815 Z M27.2307692,3.12951284 L25.878327,2.38461538 L23.5384615,6.25510255 L24.8909038,7 L27.2307692,3.12951284 Z M10.121673,2.38461538 L8.76923077,3.12951284 L11.1090962,7 L12.4615385,6.25510255 L10.121673,2.38461538 Z"/>
</svg>
