<svg xmlns="http://www.w3.org/2000/svg"><symbol viewBox="0 0 36 36" id="arrow-down"><polygon fill="#152845" points="19.824 5 16.147 8.586 24.124 16.419 3 16.419 3 21.481 24.124 21.481 16.147 29.314 19.824 32.9 34 18.95" transform="rotate(90 18.5 18.95)"/></symbol>
<symbol viewBox="0 0 24 24" id="github"><path fill="#152845" d="M12,0 C5.374,0 0,5.373 0,12 C0,17.302 3.438,21.8 8.207,23.387 C8.806,23.498 9,23.126 9,22.81 L9,20.576 C5.662,21.302 4.967,19.16 4.967,19.16 C4.421,17.773 3.634,17.404 3.634,17.404 C2.545,16.659 3.717,16.675 3.717,16.675 C4.922,16.759 5.556,17.912 5.556,17.912 C6.626,19.746 8.363,19.216 9.048,18.909 C9.155,18.134 9.466,17.604 9.81,17.305 C7.145,17 4.343,15.971 4.343,11.374 C4.343,10.063 4.812,8.993 5.579,8.153 C5.455,7.85 5.044,6.629 5.696,4.977 C5.696,4.977 6.704,4.655 8.997,6.207 C9.954,5.941 10.98,5.808 12,5.803 C13.02,5.808 14.047,5.941 15.006,6.207 C17.297,4.655 18.303,4.977 18.303,4.977 C18.956,6.63 18.545,7.851 18.421,8.153 C19.191,8.993 19.656,10.064 19.656,11.374 C19.656,15.983 16.849,16.998 14.177,17.295 C14.607,17.667 15,18.397 15,19.517 L15,22.81 C15,23.129 15.192,23.504 15.801,23.386 C20.566,21.797 24,17.3 24,12 C24,5.373 18.627,0 12,0 Z"/></symbol>
<symbol viewBox="0 0 93 95" id="experience"><g fill="#B8BEC7">
    <path d="M61.2252063,32.6928313 C57.6431992,28.8421737 52.6472697,26.9045001 46.5,26.9045001 C39.9572014,26.9045001 34.9721217,28.796984 31.3345529,32.4345529 C27.3675905,36.4015152 25.1045001,41.7550626 25.1045001,47.6 C25.1045001,53.0925183 27.5037599,59.0519701 31.2849,63.3181348 C35.3045976,67.7206607 40.6810967,69.6494497 46.1602417,68.431885 C54.5191705,66.6207837 58.7578398,65.183322 62.2011609,62.4443166 C66.4378971,59.0741855 68.3063311,54.3604354 67.6050746,47.7750975 C66.8965987,41.5071453 64.7724892,36.3294459 61.2252063,32.6928313 Z M67.6045506,47.7701813 L67.6056296,47.7800096 C67.6054447,47.778372 67.6052597,47.7767344 67.6050746,47.775097 C67.6049001,47.7734588 67.6047254,47.7718201 67.6045506,47.7701813 Z M70.7943704,47.4199904 C71.612299,55.0877834 69.3148371,60.8861396 64.1988391,64.9556834 C60.2370497,68.1071068 55.6784626,69.6530624 46.8480649,71.5662922 C40.2067249,73.0421455 33.6802095,70.7007947 28.8992773,65.4642769 C24.5964232,60.6097748 21.8954999,53.9010301 21.8954999,47.6 C21.8954999,40.8954751 24.5024882,34.728406 29.0654471,30.1654471 C33.3308634,25.9000309 39.1379205,23.6954999 46.5,23.6954999 C53.4961038,23.6954999 59.3506124,25.9661738 63.5484722,30.4795393 C67.6163277,34.6490912 70.011969,40.4901493 70.7943704,47.4199904 Z"/>
    <path d="M56.8954999,47.6 C56.8954999,39.6651506 53.4095783,37.2045001 46.7,37.2045001 C38.8582651,37.2045001 36.6045001,40.1530348 36.6045001,47.6 C36.6045001,53.8089382 41.4749496,59.2523818 46.3004136,58.046053 C54.6649694,55.8951673 56.8954999,54.0543077 56.8954999,47.6 Z M60.1045001,47.6 C60.1045001,52.0921131 58.8452477,55.2050694 56.2462983,57.3499855 C54.2062634,59.0336287 51.8256763,59.9386667 47.0891484,61.1565937 C39.9121472,62.950844 33.3954999,55.6675324 33.3954999,47.6 C33.3954999,38.5401983 36.8693211,33.9954999 46.7,33.9954999 C54.9904217,33.9954999 60.1045001,37.6054376 60.1045001,47.6 Z"/>
    <path d="M48.3954999,47.1744681 C48.3954999,45.5339866 47.9287273,45.2045001 46.4851064,45.2045001 C44.8475167,45.2045001 44.6045001,45.5224317 44.6045001,47.1744681 C44.6045001,48.3714538 45.4773518,49.346994 46.08552,49.1949892 C48.1378396,48.6672499 48.3954999,48.4546025 48.3954999,47.1744681 Z M51.6045001,47.1744681 C51.6045001,50.2845413 50.1882099,51.4534073 46.8742548,52.3055299 C43.9145494,53.0454562 41.3954999,50.230048 41.3954999,47.1744681 C41.3954999,43.9095952 42.8585728,41.9954999 46.4851064,41.9954999 C49.5095706,41.9954999 51.6045001,43.4742737 51.6045001,47.1744681 Z"/>
    <path d="M30.3135138,22.5829735 L28.6864862,19.8170265 C34.7788944,16.233257 40.5586883,13.9617223 46.3913604,13.2091229 C52.503181,12.4075727 58.3527148,13.9033439 63.8632779,17.3475313 C68.6629198,20.4111325 72.7800673,24.9293008 75.9118083,30.4376235 C78.6176234,35.4483922 80.2574742,41.2936669 80.7984681,47.4610028 C81.3864414,54.2226955 80.2604534,60.1668644 77.6298713,65.4279345 C74.4001333,71.7720626 70.241219,76.2710139 64.7831914,78.7517817 C60.0163864,80.994984 54.3735833,81.8045001 46.6,81.8045001 C39.5229575,81.8045001 33.7188032,80.6436692 28.8925697,78.340126 C23.3501873,75.6175522 19.7533684,71.4541111 16.731377,65.0461941 C14.2118339,59.3199598 12.6768833,53.7337461 12.2018574,47.8426913 C11.711378,42.3493215 13.0478401,37.3118874 16.0049569,32.1073619 C18.5019528,27.7126492 22.1947534,24.0967819 27.2308402,20.8513037 L28.9691598,23.5486963 C24.3392715,26.5324021 21.0125616,29.7898055 18.7950431,33.6926381 C16.1396025,38.3662136 14.9708419,42.7715418 15.3993078,47.5710236 C15.844711,53.0940233 17.2855489,58.3377283 19.6511605,63.7154903 C22.3696603,69.4787098 25.494213,73.0954866 30.2911056,75.4519691 C34.6418525,77.528462 39.9770425,78.5954999 46.6,78.5954999 C53.9411226,78.5954999 59.1741296,77.8447732 63.4360532,75.8393169 C68.1786533,73.6835896 71.8454254,69.7170186 74.7648915,63.9824458 C77.124653,59.2629229 78.1382988,53.911816 77.6016376,47.7402072 C77.0974456,41.9924179 75.5761332,36.5696754 73.105224,31.9931079 C70.238253,26.9511936 66.475419,22.8218498 62.1496167,20.0606133 C57.2522311,16.9997473 52.13786,15.6919629 46.80533,16.3913076 C41.455506,17.0816075 36.0629477,19.2009535 30.3135138,22.5829735 Z"/>
    <path d="M43.6981868,90.0769415 C44.5920097,90.213119 45.3931659,90.2715 46.6,90.2715 C70.1662897,90.2715 89.2715,71.1662897 89.2715,47.6 C89.2715,44.3568389 89.1575337,42.4876945 88.7435524,40.2692118 C88.4298022,40.3203937 88.0553051,40.3837151 87.6204201,40.4590199 C86.4224697,40.6664572 85.2209401,40.8828365 82.3376493,41.4070712 C79.4459401,41.9328365 78.2412197,42.1497905 77.0329201,42.3590199 C76.2612581,42.492641 75.6716479,42.5900258 75.2567621,42.6516044 C75.0216356,42.6865026 74.8389728,42.7104977 74.701172,42.7238602 C74.6024977,42.7334286 74.5195993,42.7386057 74.4352725,42.7380405 C74.3379025,42.7374001 74.3379025,42.7374001 74.1326744,42.7060388 C73.9810324,42.6723049 73.9810324,42.6723049 73.694728,42.5281771 C73.3633115,42.2793098 73.2955638,42.2284366 73.1776504,41.8074499 C72.8993392,41.0991035 73.0987798,40.7891069 73.5106179,40.3938638 C73.5878855,40.3197097 73.6678378,40.256169 73.7629366,40.1879428 C73.8897293,40.0969786 74.0558464,39.9900876 74.2697051,39.8600906 C74.6379587,39.6362425 75.1620658,39.3356211 75.8500128,38.95212 C76.9223826,38.3543198 77.9939298,37.7718324 80.5686325,36.381117 C83.1314298,34.9968324 84.1984242,34.4168198 85.2562628,33.82712 C85.7538345,33.5497451 86.1596926,33.318936 86.4722143,33.1352973 C81.5170134,15.4849223 66.4144354,4.82850003 46.6,4.82850003 C38.1074624,4.82850003 31.6310574,6.36126631 25.545878,9.98344776 C25.7707242,10.362233 26.0674698,10.8505825 26.4592618,11.4879677 C26.7877627,12.022388 28.1990974,14.3051219 28.1369799,14.2045158 C28.8969722,15.4354051 29.4985107,16.4163257 30.0834372,17.3817121 C30.2718087,17.692608 30.4546745,17.9957227 30.6326789,18.2921965 C35.2265834,25.9435349 36.3412635,28.1592032 34.8936458,29.3830104 C33.9999645,30.195448 33.2911652,29.8733563 32.2335678,29.0226897 C31.7257007,28.6141926 31.0917214,28.0025119 30.327088,27.1942096 C29.0200359,25.8125106 27.3417255,23.8663215 25.4113664,21.5187785 C23.8822069,19.6591413 22.2619458,17.6282299 20.8161479,15.7728205 C20.4172009,15.2608471 20.0505365,14.7863956 19.7438819,14.3858678 C9.74879309,22.4453479 3.92850003,34.4085562 3.92850003,47.6 C3.92850003,66.23831 16.7194639,82.8869004 34.5102893,88.5042677 C34.5809369,88.2801346 34.6587444,88.0174102 34.7431752,87.7177931 C35.0315186,86.6945566 35.2949723,85.6485059 35.9094964,83.1345436 C36.5324723,80.5860059 36.799227,79.5268483 37.0994252,78.4615431 C37.2967933,77.7611483 37.4664917,77.2257222 37.6193064,76.8366227 C37.7199317,76.5804087 37.8173271,76.3745524 37.931356,76.1979571 C38.2836075,75.6524296 38.7458209,75.2885737 39.564967,75.5226154 C40.177964,75.6977574 40.4027215,76.0464328 40.5785178,76.5548172 C40.6439516,76.744045 40.6948077,76.9629235 40.7407278,77.228374 C40.8138982,77.6513504 40.877809,78.2190314 40.938374,78.9490753 C41.0310848,80.0666009 41.0939135,81.1720727 41.2249075,83.7825962 C41.356579,86.4066199 41.4187532,87.4993713 41.5082752,88.572356 C41.5471632,89.0384564 41.5868793,89.4233257 41.6269969,89.722315 C42.4636226,89.8640014 43.487376,90.0448236 43.6981868,90.0769415 Z M91.9285,47.6 C91.9285,72.6337103 71.6337103,92.9285 46.6,92.9285 C45.2616321,92.9285 44.32686,92.8603823 43.298,92.7036314 C42.9628957,92.6525769 41.1105274,92.3226727 40.4121217,92.2151479 C39.6976096,92.1130748 39.427082,91.7306642 39.2275455,91.1798578 C39.1586355,90.9896367 39.106327,90.770987 39.0592998,90.5045443 C38.9854789,90.0862961 38.9212783,89.5220419 38.8604748,88.793269 C38.7675188,87.6791244 38.7045929,86.5731625 38.5731694,83.9540793 C38.5643751,83.7788224 38.5576938,83.6460817 38.5511881,83.5173124 C37.8675277,86.3139941 37.600773,87.3731517 37.3005748,88.4384569 C37.1032067,89.1388517 36.9335083,89.6742778 36.7806936,90.0633773 C36.6800683,90.3195913 36.5826729,90.5254476 36.468644,90.7020429 C36.1163925,91.2475704 35.6541791,91.6114263 34.8322848,91.3765962 C15.3745524,85.7719233 1.27149997,67.8116257 1.27149997,47.6 C1.27149997,33.1112353 7.89850416,19.9947166 19.1981563,11.4407743 L20,12.5 L19.0606086,13.4393914 C19.3920365,13.7179248 19.3920365,13.7179248 20.1498928,13.8122005 C20.8432151,13.5932567 20.8432151,13.5932567 21.2283577,12.9775532 C21.3360911,12.5129925 21.3360911,12.5129925 21.3047846,12.2956591 C21.1729094,11.9013351 21.1441507,11.8153431 21.1300247,11.7985231 C21.2251885,11.9410087 21.3443057,12.1007026 21.5009498,12.3076932 C21.8501926,12.7691852 22.347863,13.4157452 22.9119771,14.1396795 C24.3442691,15.9777568 25.9502772,17.9908027 27.4636336,19.8312215 C28.6295832,21.2491529 29.700199,22.5159894 30.644031,23.590201 C30.0087897,22.4516668 29.244896,21.142503 28.3547276,19.6598906 C28.1786089,19.3665575 27.997581,19.0664895 27.8110135,18.7585709 C27.2305837,17.8006059 26.6326136,16.8255043 25.8761938,15.6004011 C25.9401012,15.7039059 24.5263223,13.4172187 24.1957005,12.879348 C23.6448211,11.9831523 23.2760007,11.3722891 23.0204889,10.9290553 C22.8686906,10.6657322 22.7564998,10.4608255 22.6783375,10.3013228 C22.6221292,10.1866207 22.5789787,10.0873896 22.544346,9.98321853 C22.3224698,9.31584167 22.2898503,8.91010811 23.0857108,8.37986463 C29.9472707,4.00437717 37.1581954,2.17149997 46.6,2.17149997 C67.9238187,2.17149997 84.2840657,13.9713994 89.2603258,33.2798914 C89.5006608,34.0008965 89.3012202,34.3108931 88.8893821,34.7061362 C88.8121145,34.7802903 88.7321622,34.843831 88.6370634,34.9120572 C88.5102707,35.0030214 88.3441536,35.1099124 88.1302949,35.2399094 C87.7620413,35.4637575 87.2379342,35.7643789 86.5499872,36.14788 C85.4776174,36.7456802 84.4060702,37.3281676 81.8313675,38.718883 C84.7540599,38.2671635 85.9587803,38.0502095 87.1670799,37.8409801 C87.9387419,37.707359 88.5283521,37.6099742 88.9432379,37.5483956 C89.1783644,37.5134974 89.3610272,37.4895023 89.498828,37.4761398 C89.8620975,37.4625999 89.8620975,37.4625999 90.0673256,37.4939612 C90.2189676,37.5276951 90.2189676,37.5276951 90.505272,37.6718229 C90.868565,37.9446269 90.9150294,37.9795179 91.0580449,38.5248027 C91.7572714,41.5307765 91.9285,43.6235711 91.9285,47.6 Z M34.1800647,27.1577798 C34.1914234,27.1645991 34.2003742,27.1694751 34.2067148,27.1723564 C34.2043892,27.1712996 34.2020224,27.1702463 34.1996128,27.1691974 L34.1800647,27.1577798 Z M40.1590562,77.6460105 C40.1605465,77.643751 40.1620168,77.6414976 40.1634682,77.6392499 C40.1636079,77.6390334 40.1628715,77.6406556 40.1613524,77.6440063 L40.1590562,77.6460105 Z M38.073417,77.4431003 C38.071126,77.4347381 38.0691094,77.4280562 38.0674105,77.423143 C38.0680167,77.4248961 38.0686445,77.4266768 38.0692955,77.4284864 L38.073417,77.4431003 Z"/>
    <path d="M34.0416251 88.6444324C35.0664268 88.9435637 35.6546989 90.0168234 35.3555676 91.0416251 35.0564363 92.0664268 33.9831766 92.6546989 32.9583749 92.3555676 13.5885945 86.7016858.567 68.7109311.567 47.6.567 32.9574167 6.72398471 20.0387434 17.7031743 11.3820747 18.5415013 10.7210861 19.7569367 10.8648473 20.4179253 11.7031743 21.0789139 12.5415013 20.9351527 13.7569367 20.0968257 14.4179253 10.0551448 22.3354045 4.433 34.131869 4.433 47.6 4.433 67.0189539 16.3470632 83.4795332 34.0416251 88.6444324zM88.8017815 40.465042C88.6001744 39.4166849 89.2866009 38.4033887 90.334958 38.2017815 91.3833151 38.0001744 92.3966113 38.6866009 92.5982185 39.734958 92.8123662 40.8485261 92.9212336 41.9239066 92.9576231 43.1174833 92.9807948 43.8775152 92.9773635 44.4297261 92.9524591 45.8575783 92.9383075 46.6689408 92.933 47.0923578 92.933 47.6 92.933 73.3752612 72.3621733 94.333 46.8 94.333 46.4282372 94.333 46.1183843 94.3344945 45.5156642 94.3385126 43.939789 94.3490184 43.3140816 94.3465156 42.4776372 94.3145786 41.3677613 94.2722016 40.3511443 94.1777691 39.2946044 94.0087227 38.2404459 93.8400574 37.5226119 92.8487628 37.6912773 91.7946044 37.8599426 90.7404459 38.8512372 90.0226119 39.9053956 90.1912773 40.8005435 90.3345009 41.6638 90.4146879 42.6251406 90.4513936 43.3835174 90.4803498 43.9733186 90.482709 45.4898914 90.4725985 46.100834 90.4685256 46.4171332 90.467 46.8 90.467 70.2107498 90.467 89.067 71.2560868 89.067 47.6 89.067 47.0634721 89.0725225 46.6228981 89.087047 45.7901583 89.1108362 44.4262455 89.1140347 43.9115026 89.0934186 43.2352944 89.0629771 42.2368134 88.974571 41.363547 88.8017815 40.465042zM24.898098 11.155382C23.9838557 11.7066163 22.7958523 11.4123402 22.244618 10.498098 21.6933837 9.58385574 21.9876598 8.39585231 22.901902 7.84461803 30.7492064 3.11315512 38.5677029.567 46.7.567 67.0320418.567 84.52646 13.9943398 90.6437366 33.4193758 90.9644065 34.4376434 90.3988918 35.5230667 89.3806242 35.8437366 88.3623566 36.1644065 87.2769333 35.5988918 86.9562634 34.5806242 81.3360493 16.7339794 65.3091608 4.433 46.7 4.433 39.3373476 4.433 32.1835222 6.76269973 24.898098 11.155382z"/>
  </g></symbol>
<symbol viewBox="0 0 24 24" id="email"><path fill="#0065FF" d="M0,3 L0,21.3529412 L24,21.3529412 L24,3 L0,3 Z M6.623,11.0844706 L2,16.9084706 L2,7.26501961 L6.623,11.0844706 Z M2.482,5.03921569 L21.517,5.03921569 L12,12.903451 L2.482,5.03921569 Z M8.176,12.3681569 L12,15.5279216 L15.83,12.3630588 L21.442,19.3137255 L2.663,19.3137255 L8.176,12.3681569 Z M17.384,11.0793725 L22,7.26501961 L22,16.7963137 L17.384,11.0793725 Z"/></symbol>
<symbol viewBox="0 0 120 71" id="concept-to-code"><path fill="#B8BEC7" d="M120,50.51196 L120,56.2905 C116.155077,56.2905 112.615385,59.51802 112.615385,63.31872 C112.615385,68.68398 115.768615,78 97.8461538,78 L97.8461538,73.07508 C109.949538,73.07508 107.608615,69.13908 107.608615,63.31626 C107.608615,58.16502 110.589538,54.70626 113.216,53.4 C110.589538,52.09374 107.608615,49.86252 107.608615,45.25248 C107.608615,39.41736 109.922462,33.71016 97.8461538,33.72492 L97.8461538,28.8 C115.778462,28.8 112.615385,39.88476 112.615385,45.25248 C112.615385,49.05072 116.155077,50.51196 120,50.51196 Z M7.38461538,45.25248 C7.38461538,39.88476 4.22153846,28.8 22.1538462,28.8 L22.1538462,33.72492 C10.0775385,33.7077 12.3913846,39.4149 12.3913846,45.25248 C12.3913846,49.86498 9.41046154,52.09374 6.784,53.4 C9.41046154,54.70626 12.3913846,58.16748 12.3913846,63.31626 C12.3913846,69.13908 10.0504615,73.07508 22.1538462,73.07508 L22.1538462,78 C4.23138462,78 7.38461538,68.68398 7.38461538,63.31626 C7.38461538,59.51556 3.84492308,56.28804 0,56.28804 L0,50.5095 C3.84492308,50.51196 7.38461538,49.05072 7.38461538,45.25248 Z M67.2,68.0883117 C68.0662154,68.0883117 68.7692308,68.7062026 68.7692308,69.4675325 C68.7692308,70.2288623 68.0662154,70.8467532 67.2,70.8467532 L54.6461538,70.8467532 C53.7799385,70.8467532 53.0769231,70.2288623 53.0769231,69.4675325 C53.0769231,68.7062026 53.7799385,68.0883117 54.6461538,68.0883117 L67.2,68.0883117 Z M67.2,74.5246753 C68.0662154,74.5246753 68.7692308,75.1425662 68.7692308,75.9038961 C68.7692308,76.665226 68.0662154,77.2831169 67.2,77.2831169 L54.6461538,77.2831169 C53.7799385,77.2831169 53.0769231,76.665226 53.0769231,75.9038961 C53.0769231,75.1425662 53.7799385,74.5246753 54.6461538,74.5246753 L67.2,74.5246753 Z M66,80.0415584 L62.5911795,82.1986597 C62.1489231,82.5793247 61.4970256,82.8 60.8250256,82.8 L58.2547692,82.8 C57.5798974,82.8 56.9308718,82.5793247 56.4886154,82.1986597 L53.0769231,80.0415584 L66,80.0415584 Z M78,38.3137643 C78,48.898928 68.358,56.0585204 68.358,64.4103896 L62.391,64.4103896 C62.382,58.8998168 65.001,54.3590811 67.554,49.9755362 C69.837,46.0457682 72,42.3325082 72,38.3137643 C72,30.6262484 65.775,27.1265305 59.991,27.1265305 C54.216,27.1265305 48,30.6262484 48,38.3137643 C48,42.3325082 50.163,46.0457682 52.446,49.9755362 C54.999,54.3590811 57.621,58.8998168 57.606,64.4103896 L51.642,64.4103896 C51.642,56.0585204 42,48.898928 42,38.3137643 C42,27.2718577 50.994,21.1948052 59.991,21.1948052 C68.994,21.1948052 78,27.2777895 78,38.3137643 Z M90,40.5038961 L82.6153846,40.5038961 C82.673577,39.9060997 82.7259502,39.302942 82.7259502,38.6783386 C82.7259502,38.0430124 82.6764866,37.4344932 82.6241135,36.8286547 L90,36.8286547 L90,40.5038961 Z M57.6923077,18.4134234 L57.6923077,12 L61.3846154,12 L61.3846154,18.4363636 C60.7328733,18.3642659 60.0811311,18.3216627 59.429389,18.3216627 C58.8503619,18.3216627 58.2713348,18.3544344 57.6923077,18.4134234 Z M46.3440123,22.1142857 L42.9230769,16.6002449 L46.896625,14.7584416 L50.3076923,20.2525864 C48.9327394,20.7670407 47.6038376,21.3923443 46.3440123,22.1142857 Z M78,26.9959172 L83.8860045,23.0337662 L86.3076923,26.2029186 L80.0822271,30.3896104 C79.5033256,29.1674261 78.8001572,28.0390373 78,26.9959172 Z M73.1051442,14.7584416 L77.0769231,16.5995335 L73.6542229,22.1142857 C72.3982465,21.3926231 71.0699363,20.7704023 69.6923077,20.2533054 L73.1051442,14.7584416 Z M39.9177729,30.3896104 L33.6923077,26.2041436 L36.1139955,23.0337662 L42,26.9946054 C41.1998428,28.0352853 40.4997053,29.1641103 39.9177729,30.3896104 Z M87.2307692,50.6194216 L85.7778418,54.2961039 L78.9230769,51.4554257 C79.5166854,50.3070048 80.0763734,49.1065145 80.5767006,47.8597403 L87.2307692,50.6194216 Z M34.3692729,55.2155844 L32.7692308,51.2198567 L39.4313281,47.8597403 C39.9238678,49.2427539 40.4875837,50.5586931 41.0769231,51.8299158 L34.3692729,55.2155844 Z M30,40.5038961 L30,36.825974 L37.3758865,36.825974 C37.3235134,37.4318125 37.2740498,38.0430124 37.2740498,38.6783386 C37.2740498,39.302942 37.326423,39.9060997 37.3846154,40.5038961 L30,40.5038961 Z" transform="translate(0 -12)"/></symbol>
<symbol viewBox="0 0 119 80" id="designing-systems"><g fill="#B8BEC7">
    <path d="M77.0296958,42.8029994 L72.7890762,44.9821431 L58.1315439,37 L44,44.9619831 L58.8866641,53.6596674 L57.2851207,56.6885223 L42,48 L42,64.8952115 L58,74 L58,73.7802028 L60,75.5014648 L61,74.3842311 L61,75 L64.4540875,73.0139523 L69.5414915,74.3119413 L59.5466667,80 L40,68.69 L20.4533333,80 L0,68.36 L0,44.3066667 L20,33.56 L20,11.8966667 L39.88,0 L60,12.0266667 L60,33.4366667 L77.0296958,42.8029994 Z M56,34.048032 L56,17 L42,25.4689793 L42,42 L56,34.048032 Z M39.8342018,5 L26,13.4950049 L39.8474657,22 L54,13.644858 L39.8342018,5 Z M38,41 L38,24.5870285 L24,16 L24,32.9887492 L38,41 Z M19,75 L19,57.7453014 L4,49 L4,66.4434219 L19,75 Z M6,45.4598741 L20.4658902,54 L36,45.082022 L21.9001664,37 L6,45.4598741 Z M38,48 L22,56.9750416 L22,74 L38,64.8252912 L38,48 Z"/>
    <path d="M56,62.1699592 C70.4480902,63.3669605 65.2741829,48.015944 78.6433913,47.8768189 L84.4341774,52.7094491 C85.8753114,70.1525928 64.5391783,74.042847 56,62.1699592 Z M100.305026,39.7576851 C104.80168,32.7043025 118.722141,9.05040211 118.722141,9.05040211 C119.832523,7.089525 117.370258,5.03939779 115.650872,6.48839935 C115.650872,6.48839935 94.947368,24.4880437 88.8415799,30.1921748 C84.0167998,34.7045547 83.9957997,36.7651819 82.433915,44.1991899 L87.725948,48.6118197 C94.7347417,45.7295666 96.7533793,45.3358161 100.305026,39.7576851 Z"/>
  </g></symbol>
<symbol viewBox="0 0 24 24" id="linkedin"><path fill="#0065FF" d="M19,0 L5,0 C2.239,0 0,2.239 0,5 L0,19 C0,21.761 2.239,24 5,24 L19,24 C21.762,24 24,21.761 24,19 L24,5 C24,2.239 21.762,0 19,0 Z M8,19 L5,19 L5,8 L8,8 L8,19 Z M6.5,6.732 C5.534,6.732 4.75,5.942 4.75,4.968 C4.75,3.994 5.534,3.204 6.5,3.204 C7.466,3.204 8.25,3.994 8.25,4.968 C8.25,5.942 7.467,6.732 6.5,6.732 Z M20,19 L17,19 L17,13.396 C17,10.028 13,10.283 13,13.396 L13,19 L10,19 L10,8 L13,8 L13,9.765 C14.396,7.179 20,6.988 20,12.241 L20,19 Z"/></symbol>
<symbol viewBox="0 0 36 36" id="handshake"><path fill="#152845" d="M0,20.9172438 L2.94072216,9.76923077 L8.30769231,11.0827562 L5.30304141,22.2307692 L0,20.9172438 Z M27.6467686,22.7872527 C27.8349468,23.213022 27.9282832,23.6743956 27.8801096,24.1372527 C27.7611809,25.3670879 26.8293223,26.2853846 25.6867042,26.5138462 C25.304326,27.3045604 24.583227,27.8297253 23.752232,28.0003297 C23.3849081,28.7598901 22.6653146,29.3206593 21.8012002,29.4986813 C21.3119368,30.4896703 20.3409371,31 19.2811174,31 C18.5043176,31 17.7696699,30.7285165 17.23976,30.2018681 C15.8427248,30.8012088 14.3764401,30.1306593 13.8796496,28.9215934 C12.9824158,28.8207143 12.2131432,28.251044 11.8744224,27.4425275 C10.9726723,27.3371978 10.1973781,26.7630769 9.85715182,25.9545604 C8.06870596,25.7498352 7.07512493,23.8182967 8.0536517,22.2531868 C7.70288749,22.1671429 7.30997136,22.0989011 6.92307692,22.0276923 L7.49965501,19.8558242 C8.28849813,20.0041758 9.02013507,20.1807143 9.6870387,20.3869231 C11.0614925,19.4152198 12.9252096,19.9492857 13.5243691,21.3942308 C14.439668,21.4965934 15.2044243,22.0825824 15.5326071,22.8777473 C16.4328517,22.9786264 17.2051352,23.5468132 17.5423506,24.3582967 C18.6533548,24.4799451 19.5897297,25.327033 19.7237125,26.4856593 L19.7267234,26.8194505 L20.404165,27.4158242 C20.7835323,27.8475275 21.4278546,27.8964835 21.8493738,27.5730769 C22.2799256,27.2422527 22.3371317,26.6473626 21.9622807,26.2245604 L19.7688753,24.3271429 C19.5325235,24.1209341 19.8471575,23.7634066 20.089531,23.9696154 L22.3341209,25.9100549 C22.7210153,26.3462088 23.3758756,26.4025824 23.7928785,26.0791758 C24.2219249,25.7528022 24.2685931,25.1430769 23.8952475,24.7202747 L21.0409601,22.3051099 C20.7970811,22.1048352 21.1132206,21.7413736 21.3540887,21.9460989 L24.2806365,24.4220879 C24.6539821,24.8404396 25.3013152,24.9190659 25.7363832,24.5912088 C26.1624187,24.2648352 26.2617768,23.6921978 25.7333724,23.1151099 C23.8666444,21.4654396 21.71238,19.5472527 19.4963933,17.4836813 C18.9619671,18.2076374 16.2205867,19.7119231 14.560102,19.7119231 C12.8996174,19.7119231 11.8819495,18.7105495 11.6094675,17.7195604 C11.3731156,16.8561538 11.6862442,16.0298352 12.4088486,15.6144505 C13.2142514,15.1501099 13.9970728,14.484011 14.7603237,13.7318681 C13.5725427,12.8625275 12.9492964,13.1414286 11.6486085,13.7511538 C10.8913793,14.1042308 9.99264014,14.5240659 8.85754908,14.710989 L9.51692559,12.2335165 C11.5146256,11.5095604 13.354256,9.84802198 16.2988688,12.1103846 L17.0380329,11.2914835 C17.6326761,10.6283516 18.4094758,10.2307692 19.3006879,10.2307692 C19.9570535,10.2307692 20.6706254,10.4696154 21.4203274,10.8493956 C23.7055638,12.0258242 24.8722688,12.7126923 26.6035085,12.7690659 L27.1966462,15.0062088 L27.1846028,15.0062088 C24.4793527,15.0551648 23.1560834,14.2525824 20.3860999,12.8254396 C19.6138165,12.4352747 19.0929391,12.3536813 18.7301315,12.7601648 C17.2487925,14.4217033 15.6726117,16.1856044 13.9248123,17.3041758 C14.7874213,17.9836264 16.964267,16.6247253 17.826876,15.9393407 C18.2032325,15.6411538 18.7873377,15.2450549 19.5249963,15.2450549 C20.3574968,15.2450549 20.962678,15.7360989 21.397746,16.1633516 C22.4214356,17.1721429 25.2666904,19.7074725 26.5267318,20.8245604 C27.1800866,20.4655495 27.8334414,20.1792308 28.500345,19.927033 L29.0769231,22.1033516 C28.5966922,22.3021429 28.1239885,22.5276374 27.6467686,22.7872527 Z M11.214415,24.1187562 L12.1935961,22.9674423 C12.5955588,22.5050673 12.539284,21.8546597 12.064968,21.5125021 C11.5890442,21.1688034 10.879982,21.2689846 10.4796271,21.7282772 L9.49883814,22.8826735 C9.09526759,23.3419661 9.15475807,23.9939149 9.6274662,24.3345312 C10.1001743,24.6751475 10.8124523,24.57959 11.214415,24.1187562 Z M13.051937,25.5083917 L14.0427504,24.3466813 C14.4410027,23.8896905 14.3847977,23.2357475 13.9110701,22.8956972 C13.4389484,22.5556468 12.7323716,22.6510456 12.3309076,23.1141911 L11.3417001,24.2743629 C10.9386302,24.7359697 11.0044703,25.3699097 11.4798037,25.7145761 C11.9567431,26.0561651 12.650473,25.9715372 13.051937,25.5083917 Z M15.3685286,26.8861729 L16.3466362,25.7350647 C16.7504274,25.2743132 16.6925131,24.6240218 16.2179379,24.2803844 C15.7417539,23.938288 15.0355215,24.0384514 14.6317304,24.4992029 L13.652014,25.6472291 C13.2482228,26.1095216 13.3093546,26.762895 13.7839298,27.1034504 C14.2552876,27.4440058 14.9647374,27.3500064 15.3685286,26.8861729 Z M18.0639127,26.1288108 C17.5918279,25.7840554 16.8837008,25.884096 16.4790568,26.3427438 L15.4963497,27.4985976 C15.0965229,27.9587844 15.1543292,28.6098179 15.6280196,28.9499559 C16.1017101,29.290094 16.8082315,29.1962097 17.2112698,28.7314057 L18.1907654,27.577091 C18.5970152,27.1199823 18.5392089,26.4689488 18.0639127,26.1288108 Z M20.0245056,27.6165989 L19.6211592,27.3076923 C19.5152808,27.6559407 19.3304137,27.9837897 19.0631968,28.2548115 L18.4615385,28.8973954 C18.6850596,29.0518487 18.9455541,29.1538462 19.2144517,29.1538462 C19.4648625,29.1538462 19.7102316,29.0868193 19.9119047,28.9527655 C20.3891979,28.6278307 20.4446581,28.0318742 20.0245056,27.6165989 Z M27.6923077,11.5442947 L30.6969586,22.6923077 L36,21.3787822 L33.0592778,10.2307692 L27.6923077,11.5442947 Z M15.8195758,1 L14.3076923,1.25673815 L15.1065679,5.61538462 L16.6153846,5.35864647 L15.8195758,1 Z M21.6923077,1.25673815 L20.1829605,1 L19.3846154,5.35864647 L20.8939626,5.61538462 L21.6923077,1.25673815 Z M27.2307692,3.12951284 L25.878327,2.38461538 L23.5384615,6.25510255 L24.8909038,7 L27.2307692,3.12951284 Z M10.121673,2.38461538 L8.76923077,3.12951284 L11.1090962,7 L12.4615385,6.25510255 L10.121673,2.38461538 Z"/></symbol>
<symbol viewBox="0 0 36 36" id="exclamation"><path fill="#152845" d="M18,3 C26.271,3 33,9.729 33,18 C33,26.271 26.271,33 18,33 C9.729,33 3,26.271 3,18 C3,9.729 9.729,3 18,3 Z M18,0 C8.0595,0 0,8.0595 0,18 C0,27.9405 8.0595,36 18,36 C27.9405,36 36,27.9405 36,18 C36,8.0595 27.9405,0 18,0 Z M16.5,9 L19.5,9 L19.5,21 L16.5,21 L16.5,9 Z M18,27.375 C16.965,27.375 16.125,26.535 16.125,25.5 C16.125,24.465 16.965,23.625 18,23.625 C19.035,23.625 19.875,24.465 19.875,25.5 C19.875,26.535 19.035,27.375 18,27.375 Z"/></symbol>
<symbol viewBox="0 0 59 75" id="accessibility"><path fill="#B8BEC7" d="M87.9764868,47.0211682 C88.8711786,47.9458973 89.3249326,49.2153794 89.2205576,50.5026516 L87.3509299,73.6045996 C87.1620389,75.9402003 85.2205957,77.709778 82.9338146,77.709778 C82.812929,77.709778 82.6908888,77.7050108 82.5686177,77.6950112 C80.1263133,77.4942056 78.307603,75.3381323 78.5067698,72.8786995 L79.9634007,54.8852604 L73.975581,55.2211767 C75.4547264,58.2557018 76.2866085,61.6682346 76.2866085,65.2768058 C76.2866085,71.3337636 73.9425597,76.8356283 70.1231757,80.9245283 L64.3898277,75.1503494 C66.7463461,72.5401089 68.1848499,69.0745551 68.1848499,65.2768058 C68.1848499,57.1762118 61.6407488,50.5857877 53.597066,50.5857877 C49.8259439,50.5857877 46.3844572,52.0344485 43.7925179,54.4078383 L38.0588235,48.6336594 C41.2745878,45.5873905 45.3710735,43.4745712 49.9239686,42.7268116 L60.9036584,30.1337297 L54.6834198,26.49609 L47.1591871,33.255228 C45.3307783,34.8982993 42.5261635,34.7365619 40.8949586,32.8952429 C39.2638692,31.0536915 39.4240108,28.2293901 41.2525352,26.5869002 L51.1771606,17.6714563 C52.6088523,16.3854632 54.6993532,16.1716348 56.3583836,17.1421759 C56.3583836,17.1421759 76.6754745,29.0281942 76.7076875,29.0513327 C77.7565172,29.7113053 78.4392263,30.7442857 78.686655,31.8795874 C79.155534,33.5363791 78.8090415,35.3904882 77.5962601,36.7813607 L69.083121,46.5454903 L84.5524344,45.678317 C85.8305657,45.6078548 87.0813331,46.0962066 87.9764868,47.0211682 Z M80.0591692,27.8584906 C75.9651833,27.8584906 72.6470588,24.5324386 72.6470588,20.429303 C72.6470588,16.3263984 75.9652985,13 80.0591692,13 C84.152579,13 87.4705882,16.3263984 87.4705882,20.429303 C87.4705882,24.5324386 84.152579,27.8584906 80.0591692,27.8584906 Z M53.712326,79.8712287 C56.7465997,79.8712287 59.567062,78.9376289 61.904657,77.3439407 L67.7058824,83.1585799 C63.8484922,86.1886379 58.993007,88 53.712326,88 C41.1685269,88 31,77.8076707 31,65.2343664 C31,59.9414959 32.8071115,55.0741264 35.8299434,51.2075472 L41.6312843,57.022418 C40.0408737,59.3656274 39.1098114,62.1927239 39.1098114,65.2343664 C39.1098114,73.305099 45.6605326,79.8712287 53.712326,79.8712287 Z" transform="translate(-31 -13)"/></symbol></svg>