<svg xmlns="http://www.w3.org/2000/svg"><symbol viewBox="0 0 120 120" id="experience"><g fill="none" fill-rule="evenodd" stroke="#152845" transform="translate(15 15)">
    <path stroke-width="3.209" d="M67.2,45.6 C68,53.1 65.6,58.2 61.2,61.7 C56.8,65.2 50.5,66.7 44.5,68 C38.2,69.4 32.3,67 28.1,62.4 C24.2,58 21.5,51.7 21.5,45.6 C21.5,39.1 24.1,33.4 28.2,29.3 C32,25.5 37.3,23.3 44.5,23.3 C50.9,23.3 56.4,25.3 60.4,29.6 C64.4,33.7 66.5,39.4 67.2,45.6 Z"/>
    <path stroke-width="3.209" d="M56.5,45.6 C56.5,54.1 51.7,55.8 44.7,57.6 C38.3,59.2 33,52.2 33,45.6 C33,39 34.6,33.6 44.7,33.6 C49.6,33.6 56.5,34.8 56.5,45.6 Z"/>
    <path stroke-width="3.209" d="M48,45.1744681 C48,47.706383 46.5702128,48.212766 44.4851064,48.7489362 C42.5787234,49.2255319 41,47.1404255 41,45.1744681 C41,43.2085106 41.4765957,41.6 44.4851064,41.6 C45.9446809,41.6 48,41.9574468 48,45.1744681 Z"/>
    <path stroke-width="3.209" d="M27.5,19.2 C32.6,16.2 38.4,13.6 44.6,12.8 C50.7,12 56.2,13.7 61,16.7 C65.7,19.7 69.6,24.1 72.5,29.2 C75.2,34.2 76.7,39.9 77.2,45.6 C77.8,52.5 76.5,58.1 74.2,62.7 C71.4,68.2 67.6,72.8 62.1,75.3 C57,77.7 50.8,78.2 44.6,78.2 C37.5,78.2 32,77 27.6,74.9 C21.9,72.1 18.7,67.7 16.2,62.4 C14,57.4 12.3,51.9 11.8,45.7 C11.3,40.1 12.9,35.3 15.4,30.9 C17.9,26.5 21.6,23.1 26.1,20.2"/>
    <path stroke-width="2.657" d="M88.6,45.6 C88.6,69.9 68.9,89.6 44.6,89.6 C41.9,89.6 41.2,89.3 38.6,88.9 C37.9,88.8 37.9,75 37.2,74.8 C36.5,74.6 33.9,88.3 33.2,88.1 C14.8,82.8 0.6,65.7 0.6,45.6 C0.6,31.2 7.3,18.6 18,10.5 C17.6,10.1 30.9,27.4 32,26.4 C33.3,25.3 21.5,7.7 21.8,7.5 C28.7,3.1 35.8,1.5 44.6,1.5 C65.1,1.5 81.1,12.7 86,31.7 C86.1,32 72.3,39.1 72.4,39.4 C72.4,39.6 87.8,36.6 87.8,36.8 C88.5,40 88.6,42.2 88.6,45.6 Z"/>
    <path stroke-linecap="round" stroke-linejoin="round" stroke-width="3.866" d="M31.5 88.5C13 83.1.5 65.9.5 45.6.5 31.4 6.5 19.1 16.9 10.9M88.7 38.1C89.2 40.7 89 42.8 89 45.6 89 70.2 69.4 90.4 44.8 90.4 42.1 90.4 40.1 90.5 37.6 90.1M21.9 7.5C28.7 3.4 36.3.5 44.7.5 64.7.5 81.1 13.9 86.8 32"/>
  </g></symbol>
<symbol viewBox="0 0 120 120" id="concept-to-code"><g fill="#152845" transform="translate(10 25)">
    <path d="M100 32.0933L100 36.90875C96.7958974 36.90875 93.8461538 39.59835 93.8461538 42.7656 93.8461538 47.23665 96.4738462 55 81.5384615 55L81.5384615 50.8959C91.6246154 50.8959 89.6738462 47.6159 89.6738462 42.76355 89.6738462 38.47085 92.1579487 35.58855 94.3466667 34.5 92.1579487 33.41145 89.6738462 31.5521 89.6738462 27.7104 89.6738462 22.8478 91.6020513 18.0918 81.5384615 18.1041L81.5384615 14C96.4820513 14 93.8461538 23.2373 93.8461538 27.7104 93.8461538 30.8756 96.7958974 32.0933 100 32.0933zM6.15384615 27.7104C6.15384615 23.2373 3.51794872 14 18.4615385 14L18.4615385 18.1041C8.39794872 18.08975 10.3261538 22.84575 10.3261538 27.7104 10.3261538 31.55415 7.84205128 33.41145 5.65333333 34.5 7.84205128 35.58855 10.3261538 38.4729 10.3261538 42.76355 10.3261538 47.6159 8.37538462 50.8959 18.4615385 50.8959L18.4615385 55C3.52615385 55 6.15384615 47.23665 6.15384615 42.76355 6.15384615 39.5963 3.20410256 36.9067 0 36.9067L0 32.09125C3.20410256 32.0933 6.15384615 30.8756 6.15384615 27.7104zM56 46.7402597L45.5384615 46.7402597C44.8166154 46.7402597 44.2307692 47.2551688 44.2307692 47.8896104 44.2307692 48.5240519 44.8166154 49.038961 45.5384615 49.038961L56 49.038961C56.7218462 49.038961 57.3076923 48.5240519 57.3076923 47.8896104 57.3076923 47.2551688 56.7218462 46.7402597 56 46.7402597zM56 52.1038961L45.5384615 52.1038961C44.8166154 52.1038961 44.2307692 52.6188052 44.2307692 53.2532468 44.2307692 53.8876883 44.8166154 54.4025974 45.5384615 54.4025974L56 54.4025974C56.7218462 54.4025974 57.3076923 53.8876883 57.3076923 53.2532468 57.3076923 52.6188052 56.7218462 52.1038961 56 52.1038961zM55 56.7012987L44.2307692 56.7012987 47.0738462 58.4988831C47.4423932 58.8161039 47.9832479 59 48.545641 59L50.6875214 59C51.2475214 59 51.7907692 58.8161039 52.1593162 58.4988831L55 56.7012987zM65 21.9281369C65 30.7491067 56.965 36.7154337 56.965 43.6753247L51.9925 43.6753247C51.985 39.0831807 54.1675 35.2992343 56.295 31.6462801 58.1975 28.3714735 60 25.2770901 60 21.9281369 60 15.5218736 54.8125 12.605442 49.9925 12.605442 45.18 12.605442 40 15.5218736 40 21.9281369 40 25.2770901 41.8025 28.3714735 43.705 31.6462801 45.8325 35.2992343 48.0175 39.0831807 48.005 43.6753247L43.035 43.6753247C43.035 36.7154337 35 30.7491067 35 21.9281369 35 12.7265481 42.495 7.66233766 49.9925 7.66233766 57.495 7.66233766 65 12.7314912 65 21.9281369zM75 23.7532468L68.8461538 23.7532468C68.8946475 23.2550831 68.9382918 22.7524516 68.9382918 22.2319488 68.9382918 21.7025103 68.8970722 21.195411 68.8534279 20.6905456L75 20.6905456 75 23.7532468zM48.0769231 5.34451953L48.0769231 0 51.1538462 0 51.1538462 5.36363636C50.6107277 5.3035549 50.0676093 5.26805221 49.5244908 5.26805221 49.0419682 5.26805221 48.5594457 5.29536197 48.0769231 5.34451953zM38.6200103 8.42857143L35.7692308 3.83353741 39.0805208 2.2987013 41.9230769 6.8771553C40.7772829 7.30586724 39.6698647 7.82695357 38.6200103 8.42857143zM65 12.4965977L69.9050038 9.19480519 71.9230769 11.8357655 66.7351893 15.3246753C66.2527713 14.3061884 65.6667976 13.3658644 65 12.4965977zM60.9209535 2.2987013L64.2307692 3.83294458 61.3785191 8.42857143C60.331872 7.82718595 59.2249469 7.30866854 58.0769231 6.87775454L60.9209535 2.2987013zM33.2648107 15.3246753L28.0769231 11.8367863 30.0949962 9.19480519 35 12.4955045C34.3332024 13.3627378 33.7497544 14.3034252 33.2648107 15.3246753zM72.6923077 32.1828513L71.4815348 35.2467532 65.7692308 32.8795214C66.2639045 31.922504 66.7303112 30.9220954 67.1472505 29.8831169L72.6923077 32.1828513zM28.6410608 36.012987L27.3076923 32.6832139 32.8594401 29.8831169C33.2698898 31.0356283 33.7396531 32.1322442 34.2307692 33.1915965L28.6410608 36.012987zM25 23.7532468L25 20.6883117 31.1465721 20.6883117C31.1029278 21.1931771 31.0617082 21.7025103 31.0617082 22.2319488 31.0617082 22.7524516 31.1053525 23.2550831 31.1538462 23.7532468L25 23.7532468z"/>
  </g></symbol>
<symbol viewBox="0 0 120 120" id="designing-systems"><g fill="none" fill-rule="evenodd" transform="translate(0 17)">
    <path fill="#152845" fill-rule="nonzero" d="M60,33.4366667 L60,12.0266667 L39.88,0 L20,11.8966667 L20,33.56 L0,44.3066667 L0,68.36 L20.4533333,80 L40,68.69 L59.5466667,80 L80,68.36 L80,44.4366667 L60,33.4366667 Z M56,34.048032 L42,42 L42,25.4689793 L56,17 L56,34.048032 Z M39.8342018,5 L54,13.644858 L39.8474657,22 L26,13.4950049 L39.8342018,5 Z M38,41 L24,32.9887492 L24,16 L38,24.5870285 L38,41 Z M19,75 L4,66.4434219 L4,49 L19,57.7453014 L19,75 Z M6,45.4598741 L21.9001664,37 L36,45.082022 L20.4658902,54 L6,45.4598741 Z M38,48 L38,64.8252912 L22,74 L22,56.9750416 L38,48 Z M58,74 L42,64.8952115 L42,48 L58,57.0948812 L58,74 Z M58.1315439,37 L74,45.6415834 L59.4691659,54 L44,44.9619831 L58.1315439,37 Z M61,75 L61,57.6213744 L76,49 L76,66.3752286 L61,75 Z"/>
    <polygon fill="#FFF" points="77.337 36 62.742 47.557 51.724 47.557 49 53.016 54.397 69.237 56.101 80.369 80.734 81 96 51.554"/>
    <path fill="#152845" fill-rule="nonzero" d="M56,62.1699592 C70.4480902,63.3669605 65.2741829,48.015944 78.6433913,47.8768189 L84.4341774,52.7094491 C85.8753114,70.1525928 64.5391783,74.042847 56,62.1699592 Z M100.305026,39.7576851 C104.80168,32.7043025 118.722141,9.05040211 118.722141,9.05040211 C119.832523,7.089525 117.370258,5.03939779 115.650872,6.48839935 C115.650872,6.48839935 94.947368,24.4880437 88.8415799,30.1921748 C84.0167998,34.7045547 83.9957997,36.7651819 82.433915,44.1991899 L87.725948,48.6118197 C94.7347417,45.7295666 96.7533793,45.3358161 100.305026,39.7576851 Z"/>
  </g></symbol>
<symbol viewBox="0 0 36 36" id="exclamation"><path fill="#F60" d="M18,3 C26.271,3 33,9.729 33,18 C33,26.271 26.271,33 18,33 C9.729,33 3,26.271 3,18 C3,9.729 9.729,3 18,3 Z M18,0 C8.0595,0 0,8.0595 0,18 C0,27.9405 8.0595,36 18,36 C27.9405,36 36,27.9405 36,18 C36,8.0595 27.9405,0 18,0 Z M16.5,9 L19.5,9 L19.5,21 L16.5,21 L16.5,9 Z M18,27.375 C16.965,27.375 16.125,26.535 16.125,25.5 C16.125,24.465 16.965,23.625 18,23.625 C19.035,23.625 19.875,24.465 19.875,25.5 C19.875,26.535 19.035,27.375 18,27.375 Z"/></symbol>
<symbol viewBox="0 0 120 120" id="accessibility"><path fill="#152845" d="M89.5733517,56.557324 C90.5873358,57.6053502 91.1015902,59.0440967 90.9832986,60.5030051 L88.8643872,86.6852129 C88.6503108,89.332227 86.4500085,91.3377484 83.8583232,91.3377484 C83.7213195,91.3377484 83.5830073,91.3323456 83.4444334,91.3210127 C80.6764884,91.093433 78.6152834,88.6498833 78.8410058,85.8625261 L80.4918541,65.4699617 L73.7056585,65.8506669 C75.3820232,69.2897954 76.324823,73.1573326 76.324823,77.2470465 C76.324823,84.1115988 73.6682344,90.3470454 69.3395992,94.9811321 L62.8418048,88.4370626 C65.5125256,85.4787901 67.1428299,81.5511624 67.1428299,77.2470465 C67.1428299,68.0663733 59.7261819,60.597226 50.6100081,60.597226 C46.3360697,60.597226 42.4357181,62.2390416 39.498187,64.9288834 L33,58.384814 C36.6445329,54.9323759 41.2872166,52.5378474 46.4471644,51.6903865 L58.8908129,37.418227 L51.8412091,33.2955686 L43.3137454,40.9559251 C41.2415487,42.8180726 38.0629853,42.6347701 36.2142864,40.547942 C34.3657184,38.4608503 34.5472123,35.2599755 36.6195399,33.3984868 L47.8674487,23.2943171 C49.4900327,21.8368582 51.8592669,21.5945195 53.7395015,22.694466 C53.7395015,22.694466 76.7655377,36.1652867 76.8020459,36.1915104 C77.9907195,36.9394794 78.7644565,38.1101905 79.0448756,39.3968658 C79.5762719,41.274563 79.1835804,43.3758866 77.8090948,44.9522088 L68.1608705,56.0182223 L85.692759,55.0354259 C87.1413077,54.9555687 88.5588442,55.5090341 89.5733517,56.557324 Z M80.6003918,34.8396226 C75.960541,34.8396226 72.2,31.0700971 72.2,26.4198768 C72.2,21.7699182 75.9606716,18 80.6003918,18 C85.2395896,18 89,21.7699182 89,26.4198768 C89,31.0700971 85.2395896,34.8396226 80.6003918,34.8396226 Z M50.7406361,93.7873926 C54.1794797,93.7873926 57.3760036,92.7293127 60.0252779,90.9231328 L66.6,97.5130572 C62.2282912,100.947123 56.725408,103 50.7406361,103 C36.5243305,103 25,91.4486935 25,77.1989486 C25,71.2003621 27.0480596,65.6840099 30.4739358,61.3018868 L37.0487889,67.8920738 C35.2463235,70.547711 34.1911196,73.7517537 34.1911196,77.1989486 C34.1911196,86.3457789 41.6152703,93.7873926 50.7406361,93.7873926 Z"/></symbol></svg>