<?xml version="1.0" encoding="UTF-8"?>
<svg width="355px" height="60px" viewBox="0 0 355 60" version="1.1" xmlns="http://www.w3.org/2000/svg" xmlns:xlink="http://www.w3.org/1999/xlink">
    <title>robin-rundkvist-logo.svg</title>
    <g id="robin-rundkvist-logo.svg" stroke="none" stroke-width="1" fill="none" fill-rule="evenodd">
        <g id="Group" fill="#FFFFFF">
            <path d="M30,0 C46.5685425,0 60,13.4314575 60,30 C60,46.5685425 46.5685425,60 30,60 C13.4314575,60 0,46.5685425 0,30 C0,13.4314575 13.4314575,0 30,0 Z M30,3.66393443 C15.4549926,3.66393443 3.66393443,15.4549926 3.66393443,30 C3.66393443,44.5450074 15.4549926,56.3360656 30,56.3360656 C36.4847853,56.3360656 42.4221524,53.9922896 47.0112083,50.1056307 L46.8715453,50.1185599 L46.8715453,50.1185599 L46.6345518,50.1354046 L46.6345518,50.1354046 L46.4602119,50.1389565 C46.4133689,50.1377551 46.3782101,50.1340832 46.3559776,50.1276861 L46.3324789,50.1160146 C46.2981861,50.0812317 46.1430995,50.0581586 45.9270991,50.0406517 L45.5648984,50.0177982 L45.5648984,50.0177982 L44.7460262,49.978709 C44.3500102,49.9567629 44.0190344,49.9266068 43.9551948,49.8675068 C43.6951729,49.6278865 43.3775833,49.5782447 43.046674,49.5724442 L42.4462096,49.5777861 C42.1152459,49.5719856 41.7975114,49.5223438 41.537254,49.2827235 C41.062667,49.1288172 40.5139832,49.0413984 39.953052,49.0192359 C38.6857795,48.9695381 37.3733231,49.1394507 36.0630862,49.3347561 L34.7553448,49.5313325 C34.320848,49.5948839 33.8883536,49.6540635 33.459617,49.701678 L32.683519,49.7782531 L32.683519,49.7782531 L32.4025678,49.8235836 C31.9292616,49.9072772 31.4467573,50.0000217 31.1961565,49.6268581 C30.8758868,49.1485172 31.6248157,48.7212732 31.8544546,48.7040357 L32.0130518,48.6942414 L32.0130518,48.6942414 L32.6732399,48.6608153 C33.08042,48.637571 33.5094194,48.6027996 33.7325943,48.5378169 L35.9194226,47.9087463 L35.9194226,47.9087463 L39.0100017,47.0541599 L39.0100017,47.0541599 C39.0264439,47.0495427 38.9943725,47.0174163 38.9271202,46.9656657 L38.7496582,46.8383351 L38.7496582,46.8383351 L38.5020829,46.6726911 L38.5020829,46.6726911 L37.8914018,46.2825339 L37.8914018,46.2825339 L36.9463438,45.7032163 L36.9463438,45.7032163 L36.8207778,45.6302185 L36.8207778,45.6302185 C35.2941386,44.7763462 33.6744192,43.9021583 31.9763163,43.3056173 C31.4674365,43.1269321 30.9485675,42.9769888 30.4274595,42.8344908 L29.9058922,42.6936858 C28.9738646,42.4431263 28.0283649,42.1907199 27.0632692,42.188873 L26.7449945,42.1834851 L26.7449945,42.1834851 L26.1514451,42.1611374 C25.6724327,42.1445384 25.2186568,42.1470874 24.68666,42.2744449 C24.3587017,42.3524241 23.9173415,42.2611064 23.4850114,42.151759 L22.9783854,42.021569 C22.8972821,42.0016554 22.8184988,41.9834408 22.7430151,41.9681354 L22.3882826,41.911966 L22.3882826,41.911966 L22.0962188,41.8547135 C22.0470378,41.8436996 21.9979461,41.8320839 21.9494555,41.8200678 L21.6698177,41.7447763 L21.6698177,41.7447763 L21.4291675,41.6695361 C21.3936727,41.6575371 21.3608258,41.6459428 21.3311386,41.6349545 L21.1950251,41.5779073 C21.1800235,41.5701482 21.169205,41.5633977 21.1630812,41.5578571 L20.9490699,41.3874363 C20.6846598,41.1649526 20.6646737,41.0763452 20.7499614,40.9152369 L20.9138465,40.6393441 L20.9138465,40.6393441 C21.6474662,40.5389972 22.7331987,40.4940565 23.4521215,40.6744347 C24.5237695,40.9453099 25.6542051,40.9736286 26.7368759,40.7575442 L27.0990634,40.6889252 C27.6689734,40.5773427 28.2285739,40.4076517 28.2084017,39.6826624 C28.1986038,39.315134 28.0363257,38.9703839 27.876497,38.6385618 L27.7599074,38.3609725 L27.5524479,37.7730119 C27.5164998,37.6767242 27.4784563,37.5830722 27.4362028,37.49473 C27.2292216,37.0650235 27.2678009,36.6648671 27.0332631,36.2487044 C26.9193622,36.0461636 26.811585,35.802376 26.7411624,35.5801353 C26.7221024,35.5187266 26.7109649,35.3802687 26.7033904,35.2221912 L26.6817613,34.6213746 C26.6798202,34.5852751 26.677629,34.5555039 26.6750265,34.5341879 C26.6268023,34.1422397 26.5236136,33.9330554 26.4175545,33.7538863 L26.2922397,33.5435149 C26.1922192,33.3639183 26.1101659,33.1532377 26.0981736,32.7587244 L26.0876701,32.71867 L26.0876701,32.71867 L25.9342197,32.299332 C25.8774784,32.1386681 25.8344461,31.9956911 25.8630234,31.9861147 L25.9000155,31.9546094 L26.0264834,31.8598756 C26.1664467,31.7630196 26.3890495,31.632306 26.6658409,31.5496363 C26.6984277,31.5401821 26.7733494,31.6787449 26.8581071,31.8716292 L26.9624578,32.1231683 L26.9624578,32.1231683 L27.0637716,32.3908769 L27.0637716,32.3908769 L27.149569,32.638776 L27.149569,32.638776 L27.2073706,32.8308865 C27.2139779,32.8562571 27.2188988,32.877804 27.2218731,32.8947776 C27.2539886,33.0767291 27.3878331,33.3335893 27.5368516,33.5979079 L27.7609405,33.9915483 C27.8678558,34.1827342 27.9589629,34.3591451 27.9977463,34.4923253 C28.1122039,34.8878926 28.2230176,35.1514209 28.3300992,35.3796491 L28.4879113,35.7076086 C28.5912385,35.9247212 28.6907894,36.1549031 28.7864756,36.494893 L28.8575143,36.7719859 C29.0932768,37.777302 29.7723955,39.6395686 30.542145,40.3752408 C30.8510858,40.6704332 31.2419312,40.8257247 31.6516069,40.9537747 L32.1482196,41.1015691 C32.3970086,41.1761386 32.6434937,41.2571241 32.8740512,41.3688601 C33.3430248,41.5966415 33.9429776,41.6936024 34.4662423,41.8553323 L34.7693373,41.9617073 C34.9814624,42.0476486 35.1724239,42.1011833 35.360015,42.1458728 L35.9304698,42.2769665 C36.0297913,42.3022466 36.1327186,42.3312056 36.2414755,42.3667887 L36.9407259,42.6001877 C37.1810047,42.6804498 37.4218193,42.7589421 37.6431912,42.8229671 L38.0744243,42.9459575 C38.4541608,43.0567123 38.7165232,43.1503258 39.1955499,43.4028861 C39.6578895,43.6470842 40.1899713,44.1016209 40.6638637,44.4365951 L40.9401929,44.620593 C41.3400708,44.8662275 41.8330289,45.340259 42.2500531,45.5557279 L42.3693737,45.6153883 L42.3693737,45.6153883 L42.6659439,45.7520269 L42.6659439,45.7520269 L43.0122387,45.9005523 L43.0122387,45.9005523 L43.3752414,46.0475206 L43.3752414,46.0475206 L43.721935,46.1794876 L43.721935,46.1794876 L44.0193027,46.2830096 C44.1501523,46.3254186 44.2501234,46.3521192 44.3006439,46.3555491 C44.6377538,46.3781733 44.9572692,46.3753453 45.2862524,46.3661542 L45.9648608,46.344944 C46.3184952,46.3357529 46.6996388,46.3329249 47.1353538,46.3555491 L47.5030763,46.3844254 L47.9737693,46.4253182 L47.9737693,46.4253182 L48.2118517,46.4349559 C49.0509006,46.4465411 49.9594254,46.1922113 51.2206214,44.620593 L51.7661172,43.9483312 C52.3853065,43.1948477 52.9412944,42.5550263 53.4033875,42.0896115 C55.2775552,38.4687292 56.3360656,34.3579788 56.3360656,30 C56.3360656,15.4549926 44.5450074,3.66393443 30,3.66393443 Z" id="Shape" fill-rule="nonzero"></path>
            <path d="M86.2789285,44.4430447 C85.4585826,44.0623058 85.2406632,42.4598924 85.2148773,40.702381 L85.2130861,40.0773796 L85.2130861,40.0773796 L85.2232421,39.4499185 L85.2232421,39.4499185 L85.2633614,38.2292991 L85.2633614,38.2292991 L85.2949985,37.3848801 L85.2949985,37.3848801 L85.31293,36.6404339 C85.3158496,36.3369953 85.3106997,36.0735988 85.2921356,35.8641382 L85.325718,32.2024116 C85.3386776,30.3711238 85.3395789,28.5395794 85.3000213,26.70949 C85.0665957,26.4045407 85.0102322,26.0295402 85,25.6512468 L85.0002956,25.2743282 L85.0002956,25.2743282 L85.0289057,24.2102806 C85.0458443,23.8200218 85.0867456,23.4337739 85.2188034,23.0644558 C85.5581593,22.1839598 86.8551792,21.9694459 87.4470404,22.6971127 C88.7884243,19.8479707 90.7293407,16.8817873 93.9255951,15.9270569 C95.4963635,15.4360786 97.5733226,15.6176762 98.653189,16.9699007 C100.798842,20.4904531 99.6664973,24.5937049 97.6095181,28.3575485 L97.2482746,28.9992819 C97.1251336,29.2119701 96.9994125,29.4233779 96.8715504,29.6333334 L96.4819803,30.2586706 L96.4819803,30.2586706 L96.082199,30.8742612 L96.082199,30.8742612 L95.674841,31.4790728 L95.674841,31.4790728 L95.2625411,32.0720732 L95.2625411,32.0720732 L94.6405885,32.9371693 L94.6405885,32.9371693 L93.8186118,34.0396563 L93.8186118,34.0396563 L92.45938,35.8056441 L92.45938,35.8056441 C92.9325669,35.8970421 93.4075784,35.9811667 93.8834377,36.062034 L96.0272314,36.4175061 C97.9320528,36.7380362 99.8269996,37.1028431 101.649564,37.7689725 C102.567369,38.0909028 103.432818,38.4835047 104.285714,38.9467781 L104.034294,38.969452 L104.034294,38.969452 L103.50814,38.9895743 C103.422804,38.9930782 103.340295,38.9976414 103.263087,39.0047404 C99.7999503,39.4665781 96.2885337,39.5371964 92.8590325,38.7928854 L92.7118836,38.7784609 L92.7118836,38.7784609 L92.4104181,38.7374727 C92.3086344,38.7211306 92.2057537,38.7021214 92.1023711,38.6804815 L91.7913128,38.6077065 C91.6356259,38.5674095 91.4801485,38.5212757 91.3268888,38.4694282 L91.0239217,38.3581517 L91.0239217,38.3581517 L90.7304387,38.2318578 C89.3406103,37.5854989 88.4082311,36.4205854 89.7473221,34.8484144 L90.5622741,33.912033 L90.5622741,33.912033 L91.2025013,33.1558592 L91.2025013,33.1558592 L91.6373259,32.6283771 L91.6373259,32.6283771 L92.0749411,32.0836295 L92.0749411,32.0836295 L92.5122485,31.5228403 C92.5849353,31.4281067 92.6574802,31.3327555 92.7298186,31.2368125 L93.1608551,30.6542553 L93.1608551,30.6542553 L93.5838381,30.0587157 C95.9520715,26.6495194 97.7831619,22.6739482 96.5401271,19.1340234 C96.0834845,18.3069867 95.0220851,18.4683283 94.158478,18.7783634 L93.8631952,18.8925943 L93.8631952,18.8925943 L93.5921789,19.0109698 C93.5494673,19.0305887 93.5080935,19.0500384 93.468221,19.0691481 C90.6137902,20.7723904 89.1026746,24.1231461 88.5400497,27.2738519 C88.2408353,29.5549097 88.2689538,31.858141 88.3501452,34.1619354 L88.4494127,36.752802 C88.4803233,37.6157437 88.5042342,38.4776249 88.5066827,39.3373061 L88.5005739,39.4500103 L88.5005739,39.4500103 L88.4954222,39.8346371 L88.4954222,39.8346371 L88.5271706,41.2749963 L88.5271706,41.2749963 L88.5260373,41.7997837 L88.5260373,41.7997837 L88.5149105,42.1488727 L88.5149105,42.1488727 L88.4926401,42.4920756 L88.4926401,42.4920756 L88.4567858,42.8248744 C88.2901912,44.0748895 87.7704054,44.9960032 86.2789285,44.4430447 Z M109.615014,44.5448041 L109.421376,44.5071232 C103.905584,43.6448213 106.369223,34.8827858 110.338648,33.4618759 C111.685445,33.0402056 113.267457,33.7915964 113.689865,35.1299073 C114.078967,37.2143103 113.280312,40.0537925 111.015181,40.7489225 C110.842506,39.7713456 110.885852,38.7947153 110.968829,37.8194319 L111.058483,36.8446122 C111.07345,36.682222 111.087884,36.519873 111.100969,36.3575669 C109.764052,37.3474037 108.61656,40.1464176 109.338775,41.6892519 C109.611667,41.9400203 110.082377,41.9732754 110.495842,41.9750249 L110.975819,41.974556 L110.975819,41.974556 C114.884315,40.8936005 118.309262,34.9126045 114.683363,31.8566508 C114.486289,31.6753486 114.244754,31.5074494 114.015542,31.4020967 C115.053979,30.8325275 116.420856,31.1471309 117.319058,31.8404427 C119.730598,34.005583 118.821111,37.8875484 116.611818,40.804307 L116.316444,41.1790595 C116.165238,41.3634785 116.008876,41.5432962 115.847921,41.7177686 L115.520052,42.0593659 C113.796128,43.7851847 111.621575,44.8872882 109.615014,44.5448041 L109.615014,44.5448041 Z M128.664417,43.0358214 C127.907537,42.263383 127.508591,40.9178877 128.277174,40.007437 C128.725396,39.5047076 129.355441,39.2804045 130.00048,39.108564 L130.723677,38.9254601 C130.881883,38.8843926 131.037116,38.8413081 131.18677,38.7926757 C131.079009,38.9354483 130.951687,39.0723393 130.815574,39.2075428 L130.391623,39.6122844 C130.034296,39.9523398 129.689316,40.3080595 129.524934,40.7449727 C129.913649,41.0995193 130.417004,41.2093656 130.933197,41.2662094 L131.595936,41.3251789 C131.741221,41.3384997 131.883994,41.3542005 132.021878,41.3767522 C135.260995,41.6817797 135.607267,38.1068726 134.832857,35.5109843 L134.714795,35.1473278 C134.610376,34.8507051 134.49127,34.5712366 134.360467,34.3171202 C132.366106,31.1171992 129.122509,30.7175537 127.765471,34.721232 C127.495119,35.4998696 127.359593,36.3055139 127.251543,37.1187539 L127.128201,38.0970455 L127.128201,38.0970455 C127.041748,38.6742377 126.652555,39.1610576 126.106903,39.3160525 C125.147282,39.6103279 124.274957,38.739136 124.27016,37.7394708 L124.029083,35.0374087 L124.029083,35.0374087 L123.521689,29.6349115 C123.183515,26.0330877 122.860595,22.4297696 122.64338,18.8178993 C122.374745,17.504605 123.649126,15.9011156 124.832153,17.0194393 C125.308431,17.4781384 125.407008,18.1375976 125.405321,18.784816 C125.683708,23.0007784 125.985606,27.2138735 126.385027,31.4198557 C130.005061,26.0802764 136.83991,30.163189 137.68767,35.6072562 C138.390781,38.1360837 138.093205,41.2602992 136.198845,43.1456026 C134.161099,45.1587176 130.645388,45.0639342 128.664417,43.0358214 Z M144.842063,41.7142857 C143.037498,40.097447 142.558605,37.744972 142.324789,35.4017713 L142.260916,34.6998342 L142.260916,34.6998342 L142.123018,32.9767569 L142.123018,32.9767569 L142.059553,32.3119644 L142.059553,32.3119644 C141.328299,30.9535924 143.164003,29.4826888 144.441944,30.4597822 C145.389823,31.2577877 145.582132,32.4720361 145.658017,33.6686776 L145.709455,34.6799395 C145.718245,34.8443915 145.728386,35.0059545 145.741741,35.1633635 C145.788452,36.1196797 145.630419,37.0341958 145.43435,37.9349935 L145.191479,39.0111631 C145.031619,39.7266159 144.890094,40.4404779 144.852257,41.167127 L144.842063,41.7142857 L144.842063,41.7142857 Z M149.607143,26.2857143 C148.069934,24.5826058 145.962252,24.0655219 144.281177,22.7176096 C143.569474,21.9402566 143.632909,20.3662198 144.833253,20.5091087 C147.1327,21.0904295 149.013898,23.6721289 149.607143,26.2857143 Z M155.334322,41.477426 C154.865578,41.236155 154.591317,40.8022038 154.35522,40.366196 L154.158551,39.9964173 L154.158551,39.9964173 C153.634112,39.1214593 153.015912,38.2563096 152.085209,37.6772436 C150.719148,36.7267757 152.149613,34.8620226 153.657832,35.6185299 C154.895721,36.2702901 155.774359,37.2353532 156.534292,38.2786951 L157.122961,37.5272324 L157.122961,37.5272324 L157.528231,37.0198031 C158.900377,35.3288608 160.501578,33.6791867 162.829678,33.1621337 C166.174605,32.3885272 169.093343,35.303718 168.882054,38.1368518 L168.862766,38.3298485 C168.811338,38.9167988 168.664765,39.5327985 168.41406,40.0603826 C168.081081,39.5955905 167.750229,39.1480685 167.402997,38.6961351 L166.972059,38.2230292 L166.972059,38.2230292 L166.491692,37.6857486 L166.491692,37.6857486 L166.234575,37.4077743 C166.190835,37.3614177 166.14666,37.3151292 166.102063,37.2690316 L165.829535,36.9957179 C164.720049,35.9194806 163.383213,35.0945911 162.003639,36.2181043 C160.825527,37.1070004 159.952899,38.2421369 159.173395,39.4131746 L159.007298,39.680173 C158.978087,39.7255829 158.948117,39.7713539 158.917396,39.8173452 L158.724131,40.0948076 C157.949256,41.1598985 156.786011,42.1923636 155.334322,41.477426 Z M188.738159,44.2454309 C187.942459,43.3702674 187.666638,42.1890127 187.462558,41.006513 L187.302501,40.0449194 C187.26645,39.8339187 187.228731,39.6256252 187.186648,39.4218712 C186.796612,37.1190118 186.722381,34.7918665 186.679468,32.4622715 L186.643721,30.4653851 C186.616156,29.1344066 186.572277,27.8046654 186.459002,26.4802359 C186.344468,24.5273798 186.278145,22.5683075 186.25,20.613397 C186.253087,19.9635864 186.730982,19.3783091 187.377539,19.2881732 C188.177425,19.1745946 188.916598,19.8688147 188.870959,20.7025846 C190.190366,18.2612775 192.071278,16.0343263 194.767769,15.2219972 C197.495184,14.2149619 199.948973,14.538998 200.83175,17.7242026 C201.226662,19.6889222 200.702204,21.680513 199.987235,23.5361432 L199.711614,24.2253134 L199.711614,24.2253134 L199.426675,24.899829 L199.426675,24.899829 C198.896881,26.1167598 198.304853,27.3042775 197.696131,28.48378 L196.469922,30.8384382 C195.655603,32.4095392 194.865581,33.9917514 194.207808,35.635796 C193.920931,36.5129325 195.104215,36.9892605 196.702824,37.279615 L197.193811,37.361357 L197.193811,37.361357 L197.703389,37.4332295 L197.703389,37.4332295 L198.488769,37.525353 L198.488769,37.525353 L199.541938,37.6256722 L199.541938,37.6256722 L201.478962,37.7877963 L201.478962,37.7877963 L201.891026,37.8278228 L201.891026,37.8278228 L202.261554,37.8702255 L202.261554,37.8702255 L202.584218,37.9162934 C202.781966,37.9485135 202.943586,37.9840364 203.060638,38.0245809 C204.512433,38.2695966 206.029573,38.4536086 207.464286,38.5905245 C206.264353,39.1378721 205.03432,39.6194221 203.743933,39.8829812 L203.462677,39.9336299 L203.462677,39.9336299 L202.878024,40.031381 L202.878024,40.031381 L202.267299,40.1220518 L202.267299,40.1220518 L201.63464,40.2028204 L201.63464,40.2028204 L200.984185,40.2708646 C197.694319,40.5745713 193.892294,40.2952851 191.905857,37.8455734 C191.121786,36.7527368 191.246935,35.3454466 191.801562,34.1851409 L191.903798,33.9830592 C192.745413,32.3076172 193.599737,30.6403934 194.460544,28.9743285 L194.644982,28.5965155 L194.644982,28.5965155 L195.756583,26.4285638 L195.756583,26.4285638 L196.036527,25.8690627 L196.036527,25.8690627 L196.317657,25.2908292 C196.364334,25.1931404 196.410853,25.0948544 196.457111,24.9960629 L196.730684,24.3979819 C197.850571,21.886815 198.677215,19.174319 197.590064,17.6929632 C192.967896,17.3098199 189.956101,21.9958315 189.046568,26.1138976 C189.182442,29.54018 189.654712,32.9343407 190.19593,36.314826 L190.750225,39.6914359 L190.750225,39.6914359 C190.755433,39.7918404 190.765907,39.8999608 190.780199,40.0143726 L190.833082,40.3750574 L190.833082,40.3750574 L191.008509,41.3858253 C191.206427,42.5843281 191.314124,43.8771434 190.442588,44.3894059 C189.899502,44.7073311 189.209519,44.6917377 188.738159,44.2454309 Z M226.457149,42.9351817 C224.560651,41.4640853 223.578975,39.3657371 222.808775,37.2250705 L222.438041,36.1539187 C222.398083,36.0351118 222.358416,35.9164752 222.318919,35.7981091 L221.391835,37.5457114 C220.25417,39.6583291 218.964159,41.7561861 216.854884,43.0774252 C214.482566,44.3764917 211.878831,42.7968852 210.967451,40.6067094 C210.345572,38.9926065 210.324275,37.2331031 210.374429,35.5191737 L210.40301,34.6668911 L210.40301,34.6668911 C210.340414,33.5944731 211.319011,32.4344622 212.526984,32.9076458 C213.201573,33.1701208 213.505259,33.8903457 213.345249,34.537956 C213.316987,35.4681305 213.325745,36.4014929 213.379045,37.1376575 C213.668208,41.0234745 214.845501,41.3777481 216.195327,40.2636149 L216.399006,40.0857398 C216.433138,40.0543444 216.467356,40.0220957 216.501648,39.989026 L216.708202,39.781013 L216.708202,39.781013 L216.916002,39.5548423 L216.916002,39.5548423 L217.124512,39.3120612 L217.124512,39.3120612 L217.333195,39.0542171 L217.333195,39.0542171 L217.64537,38.6425926 L217.64537,38.6425926 L217.954914,38.2057803 L217.954914,38.2057803 L218.158922,37.9031576 L218.158922,37.9031576 L218.460058,37.4359705 L218.460058,37.4359705 L218.656782,37.1179335 L218.656782,37.1179335 L219.038138,36.4730333 L219.038138,36.4730333 L219.39979,35.8266804 L219.39979,35.8266804 L219.737446,35.1912537 L219.737446,35.1912537 L220.119229,34.4311936 L220.119229,34.4311936 L220.448423,33.7317248 L220.448423,33.7317248 L220.716642,33.1170249 L220.716642,33.1170249 L220.844817,32.7989517 L220.844817,32.7989517 C221.166073,31.6444059 222.282274,30.6566459 223.567083,31.3222707 C224.237738,31.7644552 224.571245,32.4618402 224.847267,33.1875487 L225.114487,33.9142956 C225.204078,34.1540897 225.297641,34.3886281 225.405532,34.6095079 C225.844028,35.7944657 226.326637,36.9701634 226.723492,38.1675188 C227.03247,39.0114414 227.145466,39.8907351 227.232281,40.7726475 L227.33476,41.8301032 C227.390584,42.3573633 227.461434,42.8808498 227.583989,43.3934882 C227.619612,43.4786015 227.699349,43.5670041 227.714286,43.6428571 C227.223187,43.50451 226.847449,43.2356591 226.457149,42.9351817 Z M254.140361,44.4039134 C253.431243,44.1216669 252.832508,43.6653458 252.452394,42.9735025 C252.382921,42.8459347 252.328253,42.7126622 252.285617,42.5754236 C248.008264,43.2673361 246.04896,41.2795186 244.806693,38.223047 L244.625531,37.7567627 C244.596167,37.67778 244.567201,37.5981797 244.538608,37.517987 L244.371328,37.0299236 L244.371328,37.0299236 L244.211801,36.5288512 L244.211801,36.5288512 L243.984422,35.7554937 L243.984422,35.7554937 L243.767735,34.9596626 L243.767735,34.9596626 L243.627215,34.418637 L243.627215,34.418637 C242.408772,35.7045389 241.489082,37.304704 240.709315,38.8969869 L239.959026,40.5003646 L239.959026,40.5003646 L239.731559,40.9670648 L239.731559,40.9670648 L239.570702,41.2821595 L239.570702,41.2821595 L239.402532,41.5964489 L239.402532,41.5964489 L239.227098,41.9065268 L239.227098,41.9065268 L239.044451,42.2089864 L239.044451,42.2089864 L238.854639,42.5004215 L238.854639,42.5004215 L238.657713,42.7774256 C237.688788,44.0759155 236.47228,44.7493502 235.033317,43.0668964 C234.494862,41.9342804 234.143679,40.721179 233.818663,39.4955971 L233.430895,38.0232606 C233.167009,37.0435122 232.878628,36.0731855 232.483266,35.1470991 C230.583898,33.7907949 231.913304,30.6904847 234.077224,32.1561017 C235.343181,33.4743832 235.937927,35.2345883 236.447591,36.9993918 L236.794047,38.2165389 C236.909803,38.6189165 237.028232,39.0161645 237.156537,39.4029083 L237.380436,39.0300002 L237.380436,39.0300002 L237.723803,38.4207447 L237.723803,38.4207447 L238.663742,36.7182285 L238.663742,36.7182285 L239.022404,36.0906625 L239.022404,36.0906625 L239.272615,35.6658096 L239.272615,35.6658096 L239.53111,35.2398594 L239.53111,35.2398594 L239.797377,34.8163118 L239.797377,34.8163118 L240.210228,34.1931511 L240.210228,34.1931511 L240.493684,33.7909218 L240.493684,33.7909218 L240.783118,33.4033446 L240.783118,33.4033446 L241.078019,33.0339194 C242.515757,31.2978699 244.127096,30.320536 245.651718,31.8802119 C246.007167,32.3520803 246.286971,32.914734 246.528841,33.5213428 L246.684882,33.9317466 L246.684882,33.9317466 L246.832166,34.3520908 L246.832166,34.3520908 L247.042106,34.9945 L247.042106,34.9945 L247.453162,36.2839754 L247.453162,36.2839754 L247.59667,36.7038744 C247.621134,36.7731013 247.645906,36.8419074 247.671038,36.9102283 L247.826553,37.3138177 C248.576276,39.1652693 249.688862,40.5356271 252.299899,40.014723 C252.83428,36.8195726 255.849675,32.0441749 259.14635,31.4159236 L259.38804,31.3774383 C261.067271,31.0831305 262.652074,32.5204414 262.388045,34.3146486 C261.543852,37.9917847 258.15709,40.3644478 254.986228,41.7663352 C256.819529,42.3273765 258.661909,40.7093269 259.995148,39.0564982 L260.305084,38.6602495 C260.355023,38.5944627 260.40408,38.5288947 260.452223,38.4636828 L260.729848,38.077782 L260.729848,38.077782 L261.101667,37.5293634 C261.13984,37.471143 261.176933,37.4139649 261.212913,37.3579662 C262.91694,34.7308739 263.652424,31.5985631 263.937013,28.4804325 L263.997037,27.9308672 L263.997037,27.9308672 L264.192378,26.2788806 C264.337047,24.9923649 264.436474,23.7025229 264.292592,22.412813 C264.139416,19.796967 264.195758,17.1756337 264.286262,14.5582121 C264.310474,14.2826866 264.329988,14.0030584 264.347496,13.7207256 L264.421832,12.4366913 C264.527133,10.7128886 264.705645,8.96722681 265.539027,7.50172488 C266.273988,6.48612663 267.887355,7.12901831 267.844248,8.38877739 C267.589321,10.5876375 267.3899,12.8016015 267.223123,15.0102954 C266.575631,20.2006962 267.191996,25.4002246 267.930043,30.5433036 C268.333071,33.7469502 268.880433,36.9978643 269.178571,40.1827126 C267.773467,37.5082441 266.628992,34.672523 265.792908,31.7513402 C265.690046,32.4641081 265.511671,33.2489482 265.264864,34.0686975 L265.090266,34.6199609 C265.028739,34.8051674 264.963911,34.9916899 264.895858,35.1791208 L264.682108,35.7437303 C264.570474,36.0269896 264.451762,36.3113749 264.326233,36.5955098 L264.066165,37.1630379 L264.066165,37.1630379 L263.788386,37.7274512 L263.788386,37.7274512 L263.493363,38.2863029 L263.493363,38.2863029 L263.181562,38.837146 L263.181562,38.837146 L262.853449,39.3775336 C260.72473,42.7617131 257.642652,45.3695935 254.140361,44.4039134 Z M256.011021,39.1675315 L255.678571,39.7857143 L255.678571,39.7857143 L256.127699,39.4883367 C257.632094,38.4594743 259.169372,37.0451999 259.535714,34.9642857 C258.149196,35.5652271 257.180726,37.0494982 256.356317,38.5339175 L256.011021,39.1675315 L256.011021,39.1675315 Z M275.881501,44.1367619 C275.511239,43.785296 275.386459,43.2938034 275.310984,42.8029943 L275.225673,42.1834072 L275.225673,42.1834072 C274.908768,39.8755716 274.710049,37.5556657 274.516064,35.2374842 C274.061582,28.7791053 274.006992,22.3060703 274.000808,15.8352644 L274,11.5219094 L274,11.5219094 C274.22693,9.20033986 276.590016,9.47708125 276.65953,11.6111834 L276.659443,13.3705181 L276.659443,13.3705181 L276.648501,18.1184096 C276.639353,24.9894322 276.714175,31.9014518 277.589659,38.6575139 C278.082384,37.5255683 278.628723,36.4190174 279.17743,35.3111079 C279.54173,33.2593095 280.431893,31.3034989 281.745255,29.6387347 C282.420349,28.7705597 283.570168,27.6899782 284.770684,28.3508154 C285.323299,28.6569628 285.63514,29.265234 285.546955,29.8653015 C285.498697,30.2421 285.32881,30.5269889 285.124809,30.7949424 L284.739668,31.2751628 C284.696981,31.3300871 284.655031,31.3861334 284.614516,31.4439014 L284.472179,31.6814567 L284.472179,31.6814567 L284.170263,32.1579736 L284.170263,32.1579736 L283.537961,33.1219738 C282.752785,34.3399283 282.05943,35.6159988 282.271448,37.0574905 C282.942854,39.6935239 288.517502,40.6320831 290.938132,40.1067889 C291.750293,39.9593846 292.560527,39.6459742 293.285714,39.3381025 C290.35392,43.2482606 283.424844,43.603891 280.194255,39.8712347 C280.156955,39.9397188 280.12009,40.0136158 280.083477,40.0921913 L279.974204,40.341219 L279.974204,40.341219 L279.810684,40.7577554 L279.810684,40.7577554 L279.350405,42.0157433 L279.350405,42.0157433 L279.223805,42.3398336 L279.223805,42.3398336 L279.090368,42.658949 L279.090368,42.658949 L278.948982,42.9686834 C278.31748,44.2841757 277.430748,45.2113287 275.881501,44.1367619 Z M297.014887,41.6499136 C296.306101,40.422543 295.983668,39.063029 295.73739,37.6781172 L295.527925,36.4277213 L295.527925,36.4277213 L295.400878,35.997417 C295.236026,35.4197961 295.114042,34.8289914 295.331211,34.2531283 C295.727169,33.181625 297.165424,32.997495 297.809283,33.9106445 C297.949983,34.0492154 298.06821,34.2982857 298.173301,34.6200112 L298.274359,34.9645536 L298.274359,34.9645536 L298.368734,35.3491229 L298.368734,35.3491229 L298.458501,35.7653095 L298.458501,35.7653095 L298.766351,37.3495317 L298.766351,37.3495317 L298.861057,37.8039246 C299.186926,39.2988449 299.626176,40.5498206 300.524592,40.1552177 C301.615491,39.427686 302.253102,38.2771317 302.805718,37.0686807 L303.392564,35.74496 C303.5397,35.4170664 303.690477,35.0947421 303.852363,34.7853939 C304.394974,33.7594816 305.019687,32.7842505 305.750614,31.9012456 L306.211885,31.3693501 L306.211885,31.3693501 L306.32367,31.2623415 C306.503533,31.1067527 306.723562,30.9991456 306.785714,31.2881392 C306.783383,31.3141794 306.71925,31.2566057 306.712703,31.2606729 L306.695392,31.2573452 L306.695392,31.2573452 C306.768999,33.9722852 306.652836,36.8220214 305.264677,39.22131 L305.097411,39.5835825 C304.950077,39.8840154 304.783265,40.1801655 304.599866,40.4673045 L304.372012,40.8072435 C304.332771,40.8630783 304.292913,40.9184769 304.252461,40.9734017 L304.002806,41.2969605 C303.917335,41.402716 303.829673,41.5062732 303.740005,41.6073296 L303.46517,41.9026933 C301.54854,43.8656083 298.866788,44.6503523 297.014887,41.6499136 Z M315.083412,43.6079485 C311.165382,42.2083266 310.423169,38.6227083 310.69234,36.0659766 C311.007933,34.6916939 314.166497,34.5670021 314.79366,35.8962372 C315.282563,36.9107126 315.406046,37.9870327 315.500747,39.0408769 C315.596918,40.24375 315.433203,41.4484365 315.487904,42.6494008 C315.447903,43.0485292 315.731001,43.3871012 316.428571,43.4232728 C316.053248,43.586236 315.551038,43.704772 315.083412,43.6079485 Z M319.321429,28.2142857 C317.313391,26.9475844 315.121663,26.1944194 313.100811,24.9823565 C312.098032,24.2066207 312.62611,22.2717041 313.797129,22.4387417 C316.154618,23.2340563 317.96367,25.8146822 319.321429,28.2142857 Z M326.658745,43.5986283 C327.10757,43.3155515 327.429743,42.7653616 327.681646,42.2715367 L327.881669,41.8696066 L327.881669,41.8696066 C328.430015,40.7082974 328.986346,39.5427466 329.416392,38.3297778 C329.551932,37.9181318 329.61444,37.4051786 329.408301,37.0330115 C329.320251,36.8953249 329.205811,36.7758551 329.069479,36.6887406 L329.185346,36.7487746 L329.185346,36.7487746 C329.196187,36.7615536 329.207239,36.7744413 329.247113,36.7801511 C328.324562,36.3428914 327.091105,36.5950305 325.796437,36.9853821 L325.23856,37.1595307 L325.23856,37.1595307 L324.397246,37.4313947 L324.397246,37.4313947 L323.83974,37.6056707 L323.83974,37.6056707 L323.290027,37.7631245 C321.838398,38.1520015 320.516477,38.2585976 319.696988,37.2601509 C318.862597,36.0378289 319.562571,34.6103667 320.3965,33.34111 L320.776083,32.7818496 L320.776083,32.7818496 L321.261311,32.0821093 L321.261311,32.0821093 L321.476069,31.756833 C321.509614,31.7041683 321.541919,31.6523079 321.572808,31.6012971 L321.804111,31.3008519 L321.804111,31.3008519 L322.483827,30.3677191 C323.015883,29.6391701 323.57626,28.9317334 324.307875,28.4385839 C325.674694,27.608114 327.270603,29.2500212 326.451125,30.6462459 L326.456308,30.6476598 C326.198643,31.0612633 325.917011,31.4586923 325.628427,31.8516562 L324.758839,33.028862 C324.47337,33.4246053 324.197966,33.8275929 323.949644,34.2495345 L324.757167,34.0398242 L324.757167,34.0398242 L325.175991,33.9398906 L325.175991,33.9398906 L325.602223,33.8460355 L325.602223,33.8460355 L326.033886,33.7603569 L326.033886,33.7603569 L326.469005,33.6849527 L326.469005,33.6849527 L326.905604,33.6219211 C326.978384,33.6125634 327.051143,33.6038086 327.123841,33.5957005 L327.558956,33.5551614 C329.944385,33.378721 332.172848,34.0016758 332.765116,36.9947834 C333.295481,40.3719114 329.989012,44.0916246 326.658745,43.5986283 Z M345.693677,23.1301507 C346.132077,25.5584639 345.86049,27.9795289 345.479015,30.4024311 L345.113155,32.6397428 L345.113155,32.6397428 C345.933322,32.6885125 346.755128,32.7537201 347.576983,32.8234358 L348.93706,32.9409608 C350.976154,33.1174516 353.008187,33.2814199 355,33.2514532 C351.688492,33.9751596 348.263439,34.3163434 344.828069,34.5694092 C344.631693,36.1050155 344.528759,37.6448182 344.671713,39.1897466 L344.714301,39.5822456 C344.759221,39.993641 344.825152,40.4420877 345.038176,40.7508463 C346.050689,42.1674256 347.979453,43.0073237 349.857143,43.4023045 C348.346604,43.7358369 346.660625,43.7295106 345.125989,43.3395597 C341.71966,42.3910158 340.836853,39.6560897 340.857494,36.4628793 L340.869022,35.9266619 L340.869022,35.9266619 L340.895613,35.3833242 C340.906802,35.2011767 340.920225,35.0180702 340.935602,34.8342324 C340.065023,34.8923985 339.195506,34.9519655 338.329536,35.0178571 L337.803945,34.9911763 L337.803945,34.9911763 L337.41252,34.9598945 L337.41252,34.9598945 L337.035912,34.9167023 L337.035912,34.9167023 L336.798602,34.880291 L336.798602,34.880291 L336.576174,34.8370866 L336.576174,34.8370866 L336.371945,34.7864892 L336.371945,34.7864892 L336.189236,34.7278991 C335.505857,34.4767536 335.418564,34.0193862 336.883076,33.183045 C338.294487,32.8189595 339.737438,32.6413097 341.199055,32.5796592 L341.353266,31.5560179 L341.353266,31.5560179 L341.670567,29.5541595 C341.947801,27.7625388 342.152642,26.1190165 341.996943,24.8604019 C340.916387,24.7623778 341.07259,23.8016711 341.438045,23.0059196 L341.552931,22.7731704 L341.552931,22.7731704 L341.674208,22.5564844 L341.674208,22.5564844 L341.795709,22.3620273 L341.795709,22.3620273 L341.911271,22.195965 C341.929694,22.1709967 341.947612,22.1474685 341.964897,22.1255087 C343.139706,20.8086469 345.474927,21.6227211 345.693677,23.1301507 Z" id="Shape"></path>
        </g>
    </g>
</svg>