<svg xmlns="http://www.w3.org/2000/svg" width="120" height="120" viewBox="0 0 120 120">
  <path fill="#152845" d="M89.5733517,56.557324 C90.5873358,57.6053502 91.1015902,59.0440967 90.9832986,60.5030051 L88.8643872,86.6852129 C88.6503108,89.332227 86.4500085,91.3377484 83.8583232,91.3377484 C83.7213195,91.3377484 83.5830073,91.3323456 83.4444334,91.3210127 C80.6764884,91.093433 78.6152834,88.6498833 78.8410058,85.8625261 L80.4918541,65.4699617 L73.7056585,65.8506669 C75.3820232,69.2897954 76.324823,73.1573326 76.324823,77.2470465 C76.324823,84.1115988 73.6682344,90.3470454 69.3395992,94.9811321 L62.8418048,88.4370626 C65.5125256,85.4787901 67.1428299,81.5511624 67.1428299,77.2470465 C67.1428299,68.0663733 59.7261819,60.597226 50.6100081,60.597226 C46.3360697,60.597226 42.4357181,62.2390416 39.498187,64.9288834 L33,58.384814 C36.6445329,54.9323759 41.2872166,52.5378474 46.4471644,51.6903865 L58.8908129,37.418227 L51.8412091,33.2955686 L43.3137454,40.9559251 C41.2415487,42.8180726 38.0629853,42.6347701 36.2142864,40.547942 C34.3657184,38.4608503 34.5472123,35.2599755 36.6195399,33.3984868 L47.8674487,23.2943171 C49.4900327,21.8368582 51.8592669,21.5945195 53.7395015,22.694466 C53.7395015,22.694466 76.7655377,36.1652867 76.8020459,36.1915104 C77.9907195,36.9394794 78.7644565,38.1101905 79.0448756,39.3968658 C79.5762719,41.274563 79.1835804,43.3758866 77.8090948,44.9522088 L68.1608705,56.0182223 L85.692759,55.0354259 C87.1413077,54.9555687 88.5588442,55.5090341 89.5733517,56.557324 Z M80.6003918,34.8396226 C75.960541,34.8396226 72.2,31.0700971 72.2,26.4198768 C72.2,21.7699182 75.9606716,18 80.6003918,18 C85.2395896,18 89,21.7699182 89,26.4198768 C89,31.0700971 85.2395896,34.8396226 80.6003918,34.8396226 Z M50.7406361,93.7873926 C54.1794797,93.7873926 57.3760036,92.7293127 60.0252779,90.9231328 L66.6,97.5130572 C62.2282912,100.947123 56.725408,103 50.7406361,103 C36.5243305,103 25,91.4486935 25,77.1989486 C25,71.2003621 27.0480596,65.6840099 30.4739358,61.3018868 L37.0487889,67.8920738 C35.2463235,70.547711 34.1911196,73.7517537 34.1911196,77.1989486 C34.1911196,86.3457789 41.6152703,93.7873926 50.7406361,93.7873926 Z"/>
</svg>
