<svg xmlns="http://www.w3.org/2000/svg" width="59" height="75" viewBox="0 0 59 75">
  <path fill="#B8BEC7" d="M87.9764868,47.0211682 C88.8711786,47.9458973 89.3249326,49.2153794 89.2205576,50.5026516 L87.3509299,73.6045996 C87.1620389,75.9402003 85.2205957,77.709778 82.9338146,77.709778 C82.812929,77.709778 82.6908888,77.7050108 82.5686177,77.6950112 C80.1263133,77.4942056 78.307603,75.3381323 78.5067698,72.8786995 L79.9634007,54.8852604 L73.975581,55.2211767 C75.4547264,58.2557018 76.2866085,61.6682346 76.2866085,65.2768058 C76.2866085,71.3337636 73.9425597,76.8356283 70.1231757,80.9245283 L64.3898277,75.1503494 C66.7463461,72.5401089 68.1848499,69.0745551 68.1848499,65.2768058 C68.1848499,57.1762118 61.6407488,50.5857877 53.597066,50.5857877 C49.8259439,50.5857877 46.3844572,52.0344485 43.7925179,54.4078383 L38.0588235,48.6336594 C41.2745878,45.5873905 45.3710735,43.4745712 49.9239686,42.7268116 L60.9036584,30.1337297 L54.6834198,26.49609 L47.1591871,33.255228 C45.3307783,34.8982993 42.5261635,34.7365619 40.8949586,32.8952429 C39.2638692,31.0536915 39.4240108,28.2293901 41.2525352,26.5869002 L51.1771606,17.6714563 C52.6088523,16.3854632 54.6993532,16.1716348 56.3583836,17.1421759 C56.3583836,17.1421759 76.6754745,29.0281942 76.7076875,29.0513327 C77.7565172,29.7113053 78.4392263,30.7442857 78.686655,31.8795874 C79.155534,33.5363791 78.8090415,35.3904882 77.5962601,36.7813607 L69.083121,46.5454903 L84.5524344,45.678317 C85.8305657,45.6078548 87.0813331,46.0962066 87.9764868,47.0211682 Z M80.0591692,27.8584906 C75.9651833,27.8584906 72.6470588,24.5324386 72.6470588,20.429303 C72.6470588,16.3263984 75.9652985,13 80.0591692,13 C84.152579,13 87.4705882,16.3263984 87.4705882,20.429303 C87.4705882,24.5324386 84.152579,27.8584906 80.0591692,27.8584906 Z M53.712326,79.8712287 C56.7465997,79.8712287 59.567062,78.9376289 61.904657,77.3439407 L67.7058824,83.1585799 C63.8484922,86.1886379 58.993007,88 53.712326,88 C41.1685269,88 31,77.8076707 31,65.2343664 C31,59.9414959 32.8071115,55.0741264 35.8299434,51.2075472 L41.6312843,57.022418 C40.0408737,59.3656274 39.1098114,62.1927239 39.1098114,65.2343664 C39.1098114,73.305099 45.6605326,79.8712287 53.712326,79.8712287 Z" transform="translate(-31 -13)"/>
</svg>
