<svg xmlns="http://www.w3.org/2000/svg" width="120" height="120" viewBox="0 0 120 120">
  <g fill="#152845" transform="translate(10 25)">
    <path d="M100 32.0933L100 36.90875C96.7958974 36.90875 93.8461538 39.59835 93.8461538 42.7656 93.8461538 47.23665 96.4738462 55 81.5384615 55L81.5384615 50.8959C91.6246154 50.8959 89.6738462 47.6159 89.6738462 42.76355 89.6738462 38.47085 92.1579487 35.58855 94.3466667 34.5 92.1579487 33.41145 89.6738462 31.5521 89.6738462 27.7104 89.6738462 22.8478 91.6020513 18.0918 81.5384615 18.1041L81.5384615 14C96.4820513 14 93.8461538 23.2373 93.8461538 27.7104 93.8461538 30.8756 96.7958974 32.0933 100 32.0933zM6.15384615 27.7104C6.15384615 23.2373 3.51794872 14 18.4615385 14L18.4615385 18.1041C8.39794872 18.08975 10.3261538 22.84575 10.3261538 27.7104 10.3261538 31.55415 7.84205128 33.41145 5.65333333 34.5 7.84205128 35.58855 10.3261538 38.4729 10.3261538 42.76355 10.3261538 47.6159 8.37538462 50.8959 18.4615385 50.8959L18.4615385 55C3.52615385 55 6.15384615 47.23665 6.15384615 42.76355 6.15384615 39.5963 3.20410256 36.9067 0 36.9067L0 32.09125C3.20410256 32.0933 6.15384615 30.8756 6.15384615 27.7104zM56 46.7402597L45.5384615 46.7402597C44.8166154 46.7402597 44.2307692 47.2551688 44.2307692 47.8896104 44.2307692 48.5240519 44.8166154 49.038961 45.5384615 49.038961L56 49.038961C56.7218462 49.038961 57.3076923 48.5240519 57.3076923 47.8896104 57.3076923 47.2551688 56.7218462 46.7402597 56 46.7402597zM56 52.1038961L45.5384615 52.1038961C44.8166154 52.1038961 44.2307692 52.6188052 44.2307692 53.2532468 44.2307692 53.8876883 44.8166154 54.4025974 45.5384615 54.4025974L56 54.4025974C56.7218462 54.4025974 57.3076923 53.8876883 57.3076923 53.2532468 57.3076923 52.6188052 56.7218462 52.1038961 56 52.1038961zM55 56.7012987L44.2307692 56.7012987 47.0738462 58.4988831C47.4423932 58.8161039 47.9832479 59 48.545641 59L50.6875214 59C51.2475214 59 51.7907692 58.8161039 52.1593162 58.4988831L55 56.7012987zM65 21.9281369C65 30.7491067 56.965 36.7154337 56.965 43.6753247L51.9925 43.6753247C51.985 39.0831807 54.1675 35.2992343 56.295 31.6462801 58.1975 28.3714735 60 25.2770901 60 21.9281369 60 15.5218736 54.8125 12.605442 49.9925 12.605442 45.18 12.605442 40 15.5218736 40 21.9281369 40 25.2770901 41.8025 28.3714735 43.705 31.6462801 45.8325 35.2992343 48.0175 39.0831807 48.005 43.6753247L43.035 43.6753247C43.035 36.7154337 35 30.7491067 35 21.9281369 35 12.7265481 42.495 7.66233766 49.9925 7.66233766 57.495 7.66233766 65 12.7314912 65 21.9281369zM75 23.7532468L68.8461538 23.7532468C68.8946475 23.2550831 68.9382918 22.7524516 68.9382918 22.2319488 68.9382918 21.7025103 68.8970722 21.195411 68.8534279 20.6905456L75 20.6905456 75 23.7532468zM48.0769231 5.34451953L48.0769231 0 51.1538462 0 51.1538462 5.36363636C50.6107277 5.3035549 50.0676093 5.26805221 49.5244908 5.26805221 49.0419682 5.26805221 48.5594457 5.29536197 48.0769231 5.34451953zM38.6200103 8.42857143L35.7692308 3.83353741 39.0805208 2.2987013 41.9230769 6.8771553C40.7772829 7.30586724 39.6698647 7.82695357 38.6200103 8.42857143zM65 12.4965977L69.9050038 9.19480519 71.9230769 11.8357655 66.7351893 15.3246753C66.2527713 14.3061884 65.6667976 13.3658644 65 12.4965977zM60.9209535 2.2987013L64.2307692 3.83294458 61.3785191 8.42857143C60.331872 7.82718595 59.2249469 7.30866854 58.0769231 6.87775454L60.9209535 2.2987013zM33.2648107 15.3246753L28.0769231 11.8367863 30.0949962 9.19480519 35 12.4955045C34.3332024 13.3627378 33.7497544 14.3034252 33.2648107 15.3246753zM72.6923077 32.1828513L71.4815348 35.2467532 65.7692308 32.8795214C66.2639045 31.922504 66.7303112 30.9220954 67.1472505 29.8831169L72.6923077 32.1828513zM28.6410608 36.012987L27.3076923 32.6832139 32.8594401 29.8831169C33.2698898 31.0356283 33.7396531 32.1322442 34.2307692 33.1915965L28.6410608 36.012987zM25 23.7532468L25 20.6883117 31.1465721 20.6883117C31.1029278 21.1931771 31.0617082 21.7025103 31.0617082 22.2319488 31.0617082 22.7524516 31.1053525 23.2550831 31.1538462 23.7532468L25 23.7532468z"/>
  </g>
</svg>
