<svg xmlns="http://www.w3.org/2000/svg" width="119" height="80" viewBox="0 0 119 80">
  <g fill="#B8BEC7">
    <path d="M77.0296958,42.8029994 L72.7890762,44.9821431 L58.1315439,37 L44,44.9619831 L58.8866641,53.6596674 L57.2851207,56.6885223 L42,48 L42,64.8952115 L58,74 L58,73.7802028 L60,75.5014648 L61,74.3842311 L61,75 L64.4540875,73.0139523 L69.5414915,74.3119413 L59.5466667,80 L40,68.69 L20.4533333,80 L0,68.36 L0,44.3066667 L20,33.56 L20,11.8966667 L39.88,0 L60,12.0266667 L60,33.4366667 L77.0296958,42.8029994 Z M56,34.048032 L56,17 L42,25.4689793 L42,42 L56,34.048032 Z M39.8342018,5 L26,13.4950049 L39.8474657,22 L54,13.644858 L39.8342018,5 Z M38,41 L38,24.5870285 L24,16 L24,32.9887492 L38,41 Z M19,75 L19,57.7453014 L4,49 L4,66.4434219 L19,75 Z M6,45.4598741 L20.4658902,54 L36,45.082022 L21.9001664,37 L6,45.4598741 Z M38,48 L22,56.9750416 L22,74 L38,64.8252912 L38,48 Z"/>
    <path d="M56,62.1699592 C70.4480902,63.3669605 65.2741829,48.015944 78.6433913,47.8768189 L84.4341774,52.7094491 C85.8753114,70.1525928 64.5391783,74.042847 56,62.1699592 Z M100.305026,39.7576851 C104.80168,32.7043025 118.722141,9.05040211 118.722141,9.05040211 C119.832523,7.089525 117.370258,5.03939779 115.650872,6.48839935 C115.650872,6.48839935 94.947368,24.4880437 88.8415799,30.1921748 C84.0167998,34.7045547 83.9957997,36.7651819 82.433915,44.1991899 L87.725948,48.6118197 C94.7347417,45.7295666 96.7533793,45.3358161 100.305026,39.7576851 Z"/>
  </g>
</svg>
