<svg xmlns="http://www.w3.org/2000/svg" width="120" height="120" viewBox="0 0 120 120">
  <g fill="none" fill-rule="evenodd" stroke="#152845" transform="translate(15 15)">
    <path stroke-width="3.209" d="M67.2,45.6 C68,53.1 65.6,58.2 61.2,61.7 C56.8,65.2 50.5,66.7 44.5,68 C38.2,69.4 32.3,67 28.1,62.4 C24.2,58 21.5,51.7 21.5,45.6 C21.5,39.1 24.1,33.4 28.2,29.3 C32,25.5 37.3,23.3 44.5,23.3 C50.9,23.3 56.4,25.3 60.4,29.6 C64.4,33.7 66.5,39.4 67.2,45.6 Z"/>
    <path stroke-width="3.209" d="M56.5,45.6 C56.5,54.1 51.7,55.8 44.7,57.6 C38.3,59.2 33,52.2 33,45.6 C33,39 34.6,33.6 44.7,33.6 C49.6,33.6 56.5,34.8 56.5,45.6 Z"/>
    <path stroke-width="3.209" d="M48,45.1744681 C48,47.706383 46.5702128,48.212766 44.4851064,48.7489362 C42.5787234,49.2255319 41,47.1404255 41,45.1744681 C41,43.2085106 41.4765957,41.6 44.4851064,41.6 C45.9446809,41.6 48,41.9574468 48,45.1744681 Z"/>
    <path stroke-width="3.209" d="M27.5,19.2 C32.6,16.2 38.4,13.6 44.6,12.8 C50.7,12 56.2,13.7 61,16.7 C65.7,19.7 69.6,24.1 72.5,29.2 C75.2,34.2 76.7,39.9 77.2,45.6 C77.8,52.5 76.5,58.1 74.2,62.7 C71.4,68.2 67.6,72.8 62.1,75.3 C57,77.7 50.8,78.2 44.6,78.2 C37.5,78.2 32,77 27.6,74.9 C21.9,72.1 18.7,67.7 16.2,62.4 C14,57.4 12.3,51.9 11.8,45.7 C11.3,40.1 12.9,35.3 15.4,30.9 C17.9,26.5 21.6,23.1 26.1,20.2"/>
    <path stroke-width="2.657" d="M88.6,45.6 C88.6,69.9 68.9,89.6 44.6,89.6 C41.9,89.6 41.2,89.3 38.6,88.9 C37.9,88.8 37.9,75 37.2,74.8 C36.5,74.6 33.9,88.3 33.2,88.1 C14.8,82.8 0.6,65.7 0.6,45.6 C0.6,31.2 7.3,18.6 18,10.5 C17.6,10.1 30.9,27.4 32,26.4 C33.3,25.3 21.5,7.7 21.8,7.5 C28.7,3.1 35.8,1.5 44.6,1.5 C65.1,1.5 81.1,12.7 86,31.7 C86.1,32 72.3,39.1 72.4,39.4 C72.4,39.6 87.8,36.6 87.8,36.8 C88.5,40 88.6,42.2 88.6,45.6 Z"/>
    <path stroke-linecap="round" stroke-linejoin="round" stroke-width="3.866" d="M31.5 88.5C13 83.1.5 65.9.5 45.6.5 31.4 6.5 19.1 16.9 10.9M88.7 38.1C89.2 40.7 89 42.8 89 45.6 89 70.2 69.4 90.4 44.8 90.4 42.1 90.4 40.1 90.5 37.6 90.1M21.9 7.5C28.7 3.4 36.3.5 44.7.5 64.7.5 81.1 13.9 86.8 32"/>
  </g>
</svg>
